G04*
G04 #@! TF.GenerationSoftware,Altium Limited,Altium Designer,20.1.8 (145)*
G04*
G04 Layer_Color=65535*
%FSLAX25Y25*%
%MOIN*%
G70*
G04*
G04 #@! TF.SameCoordinates,6820B22E-0937-42D0-9791-FC0B0F65920B*
G04*
G04*
G04 #@! TF.FilePolarity,Positive*
G04*
G01*
G75*
%ADD10C,0.00591*%
%ADD11C,0.00787*%
%ADD12C,0.01181*%
%ADD13C,0.00394*%
%ADD14C,0.00500*%
%ADD15C,0.01575*%
%ADD16C,0.00600*%
%ADD17R,0.00689X0.02362*%
G36*
X32438Y43984D02*
X33113D01*
Y43917D01*
X33518D01*
Y43849D01*
X33855D01*
Y43782D01*
X34193D01*
Y43714D01*
X34463D01*
Y43647D01*
X34665D01*
Y43579D01*
X34935D01*
Y43512D01*
X35138D01*
Y43444D01*
X35340D01*
Y43377D01*
X35543D01*
Y43309D01*
X35745D01*
Y43242D01*
X35881D01*
Y43174D01*
X36083D01*
Y43106D01*
X36218D01*
Y43039D01*
X36421D01*
Y42972D01*
X36556D01*
Y42904D01*
X36691D01*
Y42836D01*
X36826D01*
Y42769D01*
X36961D01*
Y42702D01*
X37096D01*
Y42634D01*
X37231D01*
Y42566D01*
X37366D01*
Y42499D01*
X37501D01*
Y42432D01*
X37636D01*
Y42364D01*
X37771D01*
Y42296D01*
X37906D01*
Y42229D01*
X38041D01*
Y42161D01*
X38176D01*
Y42094D01*
X38243D01*
Y42026D01*
X38378D01*
Y41959D01*
X38513D01*
Y41891D01*
X38581D01*
Y41824D01*
X38716D01*
Y41756D01*
X38851D01*
Y41689D01*
X38918D01*
Y41621D01*
X38986D01*
Y41554D01*
X39053D01*
Y41486D01*
X39121D01*
Y41419D01*
X39188D01*
Y41351D01*
X39256D01*
Y41284D01*
X39323D01*
Y41216D01*
Y41149D01*
X39391D01*
Y41081D01*
Y41014D01*
Y40946D01*
X39458D01*
Y40879D01*
Y40811D01*
Y40744D01*
Y40676D01*
X39526D01*
Y40609D01*
Y40541D01*
Y40474D01*
Y40406D01*
Y40339D01*
X39458D01*
Y40271D01*
Y40204D01*
Y40136D01*
Y40069D01*
X39391D01*
Y40001D01*
Y39934D01*
X39323D01*
Y39866D01*
Y39799D01*
X39256D01*
Y39731D01*
X39188D01*
Y39664D01*
Y39596D01*
X39121D01*
Y39529D01*
X39053D01*
Y39461D01*
X38918D01*
Y39394D01*
X38851D01*
Y39326D01*
X38716D01*
Y39259D01*
X38513D01*
Y39191D01*
X38176D01*
Y39124D01*
X38108D01*
Y39191D01*
X37703D01*
Y39259D01*
X37568D01*
Y39326D01*
X37433D01*
Y39394D01*
X37298D01*
Y39461D01*
X37163D01*
Y39529D01*
X37096D01*
Y39596D01*
X36961D01*
Y39664D01*
X36826D01*
Y39731D01*
X36758D01*
Y39799D01*
X36623D01*
Y39866D01*
X36488D01*
Y39934D01*
X36353D01*
Y40001D01*
X36218D01*
Y40069D01*
X36083D01*
Y40136D01*
X35948D01*
Y40204D01*
X35813D01*
Y40271D01*
X35678D01*
Y40339D01*
X35543D01*
Y40406D01*
X35408D01*
Y40474D01*
X35273D01*
Y40541D01*
X35070D01*
Y40609D01*
X34935D01*
Y40676D01*
X34733D01*
Y40744D01*
X34530D01*
Y40811D01*
X34328D01*
Y40879D01*
X34125D01*
Y40946D01*
X33923D01*
Y41014D01*
X33653D01*
Y41081D01*
X33315D01*
Y41149D01*
X32910D01*
Y41216D01*
X32370D01*
Y41284D01*
X31223D01*
Y41216D01*
X30615D01*
Y41149D01*
X30278D01*
Y41081D01*
X30007D01*
Y41014D01*
X29737D01*
Y40946D01*
X29535D01*
Y40879D01*
X29400D01*
Y40811D01*
X29197D01*
Y40744D01*
X29063D01*
Y40676D01*
X28860D01*
Y40609D01*
X28725D01*
Y40541D01*
X28590D01*
Y40474D01*
X28455D01*
Y40406D01*
X28387D01*
Y40339D01*
X28252D01*
Y40271D01*
X28117D01*
Y40204D01*
X27982D01*
Y40136D01*
X27915D01*
Y40069D01*
X27780D01*
Y40001D01*
X27712D01*
Y39934D01*
X27577D01*
Y39866D01*
X27510D01*
Y39799D01*
X27442D01*
Y39731D01*
X27307D01*
Y39664D01*
X27240D01*
Y39596D01*
X27172D01*
Y39529D01*
X27105D01*
Y39461D01*
X26970D01*
Y39394D01*
X26902D01*
Y39326D01*
X26835D01*
Y39259D01*
X26767D01*
Y39191D01*
X26700D01*
Y39124D01*
X26632D01*
Y39056D01*
X26565D01*
Y38989D01*
X26497D01*
Y38921D01*
X26430D01*
Y38854D01*
X26362D01*
Y38786D01*
X26295D01*
Y38719D01*
X26227D01*
Y38651D01*
Y38584D01*
X26160D01*
Y38516D01*
X26092D01*
Y38449D01*
X26025D01*
Y38381D01*
X25957D01*
Y38314D01*
Y38246D01*
X25890D01*
Y38179D01*
X25822D01*
Y38111D01*
X25755D01*
Y38044D01*
Y37976D01*
X25687D01*
Y37909D01*
X25620D01*
Y37841D01*
Y37774D01*
X25552D01*
Y37706D01*
X25485D01*
Y37639D01*
Y37571D01*
X25417D01*
Y37504D01*
Y37436D01*
X25350D01*
Y37369D01*
X25282D01*
Y37301D01*
Y37233D01*
X25215D01*
Y37166D01*
Y37099D01*
X25147D01*
Y37031D01*
Y36963D01*
X25080D01*
Y36896D01*
Y36829D01*
X25012D01*
Y36761D01*
Y36694D01*
Y36626D01*
X24945D01*
Y36558D01*
Y36491D01*
X24877D01*
Y36424D01*
Y36356D01*
Y36288D01*
X24810D01*
Y36221D01*
Y36154D01*
X24742D01*
Y36086D01*
Y36018D01*
Y35951D01*
X24675D01*
Y35883D01*
Y35816D01*
Y35748D01*
Y35681D01*
X24607D01*
Y35613D01*
Y35546D01*
Y35478D01*
Y35411D01*
X24540D01*
Y35343D01*
Y35276D01*
Y35208D01*
Y35141D01*
Y35073D01*
X24472D01*
Y35006D01*
Y34938D01*
Y34871D01*
Y34803D01*
Y34736D01*
Y34668D01*
X24405D01*
Y34601D01*
Y34533D01*
Y34466D01*
Y34398D01*
Y34331D01*
Y34263D01*
Y34196D01*
Y34128D01*
Y34061D01*
Y33993D01*
Y33926D01*
Y33858D01*
Y33791D01*
Y33723D01*
X24337D01*
Y33656D01*
Y33588D01*
Y33521D01*
X24405D01*
Y33453D01*
Y33386D01*
Y33318D01*
Y33251D01*
Y33183D01*
Y33116D01*
Y33048D01*
Y32981D01*
Y32913D01*
Y32846D01*
Y32778D01*
Y32711D01*
Y32643D01*
Y32576D01*
X24472D01*
Y32508D01*
Y32441D01*
Y32373D01*
Y32306D01*
Y32238D01*
Y32171D01*
Y32103D01*
X24540D01*
Y32036D01*
Y31968D01*
Y31901D01*
Y31833D01*
X24607D01*
Y31766D01*
Y31698D01*
Y31631D01*
Y31563D01*
X24675D01*
Y31496D01*
Y31428D01*
Y31361D01*
Y31293D01*
X24742D01*
Y31226D01*
Y31158D01*
Y31091D01*
X24810D01*
Y31023D01*
Y30955D01*
Y30888D01*
X24877D01*
Y30821D01*
Y30753D01*
X24945D01*
Y30685D01*
Y30618D01*
X25012D01*
Y30551D01*
Y30483D01*
Y30415D01*
X25080D01*
Y30348D01*
Y30281D01*
X25147D01*
Y30213D01*
Y30145D01*
X25215D01*
Y30078D01*
Y30010D01*
X25282D01*
Y29943D01*
Y29875D01*
X25350D01*
Y29808D01*
X25417D01*
Y29740D01*
Y29673D01*
X25485D01*
Y29605D01*
Y29538D01*
X25552D01*
Y29470D01*
X25620D01*
Y29403D01*
Y29335D01*
X25687D01*
Y29268D01*
X25755D01*
Y29200D01*
Y29133D01*
X25822D01*
Y29065D01*
X25890D01*
Y28998D01*
X25957D01*
Y28930D01*
Y28863D01*
X26025D01*
Y28795D01*
X26092D01*
Y28728D01*
X26160D01*
Y28660D01*
X26227D01*
Y28593D01*
X26295D01*
Y28525D01*
Y28458D01*
X26362D01*
Y28390D01*
X26430D01*
Y28323D01*
X26497D01*
Y28255D01*
X26565D01*
Y28188D01*
X26632D01*
Y28120D01*
X26700D01*
Y28053D01*
X26835D01*
Y27985D01*
X26902D01*
Y27918D01*
X26970D01*
Y27850D01*
X27037D01*
Y27783D01*
X27105D01*
Y27715D01*
X27172D01*
Y27648D01*
X27307D01*
Y27580D01*
X27375D01*
Y27513D01*
X27442D01*
Y27445D01*
X27577D01*
Y27378D01*
X27645D01*
Y27310D01*
X27780D01*
Y27243D01*
X27847D01*
Y27175D01*
X27982D01*
Y27108D01*
X28117D01*
Y27040D01*
X28252D01*
Y26973D01*
X28387D01*
Y26905D01*
X28522D01*
Y26838D01*
X28657D01*
Y26770D01*
X28792D01*
Y26703D01*
X28927D01*
Y26635D01*
X29130D01*
Y26568D01*
X29333D01*
Y26500D01*
X29535D01*
Y26433D01*
X29737D01*
Y26365D01*
X30007D01*
Y26298D01*
X30345D01*
Y26230D01*
X30818D01*
Y26163D01*
X31695D01*
Y26095D01*
X32235D01*
Y26163D01*
X33113D01*
Y26230D01*
X33585D01*
Y26298D01*
X33923D01*
Y26365D01*
X34193D01*
Y26433D01*
X34463D01*
Y26500D01*
X34733D01*
Y26568D01*
X34935D01*
Y26635D01*
X35138D01*
Y26703D01*
X35273D01*
Y26770D01*
X35476D01*
Y26838D01*
X35610D01*
Y26905D01*
X35813D01*
Y26973D01*
X35948D01*
Y27040D01*
X36083D01*
Y27108D01*
X36218D01*
Y27175D01*
Y27243D01*
Y27310D01*
Y27378D01*
Y27445D01*
Y27513D01*
Y27580D01*
Y27648D01*
Y27715D01*
Y27783D01*
Y27850D01*
Y27918D01*
Y27985D01*
Y28053D01*
Y28120D01*
Y28188D01*
Y28255D01*
Y28323D01*
Y28390D01*
Y28458D01*
Y28525D01*
Y28593D01*
Y28660D01*
Y28728D01*
Y28795D01*
Y28863D01*
Y28930D01*
Y28998D01*
Y29065D01*
Y29133D01*
Y29200D01*
Y29268D01*
Y29335D01*
Y29403D01*
Y29470D01*
Y29538D01*
Y29605D01*
Y29673D01*
Y29740D01*
Y29808D01*
Y29875D01*
Y29943D01*
Y30010D01*
Y30078D01*
Y30145D01*
Y30213D01*
Y30281D01*
Y30348D01*
Y30415D01*
Y30483D01*
Y30551D01*
Y30618D01*
Y30685D01*
Y30753D01*
Y30821D01*
Y30888D01*
Y30955D01*
Y31023D01*
Y31091D01*
Y31158D01*
Y31226D01*
Y31293D01*
Y31361D01*
Y31428D01*
X36151D01*
Y31496D01*
X32235D01*
Y31563D01*
X32100D01*
Y31631D01*
X31965D01*
Y31698D01*
X31830D01*
Y31766D01*
X31763D01*
Y31833D01*
X31695D01*
Y31901D01*
X31628D01*
Y31968D01*
X31560D01*
Y32036D01*
X31493D01*
Y32103D01*
X31425D01*
Y32171D01*
Y32238D01*
X31358D01*
Y32306D01*
Y32373D01*
X31290D01*
Y32441D01*
Y32508D01*
Y32576D01*
Y32643D01*
X31223D01*
Y32711D01*
Y32778D01*
Y32846D01*
Y32913D01*
Y32981D01*
Y33048D01*
X31290D01*
Y33116D01*
Y33183D01*
Y33251D01*
Y33318D01*
X31358D01*
Y33386D01*
Y33453D01*
X31425D01*
Y33521D01*
Y33588D01*
X31493D01*
Y33656D01*
Y33723D01*
X31560D01*
Y33791D01*
X31628D01*
Y33858D01*
X31695D01*
Y33926D01*
X31830D01*
Y33993D01*
X31898D01*
Y34061D01*
X32033D01*
Y34128D01*
X32168D01*
Y34196D01*
X32505D01*
Y34263D01*
X37703D01*
Y34196D01*
X37973D01*
Y34128D01*
X38176D01*
Y34061D01*
X38311D01*
Y33993D01*
X38378D01*
Y33926D01*
X38446D01*
Y33858D01*
X38581D01*
Y33791D01*
Y33723D01*
X38648D01*
Y33656D01*
X38716D01*
Y33588D01*
X38783D01*
Y33521D01*
Y33453D01*
X38851D01*
Y33386D01*
Y33318D01*
Y33251D01*
X38918D01*
Y33183D01*
Y33116D01*
Y33048D01*
Y32981D01*
Y32913D01*
X38986D01*
Y32846D01*
Y32778D01*
Y32711D01*
Y32643D01*
Y32576D01*
Y32508D01*
Y32441D01*
Y32373D01*
Y32306D01*
Y32238D01*
Y32171D01*
Y32103D01*
Y32036D01*
Y31968D01*
Y31901D01*
Y31833D01*
Y31766D01*
Y31698D01*
Y31631D01*
Y31563D01*
Y31496D01*
Y31428D01*
Y31361D01*
Y31293D01*
Y31226D01*
Y31158D01*
Y31091D01*
Y31023D01*
Y30955D01*
Y30888D01*
Y30821D01*
Y30753D01*
Y30685D01*
Y30618D01*
Y30551D01*
Y30483D01*
Y30415D01*
Y30348D01*
Y30281D01*
Y30213D01*
Y30145D01*
Y30078D01*
Y30010D01*
Y29943D01*
Y29875D01*
Y29808D01*
Y29740D01*
Y29673D01*
Y29605D01*
Y29538D01*
Y29470D01*
Y29403D01*
Y29335D01*
Y29268D01*
Y29200D01*
Y29133D01*
Y29065D01*
Y28998D01*
Y28930D01*
Y28863D01*
Y28795D01*
Y28728D01*
Y28660D01*
Y28593D01*
Y28525D01*
Y28458D01*
Y28390D01*
Y28323D01*
Y28255D01*
Y28188D01*
Y28120D01*
Y28053D01*
Y27985D01*
Y27918D01*
Y27850D01*
Y27783D01*
Y27715D01*
Y27648D01*
Y27580D01*
Y27513D01*
Y27445D01*
Y27378D01*
Y27310D01*
Y27243D01*
Y27175D01*
Y27108D01*
Y27040D01*
Y26973D01*
Y26905D01*
Y26838D01*
Y26770D01*
Y26703D01*
Y26635D01*
Y26568D01*
Y26500D01*
Y26433D01*
Y26365D01*
Y26298D01*
Y26230D01*
X38918D01*
Y26163D01*
Y26095D01*
Y26028D01*
Y25960D01*
Y25893D01*
X38851D01*
Y25825D01*
Y25758D01*
Y25690D01*
X38783D01*
Y25623D01*
Y25555D01*
X38716D01*
Y25488D01*
X38648D01*
Y25420D01*
Y25353D01*
X38581D01*
Y25285D01*
X38513D01*
Y25218D01*
X38378D01*
Y25150D01*
X38311D01*
Y25083D01*
X38176D01*
Y25015D01*
X38041D01*
Y24948D01*
X37906D01*
Y24880D01*
X37771D01*
Y24813D01*
X37636D01*
Y24745D01*
X37501D01*
Y24678D01*
X37366D01*
Y24610D01*
X37231D01*
Y24543D01*
X37096D01*
Y24475D01*
X36961D01*
Y24408D01*
X36758D01*
Y24340D01*
X36623D01*
Y24272D01*
X36421D01*
Y24205D01*
X36285D01*
Y24137D01*
X36083D01*
Y24070D01*
X35881D01*
Y24002D01*
X35678D01*
Y23935D01*
X35476D01*
Y23867D01*
X35273D01*
Y23800D01*
X35003D01*
Y23732D01*
X34733D01*
Y23665D01*
X34463D01*
Y23597D01*
X34125D01*
Y23530D01*
X33720D01*
Y23462D01*
X33180D01*
Y23395D01*
X30750D01*
Y23462D01*
X30210D01*
Y23530D01*
X29805D01*
Y23597D01*
X29535D01*
Y23665D01*
X29197D01*
Y23732D01*
X28995D01*
Y23800D01*
X28725D01*
Y23867D01*
X28522D01*
Y23935D01*
X28320D01*
Y24002D01*
X28117D01*
Y24070D01*
X27982D01*
Y24137D01*
X27780D01*
Y24205D01*
X27645D01*
Y24272D01*
X27510D01*
Y24340D01*
X27375D01*
Y24408D01*
X27172D01*
Y24475D01*
X27037D01*
Y24543D01*
X26970D01*
Y24610D01*
X26835D01*
Y24678D01*
X26700D01*
Y24745D01*
X26565D01*
Y24813D01*
X26497D01*
Y24880D01*
X26362D01*
Y24948D01*
X26227D01*
Y25015D01*
X26160D01*
Y25083D01*
X26025D01*
Y25150D01*
X25957D01*
Y25218D01*
X25822D01*
Y25285D01*
X25755D01*
Y25353D01*
X25687D01*
Y25420D01*
X25552D01*
Y25488D01*
X25485D01*
Y25555D01*
X25417D01*
Y25623D01*
X25350D01*
Y25690D01*
X25215D01*
Y25758D01*
X25147D01*
Y25825D01*
X25080D01*
Y25893D01*
X25012D01*
Y25960D01*
X24945D01*
Y26028D01*
X24877D01*
Y26095D01*
X24810D01*
Y26163D01*
X24742D01*
Y26230D01*
X24675D01*
Y26298D01*
X24607D01*
Y26365D01*
X24540D01*
Y26433D01*
X24472D01*
Y26500D01*
X24405D01*
Y26568D01*
X24337D01*
Y26635D01*
X24270D01*
Y26703D01*
X24202D01*
Y26770D01*
X24135D01*
Y26838D01*
X24067D01*
Y26905D01*
Y26973D01*
X24000D01*
Y27040D01*
X23932D01*
Y27108D01*
X23865D01*
Y27175D01*
X23797D01*
Y27243D01*
X23730D01*
Y27310D01*
Y27378D01*
X23662D01*
Y27445D01*
X23595D01*
Y27513D01*
Y27580D01*
X23527D01*
Y27648D01*
X23460D01*
Y27715D01*
X23392D01*
Y27783D01*
Y27850D01*
X23325D01*
Y27918D01*
X23257D01*
Y27985D01*
Y28053D01*
X23189D01*
Y28120D01*
Y28188D01*
X23122D01*
Y28255D01*
X23054D01*
Y28323D01*
Y28390D01*
X22987D01*
Y28458D01*
Y28525D01*
X22919D01*
Y28593D01*
X22852D01*
Y28660D01*
Y28728D01*
X22784D01*
Y28795D01*
Y28863D01*
X22717D01*
Y28930D01*
Y28998D01*
X22649D01*
Y29065D01*
Y29133D01*
X22582D01*
Y29200D01*
Y29268D01*
X22514D01*
Y29335D01*
Y29403D01*
Y29470D01*
X22447D01*
Y29538D01*
Y29605D01*
X22379D01*
Y29673D01*
Y29740D01*
X22312D01*
Y29808D01*
Y29875D01*
Y29943D01*
X22244D01*
Y30010D01*
Y30078D01*
Y30145D01*
X22177D01*
Y30213D01*
Y30281D01*
Y30348D01*
X22109D01*
Y30415D01*
Y30483D01*
Y30551D01*
X22042D01*
Y30618D01*
Y30685D01*
Y30753D01*
X21974D01*
Y30821D01*
Y30888D01*
Y30955D01*
Y31023D01*
X21907D01*
Y31091D01*
Y31158D01*
Y31226D01*
Y31293D01*
X21839D01*
Y31361D01*
Y31428D01*
Y31496D01*
Y31563D01*
Y31631D01*
X21772D01*
Y31698D01*
Y31766D01*
Y31833D01*
Y31901D01*
Y31968D01*
Y32036D01*
X21704D01*
Y32103D01*
Y32171D01*
Y32238D01*
Y32306D01*
Y32373D01*
Y32441D01*
Y32508D01*
X21637D01*
Y32576D01*
Y32643D01*
Y32711D01*
Y32778D01*
Y32846D01*
Y32913D01*
Y32981D01*
Y33048D01*
Y33116D01*
Y33183D01*
Y33251D01*
Y33318D01*
Y33386D01*
Y33453D01*
Y33521D01*
Y33588D01*
Y33656D01*
Y33723D01*
Y33791D01*
Y33858D01*
Y33926D01*
Y33993D01*
Y34061D01*
Y34128D01*
Y34196D01*
Y34263D01*
Y34331D01*
Y34398D01*
Y34466D01*
Y34533D01*
Y34601D01*
Y34668D01*
X21704D01*
Y34736D01*
Y34803D01*
Y34871D01*
Y34938D01*
Y35006D01*
Y35073D01*
Y35141D01*
Y35208D01*
X21772D01*
Y35276D01*
Y35343D01*
Y35411D01*
Y35478D01*
Y35546D01*
Y35613D01*
X21839D01*
Y35681D01*
Y35748D01*
Y35816D01*
Y35883D01*
Y35951D01*
X21907D01*
Y36018D01*
Y36086D01*
Y36154D01*
Y36221D01*
X21974D01*
Y36288D01*
Y36356D01*
Y36424D01*
Y36491D01*
X22042D01*
Y36558D01*
Y36626D01*
Y36694D01*
X22109D01*
Y36761D01*
Y36829D01*
Y36896D01*
X22177D01*
Y36963D01*
Y37031D01*
Y37099D01*
X22244D01*
Y37166D01*
Y37233D01*
Y37301D01*
X22312D01*
Y37369D01*
Y37436D01*
Y37504D01*
X22379D01*
Y37571D01*
Y37639D01*
X22447D01*
Y37706D01*
Y37774D01*
X22514D01*
Y37841D01*
Y37909D01*
Y37976D01*
X22582D01*
Y38044D01*
Y38111D01*
X22649D01*
Y38179D01*
Y38246D01*
X22717D01*
Y38314D01*
Y38381D01*
X22784D01*
Y38449D01*
Y38516D01*
X22852D01*
Y38584D01*
Y38651D01*
X22919D01*
Y38719D01*
X22987D01*
Y38786D01*
Y38854D01*
X23054D01*
Y38921D01*
Y38989D01*
X23122D01*
Y39056D01*
Y39124D01*
X23189D01*
Y39191D01*
X23257D01*
Y39259D01*
Y39326D01*
X23325D01*
Y39394D01*
X23392D01*
Y39461D01*
Y39529D01*
X23460D01*
Y39596D01*
X23527D01*
Y39664D01*
Y39731D01*
X23595D01*
Y39799D01*
X23662D01*
Y39866D01*
X23730D01*
Y39934D01*
Y40001D01*
X23797D01*
Y40069D01*
X23865D01*
Y40136D01*
X23932D01*
Y40204D01*
X24000D01*
Y40271D01*
Y40339D01*
X24067D01*
Y40406D01*
X24135D01*
Y40474D01*
X24202D01*
Y40541D01*
X24270D01*
Y40609D01*
X24337D01*
Y40676D01*
X24405D01*
Y40744D01*
X24472D01*
Y40811D01*
X24540D01*
Y40879D01*
X24607D01*
Y40946D01*
X24675D01*
Y41014D01*
X24742D01*
Y41081D01*
X24810D01*
Y41149D01*
X24877D01*
Y41216D01*
X24945D01*
Y41284D01*
X25012D01*
Y41351D01*
X25080D01*
Y41419D01*
X25147D01*
Y41486D01*
X25215D01*
Y41554D01*
X25282D01*
Y41621D01*
X25350D01*
Y41689D01*
X25485D01*
Y41756D01*
X25552D01*
Y41824D01*
X25620D01*
Y41891D01*
X25687D01*
Y41959D01*
X25822D01*
Y42026D01*
X25890D01*
Y42094D01*
X26025D01*
Y42161D01*
X26092D01*
Y42229D01*
X26160D01*
Y42296D01*
X26295D01*
Y42364D01*
X26362D01*
Y42432D01*
X26497D01*
Y42499D01*
X26632D01*
Y42566D01*
X26700D01*
Y42634D01*
X26835D01*
Y42702D01*
X26970D01*
Y42769D01*
X27037D01*
Y42836D01*
X27172D01*
Y42904D01*
X27307D01*
Y42972D01*
X27442D01*
Y43039D01*
X27577D01*
Y43106D01*
X27780D01*
Y43174D01*
X27915D01*
Y43242D01*
X28050D01*
Y43309D01*
X28252D01*
Y43377D01*
X28387D01*
Y43444D01*
X28590D01*
Y43512D01*
X28792D01*
Y43579D01*
X28995D01*
Y43647D01*
X29197D01*
Y43714D01*
X29467D01*
Y43782D01*
X29737D01*
Y43849D01*
X30075D01*
Y43917D01*
X30548D01*
Y43984D01*
X31155D01*
Y44052D01*
X32438D01*
Y43984D01*
D02*
G37*
G36*
X61060Y44052D02*
X61735D01*
Y43984D01*
X62140D01*
Y43917D01*
X62545D01*
Y43849D01*
X62815D01*
Y43782D01*
X63085D01*
Y43714D01*
X63355D01*
Y43647D01*
X63558D01*
Y43579D01*
X63760D01*
Y43512D01*
X63963D01*
Y43444D01*
X64098D01*
Y43377D01*
X64300D01*
Y43309D01*
X64435D01*
Y43242D01*
X64638D01*
Y43174D01*
X64773D01*
Y43106D01*
X64908D01*
Y43039D01*
X65043D01*
Y42972D01*
X65178D01*
Y42904D01*
X65313D01*
Y42836D01*
X65448D01*
Y42769D01*
X65515D01*
Y42702D01*
X65650D01*
Y42634D01*
X65785D01*
Y42566D01*
X65853D01*
Y42499D01*
X65988D01*
Y42432D01*
X66056D01*
Y42364D01*
X66190D01*
Y42296D01*
X66258D01*
Y42229D01*
X66393D01*
Y42161D01*
X66461D01*
Y42094D01*
X66528D01*
Y42026D01*
X66663D01*
Y41959D01*
X66730D01*
Y41891D01*
X66798D01*
Y41824D01*
X66865D01*
Y41756D01*
X67001D01*
Y41689D01*
X67068D01*
Y41621D01*
X67136D01*
Y41554D01*
X67203D01*
Y41486D01*
X67271D01*
Y41419D01*
X67338D01*
Y41351D01*
X67406D01*
Y41284D01*
X67473D01*
Y41216D01*
X67541D01*
Y41149D01*
X67608D01*
Y41081D01*
X67676D01*
Y41014D01*
X67743D01*
Y40946D01*
X67811D01*
Y40879D01*
X67878D01*
Y40811D01*
X67946D01*
Y40744D01*
X68013D01*
Y40676D01*
X68081D01*
Y40609D01*
X68148D01*
Y40541D01*
Y40474D01*
X68216D01*
Y40406D01*
X68283D01*
Y40339D01*
X68351D01*
Y40271D01*
X68418D01*
Y40204D01*
Y40136D01*
X68486D01*
Y40069D01*
X68553D01*
Y40001D01*
X68621D01*
Y39934D01*
Y39866D01*
X68688D01*
Y39799D01*
X68756D01*
Y39731D01*
X68823D01*
Y39664D01*
Y39596D01*
X68891D01*
Y39529D01*
Y39461D01*
X68958D01*
Y39394D01*
X69026D01*
Y39326D01*
Y39259D01*
X69093D01*
Y39191D01*
X69161D01*
Y39124D01*
Y39056D01*
X69228D01*
Y38989D01*
Y38921D01*
X69296D01*
Y38854D01*
Y38786D01*
X69363D01*
Y38719D01*
Y38651D01*
X69431D01*
Y38584D01*
X69498D01*
Y38516D01*
Y38449D01*
Y38381D01*
X69566D01*
Y38314D01*
Y38246D01*
X69633D01*
Y38179D01*
Y38111D01*
X69701D01*
Y38044D01*
Y37976D01*
X69768D01*
Y37909D01*
Y37841D01*
Y37774D01*
X69836D01*
Y37706D01*
Y37639D01*
X69903D01*
Y37571D01*
Y37504D01*
Y37436D01*
X69971D01*
Y37369D01*
Y37301D01*
Y37233D01*
X70038D01*
Y37166D01*
Y37099D01*
Y37031D01*
X70106D01*
Y36963D01*
Y36896D01*
Y36829D01*
X70173D01*
Y36761D01*
Y36694D01*
Y36626D01*
X70241D01*
Y36558D01*
Y36491D01*
Y36424D01*
Y36356D01*
X70308D01*
Y36288D01*
Y36221D01*
Y36154D01*
Y36086D01*
Y36018D01*
X70376D01*
Y35951D01*
Y35883D01*
Y35816D01*
Y35748D01*
Y35681D01*
X70443D01*
Y35613D01*
Y35546D01*
Y35478D01*
Y35411D01*
Y35343D01*
Y35276D01*
X70511D01*
Y35208D01*
Y35141D01*
Y35073D01*
Y35006D01*
Y34938D01*
Y34871D01*
Y34803D01*
Y34736D01*
Y34668D01*
X70578D01*
Y34601D01*
Y34533D01*
Y34466D01*
Y34398D01*
Y34331D01*
Y34263D01*
Y34196D01*
Y34128D01*
Y34061D01*
Y33993D01*
Y33926D01*
Y33858D01*
Y33791D01*
Y33723D01*
Y33656D01*
Y33588D01*
Y33521D01*
Y33453D01*
Y33386D01*
Y33318D01*
Y33251D01*
Y33183D01*
Y33116D01*
Y33048D01*
X70511D01*
Y32981D01*
Y32913D01*
Y32846D01*
Y32778D01*
Y32711D01*
Y32643D01*
Y32576D01*
Y32508D01*
Y32441D01*
X70443D01*
Y32373D01*
Y32306D01*
Y32238D01*
Y32171D01*
Y32103D01*
Y32036D01*
X70376D01*
Y31968D01*
Y31901D01*
Y31833D01*
Y31766D01*
Y31698D01*
Y31631D01*
X70308D01*
Y31563D01*
Y31496D01*
Y31428D01*
Y31361D01*
X70241D01*
Y31293D01*
Y31226D01*
Y31158D01*
Y31091D01*
X70173D01*
Y31023D01*
Y30955D01*
Y30888D01*
X70106D01*
Y30821D01*
Y30753D01*
Y30685D01*
Y30618D01*
X70038D01*
Y30551D01*
Y30483D01*
Y30415D01*
X69971D01*
Y30348D01*
Y30281D01*
X69903D01*
Y30213D01*
Y30145D01*
Y30078D01*
X69836D01*
Y30010D01*
Y29943D01*
Y29875D01*
X69768D01*
Y29808D01*
Y29740D01*
X69701D01*
Y29673D01*
Y29605D01*
Y29538D01*
X69633D01*
Y29470D01*
Y29403D01*
X69566D01*
Y29335D01*
Y29268D01*
X69498D01*
Y29200D01*
Y29133D01*
X69431D01*
Y29065D01*
Y28998D01*
X69363D01*
Y28930D01*
Y28863D01*
X69296D01*
Y28795D01*
Y28728D01*
X69228D01*
Y28660D01*
X69161D01*
Y28593D01*
Y28525D01*
X69093D01*
Y28458D01*
Y28390D01*
X69026D01*
Y28323D01*
X68958D01*
Y28255D01*
Y28188D01*
X68891D01*
Y28120D01*
X68823D01*
Y28053D01*
Y27985D01*
X68756D01*
Y27918D01*
X68688D01*
Y27850D01*
Y27783D01*
X68621D01*
Y27715D01*
X68553D01*
Y27648D01*
Y27580D01*
X68486D01*
Y27513D01*
X68418D01*
Y27445D01*
X68351D01*
Y27378D01*
X68283D01*
Y27310D01*
Y27243D01*
X68216D01*
Y27175D01*
X68148D01*
Y27108D01*
X68081D01*
Y27040D01*
X68013D01*
Y26973D01*
X67946D01*
Y26905D01*
Y26838D01*
X67878D01*
Y26770D01*
X67811D01*
Y26703D01*
X67743D01*
Y26635D01*
X67676D01*
Y26568D01*
X67608D01*
Y26500D01*
X67541D01*
Y26433D01*
X67473D01*
Y26365D01*
X67406D01*
Y26298D01*
X67338D01*
Y26230D01*
X67271D01*
Y26163D01*
X67203D01*
Y26095D01*
X67136D01*
Y26028D01*
X67001D01*
Y25960D01*
X66933D01*
Y25893D01*
X66865D01*
Y25825D01*
X66798D01*
Y25758D01*
X66730D01*
Y25690D01*
X66596D01*
Y25623D01*
X66528D01*
Y25555D01*
X66461D01*
Y25488D01*
X66393D01*
Y25420D01*
X66258D01*
Y25353D01*
X66190D01*
Y25285D01*
X66056D01*
Y25218D01*
X65988D01*
Y25150D01*
X65853D01*
Y25083D01*
X65785D01*
Y25015D01*
X65650D01*
Y24948D01*
X65583D01*
Y24880D01*
X65448D01*
Y24813D01*
X65313D01*
Y24745D01*
X65245D01*
Y24678D01*
X65110D01*
Y24610D01*
X64975D01*
Y24543D01*
X64840D01*
Y24475D01*
X64705D01*
Y24408D01*
X64570D01*
Y24340D01*
X64435D01*
Y24272D01*
X64233D01*
Y24205D01*
X64098D01*
Y24137D01*
X63963D01*
Y24070D01*
X63760D01*
Y24002D01*
X63558D01*
Y23935D01*
X63355D01*
Y23867D01*
X63153D01*
Y23800D01*
X62950D01*
Y23732D01*
X62680D01*
Y23665D01*
X62343D01*
Y23597D01*
X62005D01*
Y23530D01*
X61533D01*
Y23462D01*
X60723D01*
Y23395D01*
X60048D01*
Y23462D01*
X59170D01*
Y23530D01*
X58697D01*
Y23597D01*
X58360D01*
Y23665D01*
X58022D01*
Y23732D01*
X57752D01*
Y23800D01*
X57482D01*
Y23867D01*
X57280D01*
Y23935D01*
X57077D01*
Y24002D01*
X56875D01*
Y24070D01*
X56672D01*
Y24137D01*
X56470D01*
Y24205D01*
X56267D01*
Y24272D01*
X56132D01*
Y24340D01*
X55930D01*
Y24408D01*
X55795D01*
Y24475D01*
X55660D01*
Y24543D01*
X55457D01*
Y24610D01*
X55322D01*
Y24678D01*
X55187D01*
Y24745D01*
X55052D01*
Y24813D01*
X54917D01*
Y24880D01*
X54782D01*
Y24948D01*
X54647D01*
Y25015D01*
X54512D01*
Y25083D01*
X54377D01*
Y25150D01*
X54242D01*
Y25218D01*
X54175D01*
Y25285D01*
X54040D01*
Y25353D01*
X53904D01*
Y25420D01*
X53769D01*
Y25488D01*
X53702D01*
Y25555D01*
X53567D01*
Y25623D01*
X53432D01*
Y25690D01*
X53364D01*
Y25758D01*
X53229D01*
Y25825D01*
X53162D01*
Y25893D01*
X53027D01*
Y25960D01*
X52959D01*
Y26028D01*
X52824D01*
Y26095D01*
X52757D01*
Y26163D01*
X52622D01*
Y26230D01*
X52554D01*
Y26298D01*
X52419D01*
Y26365D01*
X52352D01*
Y26433D01*
X52217D01*
Y26500D01*
X52149D01*
Y26568D01*
X52014D01*
Y26635D01*
X51947D01*
Y26703D01*
X51879D01*
Y26770D01*
X51744D01*
Y26838D01*
X51677D01*
Y26905D01*
X51542D01*
Y26973D01*
X51474D01*
Y27040D01*
X51407D01*
Y27108D01*
X51272D01*
Y27175D01*
X51204D01*
Y27243D01*
X51137D01*
Y27310D01*
X51069D01*
Y27378D01*
X50934D01*
Y27445D01*
X50867D01*
Y27513D01*
X50799D01*
Y27580D01*
X50664D01*
Y27648D01*
X50597D01*
Y27715D01*
X50529D01*
Y27783D01*
X50462D01*
Y27850D01*
X50327D01*
Y27918D01*
X50259D01*
Y27985D01*
X50192D01*
Y28053D01*
X50124D01*
Y28120D01*
X49989D01*
Y28188D01*
X49922D01*
Y28255D01*
X49854D01*
Y28323D01*
X49787D01*
Y28390D01*
X49719D01*
Y28458D01*
X49584D01*
Y28525D01*
X49517D01*
Y28593D01*
X49449D01*
Y28660D01*
X49382D01*
Y28728D01*
X49314D01*
Y28795D01*
X49179D01*
Y28863D01*
X49112D01*
Y28930D01*
X49044D01*
Y28998D01*
X48977D01*
Y29065D01*
X48909D01*
Y29133D01*
X48842D01*
Y29200D01*
X48774D01*
Y29268D01*
X48706D01*
Y29335D01*
X48639D01*
Y29403D01*
X48572D01*
Y29470D01*
X48504D01*
Y29538D01*
X48436D01*
Y29605D01*
X48369D01*
Y29673D01*
X48302D01*
Y29740D01*
X48166D01*
Y29808D01*
X48099D01*
Y29875D01*
X48031D01*
Y29943D01*
X47964D01*
Y30010D01*
X47897D01*
Y30078D01*
X47829D01*
Y30145D01*
X47761D01*
Y30213D01*
X47694D01*
Y30281D01*
X47627D01*
Y30348D01*
X47559D01*
Y30415D01*
X47491D01*
Y30483D01*
X47424D01*
Y30551D01*
X47357D01*
Y30618D01*
X47289D01*
Y30685D01*
X47221D01*
Y30753D01*
X47154D01*
Y30821D01*
X47086D01*
Y30888D01*
X47019D01*
Y30955D01*
X46951D01*
Y31023D01*
X46884D01*
Y31091D01*
X46816D01*
Y31158D01*
X46749D01*
Y31226D01*
X46681D01*
Y31293D01*
X46614D01*
Y31361D01*
X46546D01*
Y31428D01*
X46479D01*
Y31496D01*
X46411D01*
Y31563D01*
X46276D01*
Y31631D01*
X46209D01*
Y31698D01*
X46141D01*
Y31766D01*
X46074D01*
Y31698D01*
X46006D01*
Y31631D01*
X45939D01*
Y31563D01*
X45871D01*
Y31496D01*
X45804D01*
Y31428D01*
X45736D01*
Y31361D01*
X45669D01*
Y31293D01*
X45601D01*
Y31226D01*
X45534D01*
Y31158D01*
X45466D01*
Y31091D01*
X45399D01*
Y31023D01*
X45331D01*
Y30955D01*
X45264D01*
Y30888D01*
X45196D01*
Y30821D01*
Y30753D01*
X45129D01*
Y30685D01*
X45061D01*
Y30618D01*
X44994D01*
Y30551D01*
X44926D01*
Y30483D01*
X44859D01*
Y30415D01*
X44791D01*
Y30348D01*
X44724D01*
Y30281D01*
X44656D01*
Y30213D01*
X44589D01*
Y30145D01*
X44521D01*
Y30078D01*
X44454D01*
Y30010D01*
X44386D01*
Y29943D01*
X44319D01*
Y29875D01*
X44251D01*
Y29808D01*
X44184D01*
Y29740D01*
X44116D01*
Y29673D01*
X44049D01*
Y29605D01*
X43981D01*
Y29538D01*
X43914D01*
Y29470D01*
X43846D01*
Y29403D01*
X43779D01*
Y29335D01*
X43711D01*
Y29268D01*
X43644D01*
Y29200D01*
X43576D01*
Y29133D01*
X43509D01*
Y29065D01*
X43374D01*
Y28998D01*
X43306D01*
Y28930D01*
X43239D01*
Y28863D01*
X43171D01*
Y28795D01*
X43104D01*
Y28728D01*
X43036D01*
Y28660D01*
X42969D01*
Y28593D01*
X42901D01*
Y28525D01*
X42834D01*
Y28458D01*
X42766D01*
Y28390D01*
X42699D01*
Y28323D01*
X42631D01*
Y28255D01*
X42564D01*
Y28188D01*
X42496D01*
Y28120D01*
X42361D01*
Y28053D01*
X42294D01*
Y27985D01*
X42226D01*
Y27918D01*
X42158D01*
Y27850D01*
X42091D01*
Y27783D01*
X42024D01*
Y27715D01*
X41956D01*
Y27648D01*
X41888D01*
Y27580D01*
X41754D01*
Y27513D01*
X41686D01*
Y27445D01*
X41618D01*
Y27378D01*
X41551D01*
Y27310D01*
X41483D01*
Y27243D01*
X41416D01*
Y27175D01*
X41281D01*
Y27108D01*
X41213D01*
Y27040D01*
X41146D01*
Y26973D01*
X41078D01*
Y26905D01*
X40943D01*
Y26838D01*
X40876D01*
Y26770D01*
X40808D01*
Y26703D01*
X40741D01*
Y26635D01*
X40606D01*
Y26568D01*
X40538D01*
Y26500D01*
X40471D01*
Y26433D01*
X40336D01*
Y26365D01*
X40268D01*
Y26298D01*
X40201D01*
Y26230D01*
X40066D01*
Y26163D01*
X39998D01*
Y26095D01*
X39863D01*
Y26028D01*
X39796D01*
Y25960D01*
X39661D01*
Y25893D01*
X39593D01*
Y25825D01*
X39458D01*
Y25758D01*
X39391D01*
Y25690D01*
X39256D01*
Y25623D01*
X39121D01*
Y25555D01*
X39053D01*
Y25623D01*
Y25690D01*
X39121D01*
Y25758D01*
Y25825D01*
Y25893D01*
X39188D01*
Y25960D01*
Y26028D01*
Y26095D01*
Y26163D01*
Y26230D01*
Y26298D01*
Y26365D01*
Y26433D01*
Y26500D01*
Y26568D01*
Y26635D01*
Y26703D01*
Y26770D01*
Y26838D01*
Y26905D01*
Y26973D01*
Y27040D01*
Y27108D01*
Y27175D01*
Y27243D01*
Y27310D01*
Y27378D01*
Y27445D01*
Y27513D01*
Y27580D01*
Y27648D01*
Y27715D01*
Y27783D01*
Y27850D01*
Y27918D01*
Y27985D01*
Y28053D01*
Y28120D01*
Y28188D01*
Y28255D01*
Y28323D01*
Y28390D01*
Y28458D01*
Y28525D01*
Y28593D01*
Y28660D01*
Y28728D01*
Y28795D01*
Y28863D01*
Y28930D01*
Y28998D01*
Y29065D01*
X39323D01*
Y29133D01*
X39391D01*
Y29200D01*
X39458D01*
Y29268D01*
X39526D01*
Y29335D01*
X39661D01*
Y29403D01*
X39728D01*
Y29470D01*
X39796D01*
Y29538D01*
X39863D01*
Y29605D01*
X39931D01*
Y29673D01*
X39998D01*
Y29740D01*
X40133D01*
Y29808D01*
X40201D01*
Y29875D01*
X40268D01*
Y29943D01*
X40336D01*
Y30010D01*
X40403D01*
Y30078D01*
X40471D01*
Y30145D01*
X40538D01*
Y30213D01*
X40606D01*
Y30281D01*
X40673D01*
Y30348D01*
X40808D01*
Y30415D01*
X40876D01*
Y30483D01*
X40943D01*
Y30551D01*
X41011D01*
Y30618D01*
X41078D01*
Y30685D01*
X41146D01*
Y30753D01*
X41213D01*
Y30821D01*
X41281D01*
Y30888D01*
X41348D01*
Y30955D01*
X41416D01*
Y31023D01*
X41483D01*
Y31091D01*
X41551D01*
Y31158D01*
X41618D01*
Y31226D01*
X41686D01*
Y31293D01*
X41754D01*
Y31361D01*
X41821D01*
Y31428D01*
X41888D01*
Y31496D01*
X41956D01*
Y31563D01*
X42024D01*
Y31631D01*
X42091D01*
Y31698D01*
X42158D01*
Y31766D01*
X42226D01*
Y31833D01*
X42294D01*
Y31901D01*
X42361D01*
Y31968D01*
X42429D01*
Y32036D01*
X42496D01*
Y32103D01*
X42564D01*
Y32171D01*
X42631D01*
Y32238D01*
X42699D01*
Y32306D01*
X42766D01*
Y32373D01*
X42834D01*
Y32441D01*
X42901D01*
Y32508D01*
X42969D01*
Y32576D01*
X43036D01*
Y32643D01*
X43104D01*
Y32711D01*
X43171D01*
Y32778D01*
X43239D01*
Y32846D01*
X43306D01*
Y32913D01*
X43374D01*
Y32981D01*
X43441D01*
Y33048D01*
X43509D01*
Y33116D01*
X43576D01*
Y33183D01*
X43644D01*
Y33251D01*
X43711D01*
Y33318D01*
X43779D01*
Y33386D01*
X43846D01*
Y33453D01*
X43914D01*
Y33521D01*
X43981D01*
Y33588D01*
X44049D01*
Y33656D01*
Y33723D01*
Y33791D01*
X43981D01*
Y33858D01*
X43914D01*
Y33926D01*
X43846D01*
Y33993D01*
X43779D01*
Y34061D01*
X43711D01*
Y34128D01*
X43644D01*
Y34196D01*
X43576D01*
Y34263D01*
X43509D01*
Y34331D01*
X43441D01*
Y34398D01*
X43306D01*
Y34466D01*
X43239D01*
Y34533D01*
X43171D01*
Y34601D01*
X43104D01*
Y34668D01*
X43036D01*
Y34736D01*
X42969D01*
Y34803D01*
X42901D01*
Y34871D01*
X42834D01*
Y34938D01*
X42766D01*
Y35006D01*
X42699D01*
Y35073D01*
X42631D01*
Y35141D01*
X42564D01*
Y35208D01*
X42496D01*
Y35276D01*
X42361D01*
Y35343D01*
X42294D01*
Y35411D01*
X42226D01*
Y35478D01*
X42158D01*
Y35546D01*
X42091D01*
Y35613D01*
X42024D01*
Y35681D01*
X41956D01*
Y35748D01*
X41888D01*
Y35816D01*
X41821D01*
Y35883D01*
X41754D01*
Y35951D01*
X41686D01*
Y36018D01*
X41551D01*
Y36086D01*
X41483D01*
Y36154D01*
X41416D01*
Y36221D01*
X41348D01*
Y36288D01*
X41281D01*
Y36356D01*
X41213D01*
Y36424D01*
X41146D01*
Y36491D01*
X41078D01*
Y36558D01*
X40943D01*
Y36626D01*
X40876D01*
Y36694D01*
X40808D01*
Y36761D01*
X40741D01*
Y36829D01*
X40673D01*
Y36896D01*
X40606D01*
Y36963D01*
X40538D01*
Y37031D01*
X40403D01*
Y37099D01*
X40336D01*
Y37166D01*
X40268D01*
Y37233D01*
X40201D01*
Y37301D01*
X40133D01*
Y37369D01*
X40066D01*
Y37436D01*
X39931D01*
Y37504D01*
X39863D01*
Y37571D01*
X39796D01*
Y37639D01*
X39728D01*
Y37706D01*
X39661D01*
Y37774D01*
X39593D01*
Y37841D01*
X39458D01*
Y37909D01*
X39391D01*
Y37976D01*
X39323D01*
Y38044D01*
X39256D01*
Y38111D01*
X39121D01*
Y38179D01*
X39053D01*
Y38246D01*
X38986D01*
Y38314D01*
X38918D01*
Y38381D01*
X38783D01*
Y38449D01*
X38716D01*
Y38516D01*
X38648D01*
Y38584D01*
X38513D01*
Y38651D01*
X38446D01*
Y38719D01*
X38378D01*
Y38786D01*
X38243D01*
Y38854D01*
X38176D01*
Y38921D01*
X38513D01*
Y38989D01*
X38716D01*
Y39056D01*
X38851D01*
Y39124D01*
X38986D01*
Y39191D01*
X39121D01*
Y39259D01*
X39188D01*
Y39326D01*
X39256D01*
Y39394D01*
X39323D01*
Y39461D01*
X39391D01*
Y39529D01*
X39458D01*
Y39596D01*
Y39664D01*
X39526D01*
Y39731D01*
Y39799D01*
X39593D01*
Y39866D01*
Y39934D01*
X39661D01*
Y40001D01*
Y40069D01*
Y40136D01*
X39728D01*
Y40204D01*
Y40271D01*
Y40339D01*
Y40406D01*
Y40474D01*
Y40541D01*
Y40609D01*
Y40676D01*
Y40744D01*
Y40811D01*
Y40879D01*
Y40946D01*
X39661D01*
Y41014D01*
Y41081D01*
Y41149D01*
X39593D01*
Y41216D01*
Y41284D01*
X39661D01*
Y41216D01*
X39728D01*
Y41149D01*
X39863D01*
Y41081D01*
X39931D01*
Y41014D01*
X39998D01*
Y40946D01*
X40133D01*
Y40879D01*
X40201D01*
Y40811D01*
X40268D01*
Y40744D01*
X40403D01*
Y40676D01*
X40471D01*
Y40609D01*
X40538D01*
Y40541D01*
X40673D01*
Y40474D01*
X40741D01*
Y40406D01*
X40808D01*
Y40339D01*
X40876D01*
Y40271D01*
X41011D01*
Y40204D01*
X41078D01*
Y40136D01*
X41146D01*
Y40069D01*
X41213D01*
Y40001D01*
X41348D01*
Y39934D01*
X41416D01*
Y39866D01*
X41483D01*
Y39799D01*
X41551D01*
Y39731D01*
X41618D01*
Y39664D01*
X41754D01*
Y39596D01*
X41821D01*
Y39529D01*
X41888D01*
Y39461D01*
X41956D01*
Y39394D01*
X42024D01*
Y39326D01*
X42091D01*
Y39259D01*
X42226D01*
Y39191D01*
X42294D01*
Y39124D01*
X42361D01*
Y39056D01*
X42429D01*
Y38989D01*
X42496D01*
Y38921D01*
X42564D01*
Y38854D01*
X42631D01*
Y38786D01*
X42766D01*
Y38719D01*
X42834D01*
Y38651D01*
X42901D01*
Y38584D01*
X42969D01*
Y38516D01*
X43036D01*
Y38449D01*
X43104D01*
Y38381D01*
X43171D01*
Y38314D01*
X43239D01*
Y38246D01*
X43374D01*
Y38179D01*
X43441D01*
Y38111D01*
X43509D01*
Y38044D01*
X43576D01*
Y37976D01*
X43644D01*
Y37909D01*
X43711D01*
Y37841D01*
X43779D01*
Y37774D01*
X43846D01*
Y37706D01*
X43914D01*
Y37639D01*
X43981D01*
Y37571D01*
X44116D01*
Y37504D01*
X44184D01*
Y37436D01*
X44251D01*
Y37369D01*
X44319D01*
Y37301D01*
X44386D01*
Y37233D01*
X44454D01*
Y37166D01*
X44521D01*
Y37099D01*
X44589D01*
Y37031D01*
X44656D01*
Y36963D01*
X44724D01*
Y36896D01*
X44791D01*
Y36829D01*
X44859D01*
Y36761D01*
X44994D01*
Y36694D01*
X45061D01*
Y36626D01*
X45129D01*
Y36558D01*
X45196D01*
Y36491D01*
X45264D01*
Y36424D01*
X45331D01*
Y36356D01*
X45399D01*
Y36288D01*
X45466D01*
Y36221D01*
X45534D01*
Y36154D01*
X45601D01*
Y36086D01*
X45669D01*
Y36018D01*
X45736D01*
Y35951D01*
X45804D01*
Y35883D01*
X45871D01*
Y35816D01*
X45939D01*
Y35748D01*
X46074D01*
Y35816D01*
X46141D01*
Y35883D01*
X46209D01*
Y35951D01*
X46276D01*
Y36018D01*
X46344D01*
Y36086D01*
X46411D01*
Y36154D01*
X46479D01*
Y36221D01*
X46546D01*
Y36288D01*
X46614D01*
Y36356D01*
X46681D01*
Y36424D01*
X46749D01*
Y36491D01*
X46816D01*
Y36558D01*
X46884D01*
Y36626D01*
X46951D01*
Y36694D01*
X47019D01*
Y36761D01*
X47086D01*
Y36829D01*
X47154D01*
Y36896D01*
X47221D01*
Y36963D01*
X47289D01*
Y37031D01*
X47357D01*
Y37099D01*
X47424D01*
Y37166D01*
X47491D01*
Y37233D01*
X47559D01*
Y37301D01*
X47627D01*
Y37369D01*
X47694D01*
Y37436D01*
X47761D01*
Y37504D01*
X47829D01*
Y37571D01*
X47897D01*
Y37639D01*
X47964D01*
Y37706D01*
X48031D01*
Y37774D01*
X48099D01*
Y37841D01*
X48166D01*
Y37909D01*
X48234D01*
Y37976D01*
X48302D01*
Y38044D01*
X48369D01*
Y38111D01*
X48436D01*
Y38179D01*
X48504D01*
Y38246D01*
X48572D01*
Y38314D01*
X48639D01*
Y38381D01*
X48706D01*
Y38449D01*
X48774D01*
Y38516D01*
X48909D01*
Y38584D01*
X48977D01*
Y38651D01*
X49044D01*
Y38719D01*
X49112D01*
Y38786D01*
X49179D01*
Y38854D01*
X49247D01*
Y38921D01*
X49314D01*
Y38989D01*
X49382D01*
Y39056D01*
X49449D01*
Y39124D01*
X49517D01*
Y39191D01*
X49584D01*
Y39259D01*
X49719D01*
Y39326D01*
X49787D01*
Y39394D01*
X49854D01*
Y39461D01*
X49922D01*
Y39529D01*
X49989D01*
Y39596D01*
X50057D01*
Y39664D01*
X50124D01*
Y39731D01*
X50259D01*
Y39799D01*
X50327D01*
Y39866D01*
X50394D01*
Y39934D01*
X50462D01*
Y40001D01*
X50529D01*
Y40069D01*
X50597D01*
Y40136D01*
X50732D01*
Y40204D01*
X50799D01*
Y40271D01*
X50867D01*
Y40339D01*
X50934D01*
Y40406D01*
X51069D01*
Y40474D01*
X51137D01*
Y40541D01*
X51204D01*
Y40609D01*
X51272D01*
Y40676D01*
X51407D01*
Y40744D01*
X51474D01*
Y40811D01*
X51542D01*
Y40879D01*
X51677D01*
Y40946D01*
X51744D01*
Y41014D01*
X51812D01*
Y41081D01*
X51947D01*
Y41149D01*
X52014D01*
Y41216D01*
X52082D01*
Y41284D01*
X52217D01*
Y41351D01*
X52284D01*
Y41419D01*
X52419D01*
Y41486D01*
X52487D01*
Y41554D01*
X52622D01*
Y41621D01*
X52689D01*
Y41689D01*
X52824D01*
Y41756D01*
X52892D01*
Y41824D01*
X53027D01*
Y41891D01*
X53094D01*
Y41959D01*
X53229D01*
Y42026D01*
X53364D01*
Y42094D01*
X53432D01*
Y42161D01*
X53567D01*
Y42229D01*
X53702D01*
Y42296D01*
X53769D01*
Y42364D01*
X53904D01*
Y42432D01*
X54040D01*
Y42499D01*
X54175D01*
Y42566D01*
X54309D01*
Y42634D01*
X54444D01*
Y42702D01*
X54580D01*
Y42769D01*
X54715D01*
Y42836D01*
X54850D01*
Y42904D01*
X54985D01*
Y42972D01*
X55120D01*
Y43039D01*
X55322D01*
Y43106D01*
X55457D01*
Y43174D01*
X55660D01*
Y43242D01*
X55795D01*
Y43309D01*
X55997D01*
Y43377D01*
X56200D01*
Y43444D01*
X56402D01*
Y43512D01*
X56605D01*
Y43579D01*
X56807D01*
Y43647D01*
X57010D01*
Y43714D01*
X57280D01*
Y43782D01*
X57550D01*
Y43849D01*
X57887D01*
Y43917D01*
X58225D01*
Y43984D01*
X58697D01*
Y44052D01*
X59372D01*
Y44119D01*
X61060D01*
Y44052D01*
D02*
G37*
G36*
X36242Y21405D02*
X36512D01*
Y21337D01*
X36647D01*
Y21270D01*
X36782D01*
Y21202D01*
X36917D01*
Y21135D01*
X37052D01*
Y21067D01*
X37120D01*
Y20999D01*
X37187D01*
Y20932D01*
Y20864D01*
X37120D01*
Y20797D01*
X37052D01*
Y20729D01*
X36850D01*
Y20797D01*
X36782D01*
Y20864D01*
X36715D01*
Y20932D01*
X36580D01*
Y20999D01*
X36445D01*
Y21067D01*
X36242D01*
Y21135D01*
X35297D01*
Y21067D01*
X35095D01*
Y20999D01*
X34892D01*
Y20932D01*
X34825D01*
Y20864D01*
X34690D01*
Y20797D01*
X34622D01*
Y20729D01*
X34555D01*
Y20662D01*
X34487D01*
Y20594D01*
X34420D01*
Y20527D01*
X34352D01*
Y20459D01*
X34285D01*
Y20392D01*
Y20324D01*
X34217D01*
Y20257D01*
Y20189D01*
X34150D01*
Y20122D01*
Y20054D01*
X34082D01*
Y19987D01*
Y19919D01*
Y19852D01*
Y19784D01*
X34015D01*
Y19717D01*
Y19649D01*
Y19582D01*
Y19514D01*
Y19447D01*
Y19379D01*
Y19312D01*
Y19244D01*
Y19177D01*
Y19109D01*
X34082D01*
Y19042D01*
Y18974D01*
Y18907D01*
X34150D01*
Y18839D01*
Y18772D01*
Y18704D01*
X34217D01*
Y18637D01*
X34285D01*
Y18569D01*
Y18502D01*
X34352D01*
Y18434D01*
X34420D01*
Y18367D01*
X34487D01*
Y18299D01*
X34555D01*
Y18232D01*
X34622D01*
Y18164D01*
X34690D01*
Y18097D01*
X34757D01*
Y18029D01*
X34892D01*
Y17962D01*
X35027D01*
Y17894D01*
X35230D01*
Y17827D01*
X35635D01*
Y17759D01*
X35837D01*
Y17827D01*
X36242D01*
Y17894D01*
X36445D01*
Y17962D01*
X36647D01*
Y18029D01*
X36715D01*
Y18097D01*
X36782D01*
Y18164D01*
X36850D01*
Y18232D01*
Y18299D01*
Y18367D01*
Y18434D01*
Y18502D01*
Y18569D01*
Y18637D01*
Y18704D01*
Y18772D01*
Y18839D01*
Y18907D01*
Y18974D01*
Y19042D01*
Y19109D01*
Y19177D01*
Y19244D01*
Y19312D01*
Y19379D01*
Y19447D01*
X37187D01*
Y19379D01*
Y19312D01*
Y19244D01*
Y19177D01*
Y19109D01*
Y19042D01*
Y18974D01*
Y18907D01*
Y18839D01*
Y18772D01*
Y18704D01*
Y18637D01*
Y18569D01*
Y18502D01*
Y18434D01*
Y18367D01*
Y18299D01*
Y18232D01*
Y18164D01*
Y18097D01*
Y18029D01*
Y17962D01*
Y17894D01*
X37052D01*
Y17827D01*
X36985D01*
Y17759D01*
X36850D01*
Y17692D01*
X36715D01*
Y17624D01*
X36580D01*
Y17557D01*
X36310D01*
Y17489D01*
X35162D01*
Y17557D01*
X34960D01*
Y17624D01*
X34757D01*
Y17692D01*
X34622D01*
Y17759D01*
X34555D01*
Y17827D01*
X34420D01*
Y17894D01*
X34352D01*
Y17962D01*
X34285D01*
Y18029D01*
X34217D01*
Y18097D01*
X34150D01*
Y18164D01*
X34082D01*
Y18232D01*
X34015D01*
Y18299D01*
X33947D01*
Y18367D01*
Y18434D01*
X33880D01*
Y18502D01*
Y18569D01*
X33812D01*
Y18637D01*
Y18704D01*
X33745D01*
Y18772D01*
Y18839D01*
Y18907D01*
X33677D01*
Y18974D01*
Y19042D01*
Y19109D01*
Y19177D01*
Y19244D01*
Y19312D01*
Y19379D01*
Y19447D01*
Y19514D01*
Y19582D01*
Y19649D01*
Y19717D01*
Y19784D01*
Y19852D01*
Y19919D01*
Y19987D01*
Y20054D01*
X33745D01*
Y20122D01*
Y20189D01*
Y20257D01*
X33812D01*
Y20324D01*
Y20392D01*
X33880D01*
Y20459D01*
Y20527D01*
X33947D01*
Y20594D01*
X34015D01*
Y20662D01*
Y20729D01*
X34082D01*
Y20797D01*
X34150D01*
Y20864D01*
X34217D01*
Y20932D01*
X34285D01*
Y20999D01*
X34352D01*
Y21067D01*
X34420D01*
Y21135D01*
X34555D01*
Y21202D01*
X34690D01*
Y21270D01*
X34825D01*
Y21337D01*
X34960D01*
Y21405D01*
X35230D01*
Y21472D01*
X36242D01*
Y21405D01*
D02*
G37*
G36*
X59802D02*
X59734D01*
Y21337D01*
Y21270D01*
X59667D01*
Y21202D01*
X59599D01*
Y21135D01*
Y21067D01*
X59532D01*
Y20999D01*
Y20932D01*
X59464D01*
Y20864D01*
X59397D01*
Y20797D01*
Y20729D01*
X59329D01*
Y20662D01*
X59262D01*
Y20594D01*
Y20527D01*
X59194D01*
Y20459D01*
Y20392D01*
X59127D01*
Y20324D01*
X59059D01*
Y20257D01*
Y20189D01*
X58992D01*
Y20122D01*
Y20054D01*
X58924D01*
Y19987D01*
X58857D01*
Y19919D01*
Y19852D01*
X58789D01*
Y19784D01*
Y19717D01*
X58722D01*
Y19649D01*
X58654D01*
Y19582D01*
Y19514D01*
X58587D01*
Y19447D01*
X58519D01*
Y19379D01*
Y19312D01*
X58452D01*
Y19244D01*
Y19177D01*
X58384D01*
Y19109D01*
X58317D01*
Y19042D01*
Y18974D01*
X58249D01*
Y18907D01*
Y18839D01*
X58182D01*
Y18772D01*
Y18704D01*
Y18637D01*
Y18569D01*
Y18502D01*
Y18434D01*
Y18367D01*
Y18299D01*
Y18232D01*
Y18164D01*
Y18097D01*
Y18029D01*
Y17962D01*
Y17894D01*
Y17827D01*
Y17759D01*
Y17692D01*
Y17624D01*
Y17557D01*
Y17489D01*
X57844D01*
Y17557D01*
Y17624D01*
Y17692D01*
Y17759D01*
Y17827D01*
Y17894D01*
Y17962D01*
Y18029D01*
Y18097D01*
Y18164D01*
Y18232D01*
Y18299D01*
Y18367D01*
Y18434D01*
Y18502D01*
Y18569D01*
Y18637D01*
Y18704D01*
Y18772D01*
Y18839D01*
Y18907D01*
X57777D01*
Y18974D01*
X57709D01*
Y19042D01*
Y19109D01*
X57642D01*
Y19177D01*
Y19244D01*
X57574D01*
Y19312D01*
X57507D01*
Y19379D01*
Y19447D01*
X57439D01*
Y19514D01*
Y19582D01*
X57372D01*
Y19649D01*
X57304D01*
Y19717D01*
Y19784D01*
X57237D01*
Y19852D01*
Y19919D01*
X57169D01*
Y19987D01*
X57102D01*
Y20054D01*
Y20122D01*
X57034D01*
Y20189D01*
X56967D01*
Y20257D01*
Y20324D01*
X56899D01*
Y20392D01*
Y20459D01*
X56832D01*
Y20527D01*
X56764D01*
Y20594D01*
Y20662D01*
X56696D01*
Y20729D01*
Y20797D01*
X56629D01*
Y20864D01*
X56561D01*
Y20932D01*
Y20999D01*
X56494D01*
Y21067D01*
Y21135D01*
X56427D01*
Y21202D01*
X56359D01*
Y21270D01*
Y21337D01*
X56292D01*
Y21405D01*
X56224D01*
Y21472D01*
X56696D01*
Y21405D01*
Y21337D01*
X56764D01*
Y21270D01*
Y21202D01*
X56832D01*
Y21135D01*
X56899D01*
Y21067D01*
Y20999D01*
X56967D01*
Y20932D01*
Y20864D01*
X57034D01*
Y20797D01*
X57102D01*
Y20729D01*
Y20662D01*
X57169D01*
Y20594D01*
X57237D01*
Y20527D01*
Y20459D01*
X57304D01*
Y20392D01*
Y20324D01*
X57372D01*
Y20257D01*
X57439D01*
Y20189D01*
Y20122D01*
X57507D01*
Y20054D01*
Y19987D01*
X57574D01*
Y19919D01*
X57642D01*
Y19852D01*
Y19784D01*
X57709D01*
Y19717D01*
Y19649D01*
X57777D01*
Y19582D01*
X57844D01*
Y19514D01*
Y19447D01*
X57912D01*
Y19379D01*
X57979D01*
Y19312D01*
Y19244D01*
X58114D01*
Y19312D01*
Y19379D01*
X58182D01*
Y19447D01*
Y19514D01*
X58249D01*
Y19582D01*
X58317D01*
Y19649D01*
Y19717D01*
X58384D01*
Y19784D01*
X58452D01*
Y19852D01*
Y19919D01*
X58519D01*
Y19987D01*
Y20054D01*
X58587D01*
Y20122D01*
X58654D01*
Y20189D01*
Y20257D01*
X58722D01*
Y20324D01*
Y20392D01*
X58789D01*
Y20459D01*
X58857D01*
Y20527D01*
Y20594D01*
X58924D01*
Y20662D01*
Y20729D01*
X58992D01*
Y20797D01*
X59059D01*
Y20864D01*
Y20932D01*
X59127D01*
Y20999D01*
Y21067D01*
X59194D01*
Y21135D01*
X59262D01*
Y21202D01*
Y21270D01*
X59329D01*
Y21337D01*
X59397D01*
Y21405D01*
Y21472D01*
X59802D01*
Y21405D01*
D02*
G37*
G36*
X51904D02*
Y21337D01*
Y21270D01*
Y21202D01*
Y21135D01*
Y21067D01*
Y20999D01*
Y20932D01*
Y20864D01*
Y20797D01*
Y20729D01*
Y20662D01*
Y20594D01*
Y20527D01*
Y20459D01*
Y20392D01*
Y20324D01*
Y20257D01*
Y20189D01*
Y20122D01*
Y20054D01*
Y19987D01*
Y19919D01*
Y19852D01*
Y19784D01*
Y19717D01*
Y19649D01*
Y19582D01*
Y19514D01*
Y19447D01*
Y19379D01*
Y19312D01*
Y19244D01*
Y19177D01*
Y19109D01*
Y19042D01*
Y18974D01*
Y18907D01*
Y18839D01*
Y18772D01*
Y18704D01*
Y18637D01*
Y18569D01*
Y18502D01*
Y18434D01*
Y18367D01*
Y18299D01*
Y18232D01*
Y18164D01*
Y18097D01*
Y18029D01*
Y17962D01*
Y17894D01*
Y17827D01*
Y17759D01*
Y17692D01*
Y17624D01*
Y17557D01*
Y17489D01*
X51566D01*
Y17557D01*
X51499D01*
Y17624D01*
X51431D01*
Y17692D01*
Y17759D01*
X51364D01*
Y17827D01*
X51296D01*
Y17894D01*
X51229D01*
Y17962D01*
X51161D01*
Y18029D01*
Y18097D01*
X51094D01*
Y18164D01*
X51026D01*
Y18232D01*
X50959D01*
Y18299D01*
X50891D01*
Y18367D01*
Y18434D01*
X50823D01*
Y18502D01*
X50756D01*
Y18569D01*
X50688D01*
Y18637D01*
Y18704D01*
X50621D01*
Y18772D01*
X50554D01*
Y18839D01*
X50486D01*
Y18907D01*
X50419D01*
Y18974D01*
Y19042D01*
X50351D01*
Y19109D01*
X50283D01*
Y19177D01*
X50216D01*
Y19244D01*
X50148D01*
Y19312D01*
Y19379D01*
X50081D01*
Y19447D01*
X50014D01*
Y19514D01*
X49946D01*
Y19582D01*
X49878D01*
Y19649D01*
Y19717D01*
X49811D01*
Y19784D01*
X49744D01*
Y19852D01*
X49676D01*
Y19919D01*
X49608D01*
Y19987D01*
Y20054D01*
X49541D01*
Y20122D01*
X49473D01*
Y20189D01*
X49406D01*
Y20257D01*
Y20324D01*
X49338D01*
Y20392D01*
X49271D01*
Y20459D01*
X49203D01*
Y20527D01*
X49136D01*
Y20594D01*
Y20662D01*
X49068D01*
Y20729D01*
X49001D01*
Y20662D01*
Y20594D01*
Y20527D01*
Y20459D01*
Y20392D01*
Y20324D01*
Y20257D01*
Y20189D01*
Y20122D01*
Y20054D01*
Y19987D01*
Y19919D01*
Y19852D01*
Y19784D01*
Y19717D01*
Y19649D01*
Y19582D01*
Y19514D01*
Y19447D01*
Y19379D01*
Y19312D01*
Y19244D01*
Y19177D01*
Y19109D01*
Y19042D01*
Y18974D01*
Y18907D01*
Y18839D01*
Y18772D01*
Y18704D01*
Y18637D01*
Y18569D01*
Y18502D01*
Y18434D01*
Y18367D01*
Y18299D01*
Y18232D01*
Y18164D01*
Y18097D01*
Y18029D01*
Y17962D01*
Y17894D01*
Y17827D01*
Y17759D01*
Y17692D01*
Y17624D01*
Y17557D01*
Y17489D01*
X48596D01*
Y17557D01*
Y17624D01*
Y17692D01*
Y17759D01*
Y17827D01*
Y17894D01*
Y17962D01*
Y18029D01*
Y18097D01*
Y18164D01*
Y18232D01*
Y18299D01*
Y18367D01*
Y18434D01*
Y18502D01*
Y18569D01*
Y18637D01*
Y18704D01*
Y18772D01*
Y18839D01*
Y18907D01*
Y18974D01*
Y19042D01*
Y19109D01*
Y19177D01*
Y19244D01*
Y19312D01*
Y19379D01*
Y19447D01*
Y19514D01*
Y19582D01*
Y19649D01*
Y19717D01*
Y19784D01*
Y19852D01*
Y19919D01*
Y19987D01*
Y20054D01*
Y20122D01*
Y20189D01*
Y20257D01*
Y20324D01*
Y20392D01*
Y20459D01*
Y20527D01*
Y20594D01*
Y20662D01*
Y20729D01*
Y20797D01*
Y20864D01*
Y20932D01*
Y20999D01*
Y21067D01*
Y21135D01*
Y21202D01*
Y21270D01*
Y21337D01*
Y21405D01*
Y21472D01*
X48933D01*
Y21405D01*
X49001D01*
Y21337D01*
X49068D01*
Y21270D01*
X49136D01*
Y21202D01*
Y21135D01*
X49203D01*
Y21067D01*
X49271D01*
Y20999D01*
X49338D01*
Y20932D01*
X49406D01*
Y20864D01*
Y20797D01*
X49473D01*
Y20729D01*
X49541D01*
Y20662D01*
X49608D01*
Y20594D01*
X49676D01*
Y20527D01*
Y20459D01*
X49744D01*
Y20392D01*
X49811D01*
Y20324D01*
X49878D01*
Y20257D01*
X49946D01*
Y20189D01*
Y20122D01*
X50014D01*
Y20054D01*
X50081D01*
Y19987D01*
X50148D01*
Y19919D01*
X50216D01*
Y19852D01*
Y19784D01*
X50283D01*
Y19717D01*
X50351D01*
Y19649D01*
X50419D01*
Y19582D01*
Y19514D01*
X50486D01*
Y19447D01*
X50554D01*
Y19379D01*
X50621D01*
Y19312D01*
X50688D01*
Y19244D01*
Y19177D01*
X50756D01*
Y19109D01*
X50823D01*
Y19042D01*
X50891D01*
Y18974D01*
X50959D01*
Y18907D01*
Y18839D01*
X51026D01*
Y18772D01*
X51094D01*
Y18704D01*
X51161D01*
Y18637D01*
X51229D01*
Y18569D01*
Y18502D01*
X51296D01*
Y18434D01*
X51364D01*
Y18367D01*
X51431D01*
Y18299D01*
X51566D01*
Y18367D01*
Y18434D01*
Y18502D01*
Y18569D01*
Y18637D01*
Y18704D01*
Y18772D01*
Y18839D01*
Y18907D01*
Y18974D01*
Y19042D01*
Y19109D01*
Y19177D01*
Y19244D01*
Y19312D01*
Y19379D01*
Y19447D01*
Y19514D01*
Y19582D01*
Y19649D01*
Y19717D01*
Y19784D01*
Y19852D01*
Y19919D01*
Y19987D01*
Y20054D01*
Y20122D01*
Y20189D01*
Y20257D01*
Y20324D01*
Y20392D01*
Y20459D01*
Y20527D01*
Y20594D01*
Y20662D01*
Y20729D01*
Y20797D01*
Y20864D01*
Y20932D01*
Y20999D01*
Y21067D01*
Y21135D01*
Y21202D01*
Y21270D01*
Y21337D01*
Y21405D01*
Y21472D01*
X51904D01*
Y21405D01*
D02*
G37*
G36*
X45558D02*
Y21337D01*
Y21270D01*
Y21202D01*
Y21135D01*
Y21067D01*
Y20999D01*
Y20932D01*
Y20864D01*
Y20797D01*
Y20729D01*
Y20662D01*
Y20594D01*
Y20527D01*
Y20459D01*
Y20392D01*
Y20324D01*
Y20257D01*
Y20189D01*
Y20122D01*
Y20054D01*
Y19987D01*
Y19919D01*
Y19852D01*
Y19784D01*
Y19717D01*
Y19649D01*
Y19582D01*
Y19514D01*
Y19447D01*
Y19379D01*
Y19312D01*
Y19244D01*
Y19177D01*
Y19109D01*
Y19042D01*
Y18974D01*
Y18907D01*
Y18839D01*
Y18772D01*
Y18704D01*
Y18637D01*
Y18569D01*
Y18502D01*
Y18434D01*
Y18367D01*
Y18299D01*
Y18232D01*
Y18164D01*
Y18097D01*
Y18029D01*
Y17962D01*
Y17894D01*
Y17827D01*
Y17759D01*
Y17692D01*
Y17624D01*
Y17557D01*
Y17489D01*
X45221D01*
Y17557D01*
X45153D01*
Y17624D01*
X45086D01*
Y17692D01*
X45018D01*
Y17759D01*
X44951D01*
Y17827D01*
Y17894D01*
X44883D01*
Y17962D01*
X44815D01*
Y18029D01*
X44748D01*
Y18097D01*
X44681D01*
Y18164D01*
Y18232D01*
X44613D01*
Y18299D01*
X44546D01*
Y18367D01*
X44478D01*
Y18434D01*
X44410D01*
Y18502D01*
Y18569D01*
X44343D01*
Y18637D01*
X44276D01*
Y18704D01*
X44208D01*
Y18772D01*
X44140D01*
Y18839D01*
Y18907D01*
X44073D01*
Y18974D01*
X44006D01*
Y19042D01*
X43938D01*
Y19109D01*
X43870D01*
Y19177D01*
Y19244D01*
X43803D01*
Y19312D01*
X43736D01*
Y19379D01*
X43668D01*
Y19447D01*
Y19514D01*
X43600D01*
Y19582D01*
X43533D01*
Y19649D01*
X43465D01*
Y19717D01*
X43398D01*
Y19784D01*
Y19852D01*
X43330D01*
Y19919D01*
X43263D01*
Y19987D01*
X43195D01*
Y20054D01*
X43128D01*
Y20122D01*
Y20189D01*
X43060D01*
Y20257D01*
X42993D01*
Y20324D01*
X42925D01*
Y20392D01*
X42858D01*
Y20459D01*
Y20527D01*
X42790D01*
Y20594D01*
X42723D01*
Y20662D01*
X42588D01*
Y20594D01*
Y20527D01*
Y20459D01*
Y20392D01*
Y20324D01*
Y20257D01*
Y20189D01*
Y20122D01*
Y20054D01*
Y19987D01*
Y19919D01*
Y19852D01*
Y19784D01*
Y19717D01*
Y19649D01*
Y19582D01*
Y19514D01*
Y19447D01*
Y19379D01*
Y19312D01*
Y19244D01*
Y19177D01*
Y19109D01*
Y19042D01*
Y18974D01*
Y18907D01*
Y18839D01*
Y18772D01*
Y18704D01*
Y18637D01*
Y18569D01*
Y18502D01*
Y18434D01*
Y18367D01*
Y18299D01*
Y18232D01*
Y18164D01*
Y18097D01*
Y18029D01*
Y17962D01*
Y17894D01*
Y17827D01*
Y17759D01*
Y17692D01*
Y17624D01*
Y17557D01*
Y17489D01*
X42250D01*
Y17557D01*
Y17624D01*
Y17692D01*
Y17759D01*
Y17827D01*
Y17894D01*
Y17962D01*
Y18029D01*
Y18097D01*
Y18164D01*
Y18232D01*
Y18299D01*
Y18367D01*
Y18434D01*
Y18502D01*
Y18569D01*
Y18637D01*
Y18704D01*
Y18772D01*
Y18839D01*
Y18907D01*
Y18974D01*
Y19042D01*
Y19109D01*
Y19177D01*
Y19244D01*
Y19312D01*
Y19379D01*
Y19447D01*
Y19514D01*
Y19582D01*
Y19649D01*
Y19717D01*
Y19784D01*
Y19852D01*
Y19919D01*
Y19987D01*
Y20054D01*
Y20122D01*
Y20189D01*
Y20257D01*
Y20324D01*
Y20392D01*
Y20459D01*
Y20527D01*
Y20594D01*
Y20662D01*
Y20729D01*
Y20797D01*
Y20864D01*
Y20932D01*
Y20999D01*
Y21067D01*
Y21135D01*
Y21202D01*
Y21270D01*
Y21337D01*
Y21405D01*
Y21472D01*
X42588D01*
Y21405D01*
X42655D01*
Y21337D01*
Y21270D01*
X42723D01*
Y21202D01*
X42790D01*
Y21135D01*
X42858D01*
Y21067D01*
X42925D01*
Y20999D01*
Y20932D01*
X42993D01*
Y20864D01*
X43060D01*
Y20797D01*
X43128D01*
Y20729D01*
Y20662D01*
X43195D01*
Y20594D01*
X43263D01*
Y20527D01*
X43330D01*
Y20459D01*
X43398D01*
Y20392D01*
Y20324D01*
X43465D01*
Y20257D01*
X43533D01*
Y20189D01*
X43600D01*
Y20122D01*
X43668D01*
Y20054D01*
Y19987D01*
X43736D01*
Y19919D01*
X43803D01*
Y19852D01*
X43870D01*
Y19784D01*
X43938D01*
Y19717D01*
Y19649D01*
X44006D01*
Y19582D01*
X44073D01*
Y19514D01*
X44140D01*
Y19447D01*
X44208D01*
Y19379D01*
Y19312D01*
X44276D01*
Y19244D01*
X44343D01*
Y19177D01*
X44410D01*
Y19109D01*
X44478D01*
Y19042D01*
Y18974D01*
X44546D01*
Y18907D01*
X44613D01*
Y18839D01*
X44681D01*
Y18772D01*
X44748D01*
Y18704D01*
Y18637D01*
X44815D01*
Y18569D01*
X44883D01*
Y18502D01*
X44951D01*
Y18434D01*
Y18367D01*
X45018D01*
Y18299D01*
X45086D01*
Y18232D01*
X45153D01*
Y18299D01*
Y18367D01*
Y18434D01*
Y18502D01*
Y18569D01*
Y18637D01*
Y18704D01*
Y18772D01*
Y18839D01*
Y18907D01*
Y18974D01*
Y19042D01*
Y19109D01*
Y19177D01*
Y19244D01*
Y19312D01*
Y19379D01*
Y19447D01*
Y19514D01*
Y19582D01*
Y19649D01*
Y19717D01*
Y19784D01*
Y19852D01*
Y19919D01*
Y19987D01*
Y20054D01*
Y20122D01*
Y20189D01*
Y20257D01*
Y20324D01*
Y20392D01*
Y20459D01*
Y20527D01*
Y20594D01*
Y20662D01*
Y20729D01*
Y20797D01*
Y20864D01*
Y20932D01*
Y20999D01*
Y21067D01*
Y21135D01*
Y21202D01*
Y21270D01*
Y21337D01*
Y21405D01*
Y21472D01*
X45558D01*
Y21405D01*
D02*
G37*
G36*
X55954D02*
Y21337D01*
Y21270D01*
Y21202D01*
Y21135D01*
X53659D01*
Y21067D01*
Y20999D01*
Y20932D01*
Y20864D01*
Y20797D01*
Y20729D01*
Y20662D01*
Y20594D01*
Y20527D01*
Y20459D01*
Y20392D01*
Y20324D01*
Y20257D01*
Y20189D01*
Y20122D01*
Y20054D01*
Y19987D01*
Y19919D01*
Y19852D01*
Y19784D01*
Y19717D01*
Y19649D01*
Y19582D01*
Y19514D01*
X55684D01*
Y19447D01*
Y19379D01*
Y19312D01*
Y19244D01*
Y19177D01*
X53659D01*
Y19109D01*
Y19042D01*
Y18974D01*
Y18907D01*
Y18839D01*
Y18772D01*
Y18704D01*
Y18637D01*
Y18569D01*
Y18502D01*
Y18434D01*
Y18367D01*
Y18299D01*
Y18232D01*
Y18164D01*
Y18097D01*
Y18029D01*
Y17962D01*
Y17894D01*
Y17827D01*
Y17759D01*
Y17692D01*
Y17624D01*
Y17557D01*
Y17489D01*
X53254D01*
Y17557D01*
Y17624D01*
Y17692D01*
Y17759D01*
Y17827D01*
Y17894D01*
Y17962D01*
Y18029D01*
Y18097D01*
Y18164D01*
Y18232D01*
Y18299D01*
Y18367D01*
Y18434D01*
Y18502D01*
Y18569D01*
Y18637D01*
Y18704D01*
Y18772D01*
Y18839D01*
Y18907D01*
Y18974D01*
Y19042D01*
Y19109D01*
Y19177D01*
Y19244D01*
Y19312D01*
Y19379D01*
Y19447D01*
Y19514D01*
Y19582D01*
Y19649D01*
Y19717D01*
Y19784D01*
Y19852D01*
Y19919D01*
Y19987D01*
Y20054D01*
Y20122D01*
Y20189D01*
Y20257D01*
Y20324D01*
Y20392D01*
Y20459D01*
Y20527D01*
Y20594D01*
Y20662D01*
Y20729D01*
Y20797D01*
Y20864D01*
Y20932D01*
Y20999D01*
Y21067D01*
Y21135D01*
Y21202D01*
Y21270D01*
Y21337D01*
Y21405D01*
Y21472D01*
X55954D01*
Y21405D01*
D02*
G37*
G36*
X47246D02*
Y21337D01*
Y21270D01*
Y21202D01*
Y21135D01*
Y21067D01*
Y20999D01*
Y20932D01*
Y20864D01*
Y20797D01*
Y20729D01*
Y20662D01*
Y20594D01*
Y20527D01*
Y20459D01*
Y20392D01*
Y20324D01*
Y20257D01*
Y20189D01*
Y20122D01*
Y20054D01*
Y19987D01*
Y19919D01*
Y19852D01*
Y19784D01*
Y19717D01*
Y19649D01*
Y19582D01*
Y19514D01*
Y19447D01*
Y19379D01*
Y19312D01*
Y19244D01*
Y19177D01*
Y19109D01*
Y19042D01*
Y18974D01*
Y18907D01*
Y18839D01*
Y18772D01*
Y18704D01*
Y18637D01*
Y18569D01*
Y18502D01*
Y18434D01*
Y18367D01*
Y18299D01*
Y18232D01*
Y18164D01*
Y18097D01*
Y18029D01*
Y17962D01*
Y17894D01*
Y17827D01*
Y17759D01*
Y17692D01*
Y17624D01*
Y17557D01*
Y17489D01*
X46908D01*
Y17557D01*
Y17624D01*
Y17692D01*
Y17759D01*
Y17827D01*
Y17894D01*
Y17962D01*
Y18029D01*
Y18097D01*
Y18164D01*
Y18232D01*
Y18299D01*
Y18367D01*
Y18434D01*
Y18502D01*
Y18569D01*
Y18637D01*
Y18704D01*
Y18772D01*
Y18839D01*
Y18907D01*
Y18974D01*
Y19042D01*
Y19109D01*
Y19177D01*
Y19244D01*
Y19312D01*
Y19379D01*
Y19447D01*
Y19514D01*
Y19582D01*
Y19649D01*
Y19717D01*
Y19784D01*
Y19852D01*
Y19919D01*
Y19987D01*
Y20054D01*
Y20122D01*
Y20189D01*
Y20257D01*
Y20324D01*
Y20392D01*
Y20459D01*
Y20527D01*
Y20594D01*
Y20662D01*
Y20729D01*
Y20797D01*
Y20864D01*
Y20932D01*
Y20999D01*
Y21067D01*
Y21135D01*
Y21202D01*
Y21270D01*
Y21337D01*
Y21405D01*
Y21472D01*
X47246D01*
Y21405D01*
D02*
G37*
G36*
X41103D02*
Y21337D01*
Y21270D01*
Y21202D01*
Y21135D01*
X38808D01*
Y21067D01*
Y20999D01*
Y20932D01*
Y20864D01*
Y20797D01*
Y20729D01*
Y20662D01*
Y20594D01*
Y20527D01*
Y20459D01*
Y20392D01*
Y20324D01*
Y20257D01*
Y20189D01*
Y20122D01*
Y20054D01*
Y19987D01*
Y19919D01*
Y19852D01*
Y19784D01*
Y19717D01*
Y19649D01*
X40833D01*
Y19582D01*
Y19514D01*
Y19447D01*
Y19379D01*
X38875D01*
Y19312D01*
X38808D01*
Y19244D01*
Y19177D01*
Y19109D01*
Y19042D01*
Y18974D01*
Y18907D01*
Y18839D01*
Y18772D01*
Y18704D01*
Y18637D01*
Y18569D01*
Y18502D01*
Y18434D01*
Y18367D01*
Y18299D01*
Y18232D01*
Y18164D01*
Y18097D01*
Y18029D01*
Y17962D01*
Y17894D01*
Y17827D01*
X41170D01*
Y17759D01*
Y17692D01*
Y17624D01*
Y17557D01*
Y17489D01*
X38403D01*
Y17557D01*
Y17624D01*
Y17692D01*
Y17759D01*
Y17827D01*
Y17894D01*
Y17962D01*
Y18029D01*
Y18097D01*
Y18164D01*
Y18232D01*
Y18299D01*
Y18367D01*
Y18434D01*
Y18502D01*
Y18569D01*
Y18637D01*
Y18704D01*
Y18772D01*
Y18839D01*
Y18907D01*
Y18974D01*
Y19042D01*
Y19109D01*
Y19177D01*
Y19244D01*
Y19312D01*
Y19379D01*
Y19447D01*
Y19514D01*
Y19582D01*
Y19649D01*
Y19717D01*
Y19784D01*
Y19852D01*
Y19919D01*
Y19987D01*
Y20054D01*
Y20122D01*
Y20189D01*
Y20257D01*
Y20324D01*
Y20392D01*
Y20459D01*
Y20527D01*
Y20594D01*
Y20662D01*
Y20729D01*
Y20797D01*
Y20864D01*
Y20932D01*
Y20999D01*
Y21067D01*
Y21135D01*
Y21202D01*
Y21270D01*
Y21337D01*
Y21405D01*
Y21472D01*
X41103D01*
Y21405D01*
D02*
G37*
%LPC*%
G36*
X60723Y41351D02*
X59642D01*
Y41284D01*
X58967D01*
Y41216D01*
X58562D01*
Y41149D01*
X58225D01*
Y41081D01*
X57955D01*
Y41014D01*
X57685D01*
Y40946D01*
X57482D01*
Y40879D01*
X57212D01*
Y40811D01*
X57077D01*
Y40744D01*
X56875D01*
Y40676D01*
X56672D01*
Y40609D01*
X56537D01*
Y40541D01*
X56402D01*
Y40474D01*
X56200D01*
Y40406D01*
X56065D01*
Y40339D01*
X55930D01*
Y40271D01*
X55795D01*
Y40204D01*
X55660D01*
Y40136D01*
X55525D01*
Y40069D01*
X55390D01*
Y40001D01*
X55255D01*
Y39934D01*
X55187D01*
Y39866D01*
X55052D01*
Y39799D01*
X54917D01*
Y39731D01*
X54850D01*
Y39664D01*
X54715D01*
Y39596D01*
X54580D01*
Y39529D01*
X54512D01*
Y39461D01*
X54377D01*
Y39394D01*
X54309D01*
Y39326D01*
X54175D01*
Y39259D01*
X54107D01*
Y39191D01*
X53972D01*
Y39124D01*
X53904D01*
Y39056D01*
X53769D01*
Y38989D01*
X53702D01*
Y38921D01*
X53567D01*
Y38854D01*
X53499D01*
Y38786D01*
X53432D01*
Y38719D01*
X53297D01*
Y38651D01*
X53229D01*
Y38584D01*
X53162D01*
Y38516D01*
X53027D01*
Y38449D01*
X52959D01*
Y38381D01*
X52892D01*
Y38314D01*
X52824D01*
Y38246D01*
X52689D01*
Y38179D01*
X52622D01*
Y38111D01*
X52554D01*
Y38044D01*
X52487D01*
Y37976D01*
X52352D01*
Y37909D01*
X52284D01*
Y37841D01*
X52217D01*
Y37774D01*
X52149D01*
Y37706D01*
X52082D01*
Y37639D01*
X52014D01*
Y37571D01*
X51879D01*
Y37504D01*
X51812D01*
Y37436D01*
X51744D01*
Y37369D01*
X51677D01*
Y37301D01*
X51609D01*
Y37233D01*
X51542D01*
Y37166D01*
X51474D01*
Y37099D01*
X51407D01*
Y37031D01*
X51272D01*
Y36963D01*
X51204D01*
Y36896D01*
X51137D01*
Y36829D01*
X51069D01*
Y36761D01*
X51002D01*
Y36694D01*
X50934D01*
Y36626D01*
X50867D01*
Y36558D01*
X50799D01*
Y36491D01*
X50732D01*
Y36424D01*
X50664D01*
Y36356D01*
X50597D01*
Y36288D01*
X50529D01*
Y36221D01*
X50462D01*
Y36154D01*
X50394D01*
Y36086D01*
X50327D01*
Y36018D01*
X50192D01*
Y35951D01*
X50124D01*
Y35883D01*
X50057D01*
Y35816D01*
X49989D01*
Y35748D01*
X49922D01*
Y35681D01*
X49854D01*
Y35613D01*
X49787D01*
Y35546D01*
X49719D01*
Y35478D01*
X49652D01*
Y35411D01*
X49584D01*
Y35343D01*
X49517D01*
Y35276D01*
X49449D01*
Y35208D01*
X49382D01*
Y35141D01*
X49314D01*
Y35073D01*
X49247D01*
Y35006D01*
X49179D01*
Y34938D01*
X49112D01*
Y34871D01*
X49044D01*
Y34803D01*
X48977D01*
Y34736D01*
X48909D01*
Y34668D01*
X48842D01*
Y34601D01*
X48774D01*
Y34533D01*
X48706D01*
Y34466D01*
X48639D01*
Y34398D01*
X48572D01*
Y34331D01*
X48504D01*
Y34263D01*
X48436D01*
Y34196D01*
X48369D01*
Y34128D01*
X48302D01*
Y34061D01*
X48234D01*
Y33993D01*
X48166D01*
Y33926D01*
X48099D01*
Y33858D01*
X48031D01*
Y33791D01*
X48099D01*
Y33723D01*
X48166D01*
Y33656D01*
X48234D01*
Y33588D01*
X48302D01*
Y33521D01*
X48369D01*
Y33453D01*
X48436D01*
Y33386D01*
X48504D01*
Y33318D01*
X48572D01*
Y33251D01*
X48639D01*
Y33183D01*
X48706D01*
Y33116D01*
X48774D01*
Y33048D01*
X48842D01*
Y32981D01*
X48909D01*
Y32913D01*
X48977D01*
Y32846D01*
X49044D01*
Y32778D01*
X49112D01*
Y32711D01*
X49179D01*
Y32643D01*
X49247D01*
Y32576D01*
X49314D01*
Y32508D01*
X49382D01*
Y32441D01*
X49449D01*
Y32373D01*
X49517D01*
Y32306D01*
X49652D01*
Y32238D01*
X49719D01*
Y32171D01*
X49787D01*
Y32103D01*
X49854D01*
Y32036D01*
X49922D01*
Y31968D01*
X49989D01*
Y31901D01*
X50057D01*
Y31833D01*
X50124D01*
Y31766D01*
X50192D01*
Y31698D01*
X50259D01*
Y31631D01*
X50327D01*
Y31563D01*
X50394D01*
Y31496D01*
X50462D01*
Y31428D01*
X50529D01*
Y31361D01*
X50597D01*
Y31293D01*
X50664D01*
Y31226D01*
X50732D01*
Y31158D01*
X50799D01*
Y31091D01*
X50867D01*
Y31023D01*
X51002D01*
Y30955D01*
X51069D01*
Y30888D01*
X51137D01*
Y30821D01*
X51204D01*
Y30753D01*
X51272D01*
Y30685D01*
X51339D01*
Y30618D01*
X51474D01*
Y30551D01*
X51542D01*
Y30483D01*
X51609D01*
Y30415D01*
X51677D01*
Y30348D01*
X51744D01*
Y30281D01*
X51879D01*
Y30213D01*
X51947D01*
Y30145D01*
X52014D01*
Y30078D01*
X52082D01*
Y30010D01*
X52217D01*
Y29943D01*
X52284D01*
Y29875D01*
X52352D01*
Y29808D01*
X52419D01*
Y29740D01*
X52554D01*
Y29673D01*
X52622D01*
Y29605D01*
X52689D01*
Y29538D01*
X52824D01*
Y29470D01*
X52892D01*
Y29403D01*
X52959D01*
Y29335D01*
X53094D01*
Y29268D01*
X53162D01*
Y29200D01*
X53229D01*
Y29133D01*
X53364D01*
Y29065D01*
X53432D01*
Y28998D01*
X53499D01*
Y28930D01*
X53635D01*
Y28863D01*
X53702D01*
Y28795D01*
X53837D01*
Y28728D01*
X53904D01*
Y28660D01*
X53972D01*
Y28593D01*
X54107D01*
Y28525D01*
X54175D01*
Y28458D01*
X54309D01*
Y28390D01*
X54377D01*
Y28323D01*
X54512D01*
Y28255D01*
X54580D01*
Y28188D01*
X54715D01*
Y28120D01*
X54850D01*
Y28053D01*
X54917D01*
Y27985D01*
X55052D01*
Y27918D01*
X55187D01*
Y27850D01*
X55255D01*
Y27783D01*
X55390D01*
Y27715D01*
X55525D01*
Y27648D01*
X55660D01*
Y27580D01*
X55727D01*
Y27513D01*
X55862D01*
Y27445D01*
X55997D01*
Y27378D01*
X56132D01*
Y27310D01*
X56267D01*
Y27243D01*
X56402D01*
Y27175D01*
X56537D01*
Y27108D01*
X56740D01*
Y27040D01*
X56875D01*
Y26973D01*
X57010D01*
Y26905D01*
X57212D01*
Y26838D01*
X57347D01*
Y26770D01*
X57550D01*
Y26703D01*
X57752D01*
Y26635D01*
X57955D01*
Y26568D01*
X58157D01*
Y26500D01*
X58427D01*
Y26433D01*
X58697D01*
Y26365D01*
X59035D01*
Y26298D01*
X59440D01*
Y26230D01*
X61263D01*
Y26298D01*
X61735D01*
Y26365D01*
X62005D01*
Y26433D01*
X62275D01*
Y26500D01*
X62478D01*
Y26568D01*
X62680D01*
Y26635D01*
X62883D01*
Y26703D01*
X63018D01*
Y26770D01*
X63220D01*
Y26838D01*
X63355D01*
Y26905D01*
X63490D01*
Y26973D01*
X63625D01*
Y27040D01*
X63760D01*
Y27108D01*
X63828D01*
Y27175D01*
X63963D01*
Y27243D01*
X64098D01*
Y27310D01*
X64233D01*
Y27378D01*
X64300D01*
Y27445D01*
X64435D01*
Y27513D01*
X64503D01*
Y27580D01*
X64570D01*
Y27648D01*
X64705D01*
Y27715D01*
X64773D01*
Y27783D01*
X64840D01*
Y27850D01*
X64975D01*
Y27918D01*
X65043D01*
Y27985D01*
X65110D01*
Y28053D01*
X65178D01*
Y28120D01*
X65245D01*
Y28188D01*
X65313D01*
Y28255D01*
X65448D01*
Y28323D01*
X65515D01*
Y28390D01*
X65583D01*
Y28458D01*
X65650D01*
Y28525D01*
Y28593D01*
X65718D01*
Y28660D01*
X65785D01*
Y28728D01*
X65853D01*
Y28795D01*
X65921D01*
Y28863D01*
X65988D01*
Y28930D01*
X66056D01*
Y28998D01*
X66123D01*
Y29065D01*
Y29133D01*
X66190D01*
Y29200D01*
X66258D01*
Y29268D01*
X66325D01*
Y29335D01*
Y29403D01*
X66393D01*
Y29470D01*
X66461D01*
Y29538D01*
X66528D01*
Y29605D01*
Y29673D01*
X66596D01*
Y29740D01*
Y29808D01*
X66663D01*
Y29875D01*
X66730D01*
Y29943D01*
Y30010D01*
X66798D01*
Y30078D01*
Y30145D01*
X66865D01*
Y30213D01*
X66933D01*
Y30281D01*
Y30348D01*
X67001D01*
Y30415D01*
Y30483D01*
X67068D01*
Y30551D01*
Y30618D01*
X67136D01*
Y30685D01*
Y30753D01*
Y30821D01*
X67203D01*
Y30888D01*
Y30955D01*
X67271D01*
Y31023D01*
Y31091D01*
Y31158D01*
X67338D01*
Y31226D01*
Y31293D01*
X67406D01*
Y31361D01*
Y31428D01*
Y31496D01*
X67473D01*
Y31563D01*
Y31631D01*
Y31698D01*
Y31766D01*
X67541D01*
Y31833D01*
Y31901D01*
Y31968D01*
Y32036D01*
X67608D01*
Y32103D01*
Y32171D01*
Y32238D01*
Y32306D01*
X67676D01*
Y32373D01*
Y32441D01*
Y32508D01*
Y32576D01*
Y32643D01*
Y32711D01*
X67743D01*
Y32778D01*
Y32846D01*
Y32913D01*
Y32981D01*
Y33048D01*
Y33116D01*
Y33183D01*
Y33251D01*
Y33318D01*
Y33386D01*
X67811D01*
Y33453D01*
Y33521D01*
Y33588D01*
Y33656D01*
Y33723D01*
Y33791D01*
Y33858D01*
Y33926D01*
Y33993D01*
Y34061D01*
Y34128D01*
Y34196D01*
Y34263D01*
Y34331D01*
X67743D01*
Y34398D01*
Y34466D01*
Y34533D01*
Y34601D01*
Y34668D01*
Y34736D01*
Y34803D01*
Y34871D01*
Y34938D01*
Y35006D01*
X67676D01*
Y35073D01*
Y35141D01*
Y35208D01*
Y35276D01*
Y35343D01*
Y35411D01*
X67608D01*
Y35478D01*
Y35546D01*
Y35613D01*
Y35681D01*
X67541D01*
Y35748D01*
Y35816D01*
Y35883D01*
Y35951D01*
X67473D01*
Y36018D01*
Y36086D01*
Y36154D01*
X67406D01*
Y36221D01*
Y36288D01*
Y36356D01*
X67338D01*
Y36424D01*
Y36491D01*
Y36558D01*
X67271D01*
Y36626D01*
Y36694D01*
Y36761D01*
X67203D01*
Y36829D01*
Y36896D01*
X67136D01*
Y36963D01*
Y37031D01*
X67068D01*
Y37099D01*
Y37166D01*
X67001D01*
Y37233D01*
Y37301D01*
X66933D01*
Y37369D01*
Y37436D01*
X66865D01*
Y37504D01*
Y37571D01*
X66798D01*
Y37639D01*
Y37706D01*
X66730D01*
Y37774D01*
X66663D01*
Y37841D01*
Y37909D01*
X66596D01*
Y37976D01*
Y38044D01*
X66528D01*
Y38111D01*
X66461D01*
Y38179D01*
Y38246D01*
X66393D01*
Y38314D01*
X66325D01*
Y38381D01*
X66258D01*
Y38449D01*
Y38516D01*
X66190D01*
Y38584D01*
X66123D01*
Y38651D01*
X66056D01*
Y38719D01*
X65988D01*
Y38786D01*
Y38854D01*
X65921D01*
Y38921D01*
X65853D01*
Y38989D01*
X65785D01*
Y39056D01*
X65718D01*
Y39124D01*
X65650D01*
Y39191D01*
X65583D01*
Y39259D01*
X65515D01*
Y39326D01*
X65448D01*
Y39394D01*
X65380D01*
Y39461D01*
X65313D01*
Y39529D01*
X65245D01*
Y39596D01*
X65110D01*
Y39664D01*
X65043D01*
Y39731D01*
X64975D01*
Y39799D01*
X64908D01*
Y39866D01*
X64773D01*
Y39934D01*
X64705D01*
Y40001D01*
X64570D01*
Y40069D01*
X64503D01*
Y40136D01*
X64368D01*
Y40204D01*
X64300D01*
Y40271D01*
X64165D01*
Y40339D01*
X64030D01*
Y40406D01*
X63963D01*
Y40474D01*
X63828D01*
Y40541D01*
X63693D01*
Y40609D01*
X63558D01*
Y40676D01*
X63355D01*
Y40744D01*
X63220D01*
Y40811D01*
X63085D01*
Y40879D01*
X62883D01*
Y40946D01*
X62680D01*
Y41014D01*
X62410D01*
Y41081D01*
X62140D01*
Y41149D01*
X61870D01*
Y41216D01*
X61465D01*
Y41284D01*
X60723D01*
Y41351D01*
D02*
G37*
%LPD*%
D10*
X149213Y13740D02*
G03*
X149213Y13740I-295J0D01*
G01*
X16169Y141550D02*
G03*
X16169Y141550I-295J0D01*
G01*
X32564D02*
G03*
X32564Y141550I-295J0D01*
G01*
X67323Y13740D02*
G03*
X67323Y13740I-295J0D01*
G01*
D11*
X103658Y-1969D02*
G03*
X103658Y-1969I-394J0D01*
G01*
X133913Y87631D02*
Y89206D01*
X131157Y87631D02*
Y89206D01*
X114913Y87631D02*
Y89206D01*
X112157Y87631D02*
Y89206D01*
X96913Y87631D02*
Y89206D01*
X94157Y87631D02*
Y89206D01*
X131299Y108661D02*
Y110236D01*
X134055Y108661D02*
Y110236D01*
X112157Y108677D02*
Y110252D01*
X114913Y108677D02*
Y110252D01*
X96913Y108677D02*
Y110252D01*
X94157Y108677D02*
Y110252D01*
X68973Y55504D02*
Y142118D01*
X157555D01*
Y55504D02*
Y142118D01*
X68973Y55504D02*
X157555D01*
X36614Y48996D02*
Y129744D01*
X1181D02*
X36614D01*
X1181Y48996D02*
X36614D01*
X1181D02*
Y129744D01*
X32283Y150524D02*
X32939Y151180D01*
X34251D01*
X34907Y150524D01*
Y149868D01*
X34251Y149212D01*
X33595D01*
X34251D01*
X34907Y148556D01*
Y147900D01*
X34251Y147244D01*
X32939D01*
X32283Y147900D01*
X36219Y151180D02*
Y148556D01*
X37531Y147244D01*
X38843Y148556D01*
Y151180D01*
X40155Y150524D02*
X40811Y151180D01*
X42123D01*
X42779Y150524D01*
Y149868D01*
X42123Y149212D01*
X41467D01*
X42123D01*
X42779Y148556D01*
Y147900D01*
X42123Y147244D01*
X40811D01*
X40155Y147900D01*
X16535Y146850D02*
X17847D01*
X17191D01*
Y150786D01*
X16535Y150130D01*
X22439Y146850D02*
X19815D01*
X22439Y149474D01*
Y150130D01*
X21783Y150786D01*
X20471D01*
X19815Y150130D01*
X23751Y150786D02*
Y148162D01*
X25063Y146850D01*
X26375Y148162D01*
Y150786D01*
X103937Y45276D02*
Y49211D01*
X105249Y47899D01*
X106561Y49211D01*
Y45276D01*
X109841Y49211D02*
X108529D01*
X107873Y48555D01*
Y45932D01*
X108529Y45276D01*
X109841D01*
X110497Y45932D01*
Y48555D01*
X109841Y49211D01*
X111809D02*
X114432D01*
X113120D01*
Y45276D01*
X117712Y49211D02*
X116400D01*
X115744Y48555D01*
Y45932D01*
X116400Y45276D01*
X117712D01*
X118368Y45932D01*
Y48555D01*
X117712Y49211D01*
X119680Y45276D02*
Y49211D01*
X121648D01*
X122304Y48555D01*
Y47243D01*
X121648Y46587D01*
X119680D01*
X120992D02*
X122304Y45276D01*
X166537Y82545D02*
X165881Y81889D01*
Y80577D01*
X166537Y79921D01*
X167193D01*
X167849Y80577D01*
Y81889D01*
X168505Y82545D01*
X169160D01*
X169817Y81889D01*
Y80577D01*
X169160Y79921D01*
X165881Y83857D02*
X169817D01*
X168505Y85169D01*
X169817Y86481D01*
X165881D01*
Y87793D02*
Y89105D01*
Y88449D01*
X169817D01*
Y87793D01*
Y89105D01*
X165881Y91072D02*
Y93696D01*
Y92384D01*
X169817D01*
X166537Y97632D02*
X165881Y96976D01*
Y95664D01*
X166537Y95008D01*
X169160D01*
X169817Y95664D01*
Y96976D01*
X169160Y97632D01*
X165881Y98944D02*
X169817D01*
X167849D01*
Y101568D01*
X165881D01*
X169817D01*
X170472Y102880D02*
Y105504D01*
X169817Y106816D02*
Y108127D01*
Y107471D01*
X165881D01*
X166537Y106816D01*
Y34907D02*
X165881Y34251D01*
Y32939D01*
X166537Y32283D01*
X167193D01*
X167849Y32939D01*
Y34251D01*
X168505Y34907D01*
X169160D01*
X169817Y34251D01*
Y32939D01*
X169160Y32283D01*
X165881Y36219D02*
X169817D01*
X168505Y37531D01*
X169817Y38843D01*
X165881D01*
Y40155D02*
Y41467D01*
Y40811D01*
X169817D01*
Y40155D01*
Y41467D01*
X165881Y43435D02*
Y46058D01*
Y44747D01*
X169817D01*
X166537Y49994D02*
X165881Y49338D01*
Y48026D01*
X166537Y47370D01*
X169160D01*
X169817Y48026D01*
Y49338D01*
X169160Y49994D01*
X165881Y51306D02*
X169817D01*
X167849D01*
Y53930D01*
X165881D01*
X169817D01*
X170472Y55242D02*
Y57866D01*
X169817Y61801D02*
Y59178D01*
X167193Y61801D01*
X166537D01*
X165881Y61146D01*
Y59834D01*
X166537Y59178D01*
X137796Y91862D02*
X141732D01*
Y89895D01*
X141076Y89239D01*
X139764D01*
X139108Y89895D01*
Y91862D01*
Y90551D02*
X137796Y89239D01*
Y85959D02*
X141732D01*
X139764Y87927D01*
Y85303D01*
X118111Y91862D02*
X122047D01*
Y89895D01*
X121391Y89239D01*
X120079D01*
X119423Y89895D01*
Y91862D01*
Y90551D02*
X118111Y89239D01*
X121391Y87927D02*
X122047Y87271D01*
Y85959D01*
X121391Y85303D01*
X120735D01*
X120079Y85959D01*
Y86615D01*
Y85959D01*
X119423Y85303D01*
X118767D01*
X118111Y85959D01*
Y87271D01*
X118767Y87927D01*
X100394Y91207D02*
X104330D01*
Y89239D01*
X103674Y88583D01*
X102362D01*
X101706Y89239D01*
Y91207D01*
Y89895D02*
X100394Y88583D01*
Y87271D02*
Y85959D01*
Y86615D01*
X104330D01*
X103674Y87271D01*
X137796Y112729D02*
X141732D01*
Y110761D01*
X141076Y110105D01*
X139764D01*
X139108Y110761D01*
Y112729D01*
Y111417D02*
X137796Y110105D01*
X141732Y106169D02*
X141076Y107481D01*
X139764Y108793D01*
X138452D01*
X137796Y108137D01*
Y106825D01*
X138452Y106169D01*
X139108D01*
X139764Y106825D01*
Y108793D01*
X118111Y112729D02*
X122047D01*
Y110761D01*
X121391Y110105D01*
X120079D01*
X119423Y110761D01*
Y112729D01*
Y111417D02*
X118111Y110105D01*
X122047Y106169D02*
Y108793D01*
X120079D01*
X120735Y107481D01*
Y106825D01*
X120079Y106169D01*
X118767D01*
X118111Y106825D01*
Y108137D01*
X118767Y108793D01*
X100394Y112729D02*
X104330D01*
Y110761D01*
X103674Y110105D01*
X102362D01*
X101706Y110761D01*
Y112729D01*
Y111417D02*
X100394Y110105D01*
Y106169D02*
Y108793D01*
X103018Y106169D01*
X103674D01*
X104330Y106825D01*
Y108137D01*
X103674Y108793D01*
X63516Y109187D02*
X64172Y109843D01*
Y111155D01*
X63516Y111811D01*
X60892D01*
X60236Y111155D01*
Y109843D01*
X60892Y109187D01*
X64172Y105907D02*
Y107219D01*
X63516Y107875D01*
X60892D01*
X60236Y107219D01*
Y105907D01*
X60892Y105252D01*
X63516D01*
X64172Y105907D01*
X60236Y103939D02*
X64172D01*
X60236Y101316D01*
X64172D01*
X60236Y100004D02*
X64172D01*
X60236Y97380D01*
X64172D01*
Y93444D02*
Y96068D01*
X60236D01*
Y93444D01*
X62204Y96068D02*
Y94756D01*
X63516Y89508D02*
X64172Y90164D01*
Y91476D01*
X63516Y92132D01*
X60892D01*
X60236Y91476D01*
Y90164D01*
X60892Y89508D01*
X64172Y88197D02*
Y85573D01*
Y86885D01*
X60236D01*
X64172Y82293D02*
Y83605D01*
X63516Y84261D01*
X60892D01*
X60236Y83605D01*
Y82293D01*
X60892Y81637D01*
X63516D01*
X64172Y82293D01*
X60236Y80325D02*
X64172D01*
Y78357D01*
X63516Y77701D01*
X62204D01*
X61548Y78357D01*
Y80325D01*
Y79013D02*
X60236Y77701D01*
X64172Y72454D02*
X61548D01*
X60236Y71142D01*
X61548Y69830D01*
X64172D01*
X63516Y68518D02*
X64172Y67862D01*
Y66550D01*
X63516Y65894D01*
X62860D01*
X62204Y66550D01*
Y67206D01*
Y66550D01*
X61548Y65894D01*
X60892D01*
X60236Y66550D01*
Y67862D01*
X60892Y68518D01*
D12*
X178116Y72835D02*
G03*
X178116Y72835I-557J0D01*
G01*
X177722Y25197D02*
G03*
X177722Y25197I-557J0D01*
G01*
D13*
X153740Y12559D02*
X154921D01*
X153740Y14921D02*
X154921D01*
X20697Y140369D02*
X21878D01*
X20697Y142731D02*
X21878D01*
X37092Y140369D02*
X38273D01*
X37092Y142731D02*
X38273D01*
X71850Y12559D02*
X73032D01*
X71850Y14921D02*
X73032D01*
D14*
X93264Y1968D02*
X133264D01*
X93264Y42323D02*
X133264D01*
Y1968D02*
Y42323D01*
X93264Y1968D02*
Y42323D01*
X202559Y75000D02*
Y113976D01*
X172638D02*
X202559D01*
X172638Y75000D02*
X202559D01*
X172638D02*
Y113976D01*
X202166Y27362D02*
Y66339D01*
X172244D02*
X202166D01*
X172244Y27362D02*
X202166D01*
X172244D02*
Y66339D01*
D15*
X137402Y21654D02*
X142649D01*
X84252Y21521D02*
X89500D01*
X86876Y24145D02*
Y18898D01*
D16*
X52399Y117087D02*
X51732Y116420D01*
Y115087D01*
X52399Y114421D01*
X55064D01*
X55731Y115087D01*
Y116420D01*
X55064Y117087D01*
X54398D01*
X53732Y116420D01*
Y114421D01*
X41732Y120866D02*
Y119533D01*
Y120200D01*
X45731D01*
X45065Y120866D01*
Y117534D02*
X45731Y116867D01*
Y115534D01*
X45065Y114868D01*
X42399D01*
X41732Y115534D01*
Y116867D01*
X42399Y117534D01*
X45065D01*
X41732Y61350D02*
Y64016D01*
X44398Y61350D01*
X45065D01*
X45731Y62016D01*
Y63349D01*
X45065Y64016D01*
X51732Y63622D02*
Y62289D01*
Y62956D01*
X55731D01*
X55064Y63622D01*
D17*
X153888Y13740D02*
D03*
X20845Y141550D02*
D03*
X37239Y141550D02*
D03*
X71998Y13740D02*
D03*
M02*
