G04*
G04 #@! TF.GenerationSoftware,Altium Limited,Altium Designer,20.1.8 (145)*
G04*
G04 Layer_Color=32896*
%FSLAX25Y25*%
%MOIN*%
G70*
G04*
G04 #@! TF.SameCoordinates,FEA716E4-3BEB-41DC-B402-B05547F70C4C*
G04*
G04*
G04 #@! TF.FilePolarity,Positive*
G04*
G01*
G75*
%ADD12C,0.01181*%
G36*
X86449Y56449D02*
X87057D01*
Y56381D01*
X87529D01*
Y56314D01*
X87867D01*
Y56246D01*
X88137D01*
Y56178D01*
X88407D01*
Y56111D01*
X88609D01*
Y56043D01*
X88812D01*
Y55976D01*
X89014D01*
Y55909D01*
X89217D01*
Y55841D01*
X89352D01*
Y55773D01*
X89554D01*
Y55706D01*
X89689D01*
Y55638D01*
X89824D01*
Y55571D01*
X90027D01*
Y55503D01*
X90162D01*
Y55436D01*
X90297D01*
Y55368D01*
X90432D01*
Y55301D01*
X90567D01*
Y55233D01*
X90634D01*
Y55166D01*
X90769D01*
Y55098D01*
X90904D01*
Y55031D01*
X90972D01*
Y54963D01*
X91107D01*
Y54896D01*
X91242D01*
Y54828D01*
X91309D01*
Y54761D01*
X91444D01*
Y54693D01*
X91512D01*
Y54626D01*
X91580D01*
Y54558D01*
X91715D01*
Y54491D01*
X91782D01*
Y54423D01*
X91917D01*
Y54356D01*
X91984D01*
Y54288D01*
X92052D01*
Y54221D01*
X92119D01*
Y54153D01*
X92255D01*
Y54086D01*
X92322D01*
Y54018D01*
X92390D01*
Y53951D01*
X92457D01*
Y53883D01*
X92525D01*
Y53816D01*
X92592D01*
Y53748D01*
X92660D01*
Y53681D01*
X92727D01*
Y53613D01*
X92795D01*
Y53546D01*
X92862D01*
Y53478D01*
X92930D01*
Y53411D01*
X92997D01*
Y53343D01*
X93065D01*
Y53276D01*
X93132D01*
Y53208D01*
X93200D01*
Y53141D01*
X93267D01*
Y53073D01*
X93335D01*
Y53006D01*
X93402D01*
Y52938D01*
X93470D01*
Y52871D01*
X93537D01*
Y52803D01*
X93605D01*
Y52736D01*
Y52668D01*
X93672D01*
Y52601D01*
X93740D01*
Y52533D01*
X93807D01*
Y52466D01*
X93875D01*
Y52398D01*
Y52331D01*
X93942D01*
Y52263D01*
X94010D01*
Y52196D01*
X94077D01*
Y52128D01*
Y52061D01*
X94145D01*
Y51993D01*
X94212D01*
Y51926D01*
Y51858D01*
X94280D01*
Y51791D01*
X94347D01*
Y51723D01*
Y51656D01*
X94415D01*
Y51588D01*
X94482D01*
Y51521D01*
Y51453D01*
X94550D01*
Y51386D01*
Y51318D01*
X94617D01*
Y51251D01*
Y51183D01*
X94685D01*
Y51116D01*
X94752D01*
Y51048D01*
Y50981D01*
X94820D01*
Y50913D01*
Y50845D01*
X94887D01*
Y50778D01*
Y50710D01*
X94955D01*
Y50643D01*
Y50576D01*
X95022D01*
Y50508D01*
Y50441D01*
X95090D01*
Y50373D01*
Y50305D01*
Y50238D01*
X95157D01*
Y50170D01*
Y50103D01*
X95225D01*
Y50036D01*
Y49968D01*
X95292D01*
Y49900D01*
Y49833D01*
Y49765D01*
X95360D01*
Y49698D01*
Y49630D01*
Y49563D01*
X95427D01*
Y49495D01*
Y49428D01*
Y49360D01*
X95495D01*
Y49293D01*
Y49225D01*
Y49158D01*
X95562D01*
Y49090D01*
Y49023D01*
Y48955D01*
X95630D01*
Y48888D01*
Y48820D01*
Y48753D01*
Y48685D01*
X95697D01*
Y48618D01*
Y48550D01*
Y48483D01*
Y48415D01*
X95765D01*
Y48348D01*
Y48280D01*
Y48213D01*
Y48145D01*
Y48078D01*
X95832D01*
Y48010D01*
Y47943D01*
Y47875D01*
Y47808D01*
Y47740D01*
Y47673D01*
X95900D01*
Y47605D01*
Y47538D01*
Y47470D01*
Y47403D01*
Y47335D01*
Y47268D01*
Y47200D01*
Y47133D01*
X95967D01*
Y47065D01*
Y46998D01*
Y46930D01*
Y46863D01*
Y46795D01*
Y46728D01*
Y46660D01*
Y46593D01*
Y46525D01*
Y46458D01*
Y46390D01*
Y46323D01*
Y46255D01*
Y46188D01*
Y46120D01*
Y46053D01*
Y45985D01*
Y45918D01*
Y45850D01*
Y45783D01*
Y45715D01*
Y45648D01*
Y45580D01*
Y45513D01*
Y45445D01*
Y45378D01*
Y45310D01*
Y45243D01*
Y45175D01*
Y45108D01*
Y45040D01*
Y44973D01*
X95900D01*
Y44905D01*
Y44837D01*
Y44770D01*
Y44703D01*
Y44635D01*
Y44567D01*
Y44500D01*
X95832D01*
Y44433D01*
Y44365D01*
Y44298D01*
Y44230D01*
Y44162D01*
Y44095D01*
X95765D01*
Y44028D01*
Y43960D01*
Y43892D01*
Y43825D01*
Y43758D01*
X95697D01*
Y43690D01*
Y43622D01*
Y43555D01*
Y43487D01*
X95630D01*
Y43420D01*
Y43352D01*
Y43285D01*
Y43217D01*
X95562D01*
Y43150D01*
Y43082D01*
Y43015D01*
X95495D01*
Y42947D01*
Y42880D01*
Y42812D01*
X95427D01*
Y42745D01*
Y42677D01*
Y42610D01*
X95360D01*
Y42542D01*
Y42475D01*
Y42407D01*
X95292D01*
Y42340D01*
Y42272D01*
Y42205D01*
X95225D01*
Y42137D01*
Y42070D01*
X95157D01*
Y42002D01*
Y41935D01*
X95090D01*
Y41867D01*
Y41800D01*
Y41732D01*
X95022D01*
Y41665D01*
Y41597D01*
X94955D01*
Y41530D01*
Y41462D01*
X94887D01*
Y41395D01*
Y41327D01*
X94820D01*
Y41260D01*
Y41192D01*
X94752D01*
Y41125D01*
Y41057D01*
X94685D01*
Y40990D01*
X94617D01*
Y40922D01*
Y40855D01*
X94550D01*
Y40787D01*
Y40720D01*
X94482D01*
Y40652D01*
X94415D01*
Y40585D01*
Y40517D01*
X94347D01*
Y40450D01*
Y40382D01*
X94280D01*
Y40315D01*
X94212D01*
Y40247D01*
Y40180D01*
X94145D01*
Y40112D01*
X94077D01*
Y40045D01*
X94010D01*
Y39977D01*
Y39910D01*
X93942D01*
Y39842D01*
X93875D01*
Y39775D01*
Y39707D01*
X93807D01*
Y39640D01*
X93740D01*
Y39572D01*
X93672D01*
Y39505D01*
X93605D01*
Y39437D01*
X93537D01*
Y39370D01*
Y39302D01*
X93470D01*
Y39235D01*
X93402D01*
Y39167D01*
X93335D01*
Y39100D01*
X93267D01*
Y39032D01*
X93200D01*
Y38965D01*
X93132D01*
Y38897D01*
X93065D01*
Y38830D01*
X92997D01*
Y38762D01*
X92930D01*
Y38695D01*
X92862D01*
Y38627D01*
X92795D01*
Y38559D01*
X92727D01*
Y38492D01*
X92660D01*
Y38425D01*
X92592D01*
Y38357D01*
X92525D01*
Y38289D01*
X92457D01*
Y38222D01*
X92390D01*
Y38155D01*
X92255D01*
Y38087D01*
X92187D01*
Y38019D01*
X92119D01*
Y37952D01*
X92052D01*
Y37885D01*
X91917D01*
Y37817D01*
X91849D01*
Y37749D01*
X91782D01*
Y37682D01*
X91647D01*
Y37615D01*
X91580D01*
Y37547D01*
X91444D01*
Y37479D01*
X91377D01*
Y37412D01*
X91242D01*
Y37344D01*
X91107D01*
Y37277D01*
X91039D01*
Y37209D01*
X90904D01*
Y37142D01*
X90769D01*
Y37074D01*
X90634D01*
Y37007D01*
X90567D01*
Y36939D01*
X90432D01*
Y36872D01*
X90229D01*
Y36804D01*
X90094D01*
Y36737D01*
X89959D01*
Y36669D01*
X89824D01*
Y36602D01*
X89622D01*
Y36534D01*
X89487D01*
Y36467D01*
X89284D01*
Y36399D01*
X89082D01*
Y36332D01*
X88879D01*
Y36264D01*
X88609D01*
Y36197D01*
X88407D01*
Y36129D01*
X88069D01*
Y36062D01*
X87799D01*
Y35994D01*
X87394D01*
Y35927D01*
X86854D01*
Y35859D01*
X84424D01*
Y35927D01*
X83884D01*
Y35994D01*
X83479D01*
Y36062D01*
X83141D01*
Y36129D01*
X82871D01*
Y36197D01*
X82601D01*
Y36264D01*
X82331D01*
Y36332D01*
X82129D01*
Y36399D01*
X81926D01*
Y36467D01*
X81724D01*
Y36534D01*
X81521D01*
Y36602D01*
X81319D01*
Y36669D01*
X81184D01*
Y36737D01*
X80981D01*
Y36804D01*
X80846D01*
Y36872D01*
X80644D01*
Y36939D01*
X80509D01*
Y37007D01*
X80374D01*
Y37074D01*
X80239D01*
Y37142D01*
X80103D01*
Y37209D01*
X79969D01*
Y37277D01*
X79834D01*
Y37344D01*
X79698D01*
Y37412D01*
X79563D01*
Y37479D01*
X79428D01*
Y37547D01*
X79294D01*
Y37615D01*
X79226D01*
Y37682D01*
X79091D01*
Y37749D01*
X79023D01*
Y37817D01*
X78956D01*
Y37885D01*
Y37952D01*
X78888D01*
Y38019D01*
X78821D01*
Y38087D01*
Y38155D01*
X78753D01*
Y38222D01*
Y38289D01*
Y38357D01*
X78686D01*
Y38425D01*
Y38492D01*
Y38559D01*
Y38627D01*
Y38695D01*
X78618D01*
Y38762D01*
Y38830D01*
Y38897D01*
Y38965D01*
Y39032D01*
Y39100D01*
Y39167D01*
Y39235D01*
Y39302D01*
Y39370D01*
Y39437D01*
Y39505D01*
Y39572D01*
Y39640D01*
Y39707D01*
Y39775D01*
Y39842D01*
Y39910D01*
Y39977D01*
Y40045D01*
Y40112D01*
Y40180D01*
Y40247D01*
Y40315D01*
Y40382D01*
Y40450D01*
Y40517D01*
Y40585D01*
Y40652D01*
Y40720D01*
Y40787D01*
Y40855D01*
Y40922D01*
Y40990D01*
Y41057D01*
Y41125D01*
Y41192D01*
Y41260D01*
Y41327D01*
Y41395D01*
Y41462D01*
Y41530D01*
Y41597D01*
Y41665D01*
Y41732D01*
Y41800D01*
Y41867D01*
Y41935D01*
Y42002D01*
Y42070D01*
Y42137D01*
Y42205D01*
Y42272D01*
Y42340D01*
Y42407D01*
Y42475D01*
Y42542D01*
Y42610D01*
Y42677D01*
Y42745D01*
Y42812D01*
Y42880D01*
Y42947D01*
Y43015D01*
Y43082D01*
Y43150D01*
Y43217D01*
Y43285D01*
Y43352D01*
Y43420D01*
Y43487D01*
Y43555D01*
Y43622D01*
Y43690D01*
Y43758D01*
Y43825D01*
Y43892D01*
Y43960D01*
Y44028D01*
Y44095D01*
Y44162D01*
Y44230D01*
Y44298D01*
Y44365D01*
Y44433D01*
Y44500D01*
Y44567D01*
Y44635D01*
Y44703D01*
Y44770D01*
Y44837D01*
Y44905D01*
Y44973D01*
Y45040D01*
Y45108D01*
Y45175D01*
Y45243D01*
Y45310D01*
Y45378D01*
X78686D01*
Y45445D01*
Y45513D01*
Y45580D01*
Y45648D01*
Y45715D01*
X78753D01*
Y45783D01*
Y45850D01*
Y45918D01*
X78821D01*
Y45985D01*
Y46053D01*
X78888D01*
Y46120D01*
X78956D01*
Y46188D01*
X79023D01*
Y46255D01*
Y46323D01*
X79159D01*
Y46390D01*
X79226D01*
Y46458D01*
X79294D01*
Y46525D01*
X79428D01*
Y46593D01*
X79631D01*
Y46660D01*
X79901D01*
Y46728D01*
X85099D01*
Y46660D01*
X85436D01*
Y46593D01*
X85571D01*
Y46525D01*
X85707D01*
Y46458D01*
X85774D01*
Y46390D01*
X85909D01*
Y46323D01*
X85976D01*
Y46255D01*
X86044D01*
Y46188D01*
X86112D01*
Y46120D01*
Y46053D01*
X86179D01*
Y45985D01*
Y45918D01*
X86247D01*
Y45850D01*
Y45783D01*
X86314D01*
Y45715D01*
Y45648D01*
Y45580D01*
Y45513D01*
X86382D01*
Y45445D01*
Y45378D01*
Y45310D01*
Y45243D01*
Y45175D01*
Y45108D01*
X86314D01*
Y45040D01*
Y44973D01*
Y44905D01*
Y44837D01*
X86247D01*
Y44770D01*
Y44703D01*
X86179D01*
Y44635D01*
Y44567D01*
X86112D01*
Y44500D01*
X86044D01*
Y44433D01*
X85976D01*
Y44365D01*
X85909D01*
Y44298D01*
X85842D01*
Y44230D01*
X85774D01*
Y44162D01*
X85639D01*
Y44095D01*
X85504D01*
Y44028D01*
X85369D01*
Y43960D01*
X81454D01*
Y43892D01*
X81386D01*
Y43825D01*
Y43758D01*
Y43690D01*
Y43622D01*
Y43555D01*
Y43487D01*
Y43420D01*
Y43352D01*
Y43285D01*
Y43217D01*
Y43150D01*
Y43082D01*
Y43015D01*
Y42947D01*
Y42880D01*
Y42812D01*
Y42745D01*
Y42677D01*
Y42610D01*
Y42542D01*
Y42475D01*
Y42407D01*
Y42340D01*
Y42272D01*
Y42205D01*
Y42137D01*
Y42070D01*
Y42002D01*
Y41935D01*
Y41867D01*
Y41800D01*
Y41732D01*
Y41665D01*
Y41597D01*
Y41530D01*
Y41462D01*
Y41395D01*
Y41327D01*
Y41260D01*
Y41192D01*
Y41125D01*
Y41057D01*
Y40990D01*
Y40922D01*
Y40855D01*
Y40787D01*
Y40720D01*
Y40652D01*
Y40585D01*
Y40517D01*
Y40450D01*
Y40382D01*
Y40315D01*
Y40247D01*
Y40180D01*
Y40112D01*
Y40045D01*
Y39977D01*
Y39910D01*
Y39842D01*
Y39775D01*
Y39707D01*
Y39640D01*
Y39572D01*
X81521D01*
Y39505D01*
X81656D01*
Y39437D01*
X81791D01*
Y39370D01*
X81994D01*
Y39302D01*
X82129D01*
Y39235D01*
X82331D01*
Y39167D01*
X82466D01*
Y39100D01*
X82669D01*
Y39032D01*
X82871D01*
Y38965D01*
X83141D01*
Y38897D01*
X83411D01*
Y38830D01*
X83681D01*
Y38762D01*
X84019D01*
Y38695D01*
X84491D01*
Y38627D01*
X85369D01*
Y38559D01*
X85909D01*
Y38627D01*
X86787D01*
Y38695D01*
X87259D01*
Y38762D01*
X87597D01*
Y38830D01*
X87867D01*
Y38897D01*
X88069D01*
Y38965D01*
X88272D01*
Y39032D01*
X88474D01*
Y39100D01*
X88677D01*
Y39167D01*
X88812D01*
Y39235D01*
X88947D01*
Y39302D01*
X89082D01*
Y39370D01*
X89217D01*
Y39437D01*
X89352D01*
Y39505D01*
X89487D01*
Y39572D01*
X89622D01*
Y39640D01*
X89757D01*
Y39707D01*
X89824D01*
Y39775D01*
X89959D01*
Y39842D01*
X90027D01*
Y39910D01*
X90162D01*
Y39977D01*
X90229D01*
Y40045D01*
X90297D01*
Y40112D01*
X90432D01*
Y40180D01*
X90499D01*
Y40247D01*
X90567D01*
Y40315D01*
X90634D01*
Y40382D01*
X90702D01*
Y40450D01*
X90769D01*
Y40517D01*
X90904D01*
Y40585D01*
X90972D01*
Y40652D01*
X91039D01*
Y40720D01*
X91107D01*
Y40787D01*
X91175D01*
Y40855D01*
X91242D01*
Y40922D01*
X91309D01*
Y40990D01*
Y41057D01*
X91377D01*
Y41125D01*
X91444D01*
Y41192D01*
X91512D01*
Y41260D01*
X91580D01*
Y41327D01*
X91647D01*
Y41395D01*
Y41462D01*
X91715D01*
Y41530D01*
X91782D01*
Y41597D01*
X91849D01*
Y41665D01*
Y41732D01*
X91917D01*
Y41800D01*
X91984D01*
Y41867D01*
Y41935D01*
X92052D01*
Y42002D01*
X92119D01*
Y42070D01*
Y42137D01*
X92187D01*
Y42205D01*
Y42272D01*
X92255D01*
Y42340D01*
X92322D01*
Y42407D01*
Y42475D01*
X92390D01*
Y42542D01*
Y42610D01*
X92457D01*
Y42677D01*
Y42745D01*
X92525D01*
Y42812D01*
Y42880D01*
X92592D01*
Y42947D01*
Y43015D01*
Y43082D01*
X92660D01*
Y43150D01*
Y43217D01*
X92727D01*
Y43285D01*
Y43352D01*
X92795D01*
Y43420D01*
Y43487D01*
Y43555D01*
X92862D01*
Y43622D01*
Y43690D01*
Y43758D01*
X92930D01*
Y43825D01*
Y43892D01*
Y43960D01*
Y44028D01*
X92997D01*
Y44095D01*
Y44162D01*
Y44230D01*
Y44298D01*
X93065D01*
Y44365D01*
Y44433D01*
Y44500D01*
Y44567D01*
X93132D01*
Y44635D01*
Y44703D01*
Y44770D01*
Y44837D01*
Y44905D01*
Y44973D01*
Y45040D01*
X93200D01*
Y45108D01*
Y45175D01*
Y45243D01*
Y45310D01*
Y45378D01*
Y45445D01*
Y45513D01*
Y45580D01*
Y45648D01*
Y45715D01*
Y45783D01*
Y45850D01*
Y45918D01*
Y45985D01*
X93267D01*
Y46053D01*
Y46120D01*
Y46188D01*
X93200D01*
Y46255D01*
Y46323D01*
Y46390D01*
Y46458D01*
Y46525D01*
Y46593D01*
Y46660D01*
Y46728D01*
Y46795D01*
Y46863D01*
Y46930D01*
Y46998D01*
Y47065D01*
Y47133D01*
X93132D01*
Y47200D01*
Y47268D01*
Y47335D01*
Y47403D01*
Y47470D01*
Y47538D01*
X93065D01*
Y47605D01*
Y47673D01*
Y47740D01*
Y47808D01*
Y47875D01*
X92997D01*
Y47943D01*
Y48010D01*
Y48078D01*
Y48145D01*
X92930D01*
Y48213D01*
Y48280D01*
Y48348D01*
Y48415D01*
X92862D01*
Y48483D01*
Y48550D01*
Y48618D01*
X92795D01*
Y48685D01*
Y48753D01*
X92727D01*
Y48820D01*
Y48888D01*
Y48955D01*
X92660D01*
Y49023D01*
Y49090D01*
X92592D01*
Y49158D01*
Y49225D01*
Y49293D01*
X92525D01*
Y49360D01*
Y49428D01*
X92457D01*
Y49495D01*
Y49563D01*
X92390D01*
Y49630D01*
Y49698D01*
X92322D01*
Y49765D01*
Y49833D01*
X92255D01*
Y49900D01*
X92187D01*
Y49968D01*
Y50036D01*
X92119D01*
Y50103D01*
Y50170D01*
X92052D01*
Y50238D01*
X91984D01*
Y50305D01*
Y50373D01*
X91917D01*
Y50441D01*
X91849D01*
Y50508D01*
Y50576D01*
X91782D01*
Y50643D01*
X91715D01*
Y50710D01*
X91647D01*
Y50778D01*
Y50845D01*
X91580D01*
Y50913D01*
X91512D01*
Y50981D01*
X91444D01*
Y51048D01*
X91377D01*
Y51116D01*
Y51183D01*
X91309D01*
Y51251D01*
X91242D01*
Y51318D01*
X91175D01*
Y51386D01*
X91107D01*
Y51453D01*
X91039D01*
Y51521D01*
X90972D01*
Y51588D01*
X90904D01*
Y51656D01*
X90837D01*
Y51723D01*
X90769D01*
Y51791D01*
X90702D01*
Y51858D01*
X90634D01*
Y51926D01*
X90499D01*
Y51993D01*
X90432D01*
Y52061D01*
X90364D01*
Y52128D01*
X90297D01*
Y52196D01*
X90162D01*
Y52263D01*
X90094D01*
Y52331D01*
X90027D01*
Y52398D01*
X89892D01*
Y52466D01*
X89824D01*
Y52533D01*
X89689D01*
Y52601D01*
X89622D01*
Y52668D01*
X89487D01*
Y52736D01*
X89352D01*
Y52803D01*
X89217D01*
Y52871D01*
X89149D01*
Y52938D01*
X89014D01*
Y53006D01*
X88879D01*
Y53073D01*
X88744D01*
Y53141D01*
X88542D01*
Y53208D01*
X88407D01*
Y53276D01*
X88204D01*
Y53343D01*
X88069D01*
Y53411D01*
X87867D01*
Y53478D01*
X87597D01*
Y53546D01*
X87327D01*
Y53613D01*
X86989D01*
Y53681D01*
X86382D01*
Y53748D01*
X85234D01*
Y53681D01*
X84694D01*
Y53613D01*
X84289D01*
Y53546D01*
X83951D01*
Y53478D01*
X83681D01*
Y53411D01*
X83479D01*
Y53343D01*
X83276D01*
Y53276D01*
X83074D01*
Y53208D01*
X82871D01*
Y53141D01*
X82669D01*
Y53073D01*
X82534D01*
Y53006D01*
X82331D01*
Y52938D01*
X82196D01*
Y52871D01*
X82061D01*
Y52803D01*
X81926D01*
Y52736D01*
X81791D01*
Y52668D01*
X81656D01*
Y52601D01*
X81521D01*
Y52533D01*
X81386D01*
Y52466D01*
X81251D01*
Y52398D01*
X81116D01*
Y52331D01*
X80981D01*
Y52263D01*
X80846D01*
Y52196D01*
X80779D01*
Y52128D01*
X80644D01*
Y52061D01*
X80509D01*
Y51993D01*
X80441D01*
Y51926D01*
X80306D01*
Y51858D01*
X80171D01*
Y51791D01*
X80036D01*
Y51723D01*
X79901D01*
Y51656D01*
X79496D01*
Y51588D01*
X79428D01*
Y51656D01*
X79091D01*
Y51723D01*
X78888D01*
Y51791D01*
X78753D01*
Y51858D01*
X78686D01*
Y51926D01*
X78551D01*
Y51993D01*
X78483D01*
Y52061D01*
X78416D01*
Y52128D01*
Y52196D01*
X78348D01*
Y52263D01*
X78281D01*
Y52331D01*
Y52398D01*
X78213D01*
Y52466D01*
Y52533D01*
X78146D01*
Y52601D01*
Y52668D01*
Y52736D01*
Y52803D01*
X78078D01*
Y52871D01*
Y52938D01*
Y53006D01*
Y53073D01*
Y53141D01*
X78146D01*
Y53208D01*
Y53276D01*
Y53343D01*
Y53411D01*
X78213D01*
Y53478D01*
Y53546D01*
Y53613D01*
X78281D01*
Y53681D01*
Y53748D01*
X78348D01*
Y53816D01*
X78416D01*
Y53883D01*
X78483D01*
Y53951D01*
X78551D01*
Y54018D01*
X78618D01*
Y54086D01*
X78686D01*
Y54153D01*
X78753D01*
Y54221D01*
X78888D01*
Y54288D01*
X79023D01*
Y54356D01*
X79091D01*
Y54423D01*
X79226D01*
Y54491D01*
X79361D01*
Y54558D01*
X79428D01*
Y54626D01*
X79563D01*
Y54693D01*
X79698D01*
Y54761D01*
X79834D01*
Y54828D01*
X79969D01*
Y54896D01*
X80103D01*
Y54963D01*
X80239D01*
Y55031D01*
X80374D01*
Y55098D01*
X80509D01*
Y55166D01*
X80644D01*
Y55233D01*
X80779D01*
Y55301D01*
X80914D01*
Y55368D01*
X81049D01*
Y55436D01*
X81184D01*
Y55503D01*
X81386D01*
Y55571D01*
X81521D01*
Y55638D01*
X81724D01*
Y55706D01*
X81859D01*
Y55773D01*
X82061D01*
Y55841D01*
X82264D01*
Y55909D01*
X82466D01*
Y55976D01*
X82669D01*
Y56043D01*
X82939D01*
Y56111D01*
X83141D01*
Y56178D01*
X83411D01*
Y56246D01*
X83749D01*
Y56314D01*
X84086D01*
Y56381D01*
X84491D01*
Y56449D01*
X85167D01*
Y56516D01*
X86449D01*
Y56449D01*
D02*
G37*
G36*
X58232Y56516D02*
X58907D01*
Y56449D01*
X59379D01*
Y56381D01*
X59717D01*
Y56314D01*
X60054D01*
Y56246D01*
X60324D01*
Y56178D01*
X60594D01*
Y56111D01*
X60797D01*
Y56043D01*
X61000D01*
Y55976D01*
X61202D01*
Y55909D01*
X61405D01*
Y55841D01*
X61607D01*
Y55773D01*
X61810D01*
Y55706D01*
X61945D01*
Y55638D01*
X62147D01*
Y55571D01*
X62282D01*
Y55503D01*
X62485D01*
Y55436D01*
X62620D01*
Y55368D01*
X62755D01*
Y55301D01*
X62890D01*
Y55233D01*
X63025D01*
Y55166D01*
X63160D01*
Y55098D01*
X63295D01*
Y55031D01*
X63430D01*
Y54963D01*
X63565D01*
Y54896D01*
X63700D01*
Y54828D01*
X63835D01*
Y54761D01*
X63902D01*
Y54693D01*
X64037D01*
Y54626D01*
X64172D01*
Y54558D01*
X64240D01*
Y54491D01*
X64375D01*
Y54423D01*
X64510D01*
Y54356D01*
X64577D01*
Y54288D01*
X64712D01*
Y54221D01*
X64780D01*
Y54153D01*
X64915D01*
Y54086D01*
X64982D01*
Y54018D01*
X65117D01*
Y53951D01*
X65185D01*
Y53883D01*
X65320D01*
Y53816D01*
X65387D01*
Y53748D01*
X65522D01*
Y53681D01*
X65590D01*
Y53613D01*
X65657D01*
Y53546D01*
X65792D01*
Y53478D01*
X65860D01*
Y53411D01*
X65927D01*
Y53343D01*
X66062D01*
Y53276D01*
X66130D01*
Y53208D01*
X66197D01*
Y53141D01*
X66332D01*
Y53073D01*
X66400D01*
Y53006D01*
X66467D01*
Y52938D01*
X66535D01*
Y52871D01*
X66670D01*
Y52803D01*
X66738D01*
Y52736D01*
X66805D01*
Y52668D01*
X66873D01*
Y52601D01*
X67007D01*
Y52533D01*
X67075D01*
Y52466D01*
X67142D01*
Y52398D01*
X67210D01*
Y52331D01*
X67277D01*
Y52263D01*
X67345D01*
Y52196D01*
X67480D01*
Y52128D01*
X67548D01*
Y52061D01*
X67615D01*
Y51993D01*
X67682D01*
Y51926D01*
X67750D01*
Y51858D01*
X67817D01*
Y51791D01*
X67885D01*
Y51723D01*
X68020D01*
Y51656D01*
X68088D01*
Y51588D01*
X68155D01*
Y51521D01*
X68223D01*
Y51453D01*
X68290D01*
Y51386D01*
X68358D01*
Y51318D01*
X68425D01*
Y51251D01*
X68493D01*
Y51183D01*
X68560D01*
Y51116D01*
X68628D01*
Y51048D01*
X68695D01*
Y50981D01*
X68830D01*
Y50913D01*
X68898D01*
Y50845D01*
X68965D01*
Y50778D01*
X69033D01*
Y50710D01*
X69100D01*
Y50643D01*
X69168D01*
Y50576D01*
X69235D01*
Y50508D01*
X69303D01*
Y50441D01*
X69370D01*
Y50373D01*
X69438D01*
Y50305D01*
X69505D01*
Y50238D01*
X69573D01*
Y50170D01*
X69640D01*
Y50103D01*
X69708D01*
Y50036D01*
X69775D01*
Y49968D01*
X69843D01*
Y49900D01*
X69910D01*
Y49833D01*
X69978D01*
Y49765D01*
X70045D01*
Y49698D01*
X70113D01*
Y49630D01*
X70180D01*
Y49563D01*
X70248D01*
Y49495D01*
X70315D01*
Y49428D01*
X70383D01*
Y49360D01*
X70450D01*
Y49293D01*
X70518D01*
Y49225D01*
X70585D01*
Y49158D01*
X70653D01*
Y49090D01*
X70720D01*
Y49023D01*
X70788D01*
Y48955D01*
X70855D01*
Y48888D01*
X70923D01*
Y48820D01*
X70990D01*
Y48753D01*
X71058D01*
Y48685D01*
X71125D01*
Y48618D01*
X71193D01*
Y48550D01*
X71260D01*
Y48483D01*
X71328D01*
Y48415D01*
X71395D01*
Y48348D01*
X71463D01*
Y48280D01*
X71530D01*
Y48213D01*
X71665D01*
Y48280D01*
X71733D01*
Y48348D01*
X71800D01*
Y48415D01*
X71868D01*
Y48483D01*
X71935D01*
Y48550D01*
X72003D01*
Y48618D01*
X72070D01*
Y48685D01*
X72138D01*
Y48753D01*
X72205D01*
Y48820D01*
X72273D01*
Y48888D01*
X72340D01*
Y48955D01*
X72408D01*
Y49023D01*
X72475D01*
Y49090D01*
X72543D01*
Y49158D01*
X72610D01*
Y49225D01*
X72746D01*
Y49293D01*
X72813D01*
Y49360D01*
X72881D01*
Y49428D01*
X72948D01*
Y49495D01*
X73015D01*
Y49563D01*
X73083D01*
Y49630D01*
X73150D01*
Y49698D01*
X73218D01*
Y49765D01*
X73286D01*
Y49833D01*
X73353D01*
Y49900D01*
X73421D01*
Y49968D01*
X73488D01*
Y50036D01*
X73623D01*
Y50103D01*
X73690D01*
Y50170D01*
X73758D01*
Y50238D01*
X73826D01*
Y50305D01*
X73893D01*
Y50373D01*
X73961D01*
Y50441D01*
X74028D01*
Y50508D01*
X74096D01*
Y50576D01*
X74163D01*
Y50643D01*
X74231D01*
Y50710D01*
X74366D01*
Y50778D01*
X74433D01*
Y50845D01*
X74501D01*
Y50913D01*
X74568D01*
Y50981D01*
X74636D01*
Y51048D01*
X74703D01*
Y51116D01*
X74771D01*
Y51183D01*
X74838D01*
Y51251D01*
X74973D01*
Y51318D01*
X75041D01*
Y51386D01*
X75108D01*
Y51453D01*
X75176D01*
Y51521D01*
X75243D01*
Y51588D01*
X75311D01*
Y51656D01*
X75378D01*
Y51723D01*
X75513D01*
Y51791D01*
X75581D01*
Y51858D01*
X75648D01*
Y51926D01*
X75716D01*
Y51993D01*
X75783D01*
Y52061D01*
X75851D01*
Y52128D01*
X75986D01*
Y52196D01*
X76053D01*
Y52263D01*
X76121D01*
Y52331D01*
X76188D01*
Y52398D01*
X76256D01*
Y52466D01*
X76391D01*
Y52533D01*
X76458D01*
Y52601D01*
X76526D01*
Y52668D01*
X76593D01*
Y52736D01*
X76728D01*
Y52803D01*
X76796D01*
Y52871D01*
X76863D01*
Y52938D01*
X76931D01*
Y53006D01*
X77066D01*
Y53073D01*
X77133D01*
Y53141D01*
X77201D01*
Y53208D01*
X77336D01*
Y53276D01*
X77403D01*
Y53343D01*
X77471D01*
Y53411D01*
X77606D01*
Y53478D01*
X77673D01*
Y53546D01*
X77741D01*
Y53613D01*
X77876D01*
Y53681D01*
X77943D01*
Y53748D01*
X78011D01*
Y53681D01*
Y53613D01*
X77943D01*
Y53546D01*
Y53478D01*
Y53411D01*
X77876D01*
Y53343D01*
Y53276D01*
Y53208D01*
Y53141D01*
Y53073D01*
Y53006D01*
Y52938D01*
Y52871D01*
Y52803D01*
Y52736D01*
Y52668D01*
Y52601D01*
X77943D01*
Y52533D01*
Y52466D01*
Y52398D01*
X78011D01*
Y52331D01*
Y52263D01*
X78078D01*
Y52196D01*
Y52128D01*
X78146D01*
Y52061D01*
Y51993D01*
X78213D01*
Y51926D01*
X78281D01*
Y51858D01*
X78348D01*
Y51791D01*
X78416D01*
Y51723D01*
X78483D01*
Y51656D01*
X78618D01*
Y51588D01*
X78753D01*
Y51521D01*
X78888D01*
Y51453D01*
X79091D01*
Y51386D01*
X79428D01*
Y51318D01*
X79361D01*
Y51251D01*
X79226D01*
Y51183D01*
X79159D01*
Y51116D01*
X79091D01*
Y51048D01*
X78956D01*
Y50981D01*
X78888D01*
Y50913D01*
X78821D01*
Y50845D01*
X78686D01*
Y50778D01*
X78618D01*
Y50710D01*
X78551D01*
Y50643D01*
X78483D01*
Y50576D01*
X78348D01*
Y50508D01*
X78281D01*
Y50441D01*
X78213D01*
Y50373D01*
X78146D01*
Y50305D01*
X78011D01*
Y50238D01*
X77943D01*
Y50170D01*
X77876D01*
Y50103D01*
X77808D01*
Y50036D01*
X77741D01*
Y49968D01*
X77673D01*
Y49900D01*
X77538D01*
Y49833D01*
X77471D01*
Y49765D01*
X77403D01*
Y49698D01*
X77336D01*
Y49630D01*
X77268D01*
Y49563D01*
X77201D01*
Y49495D01*
X77066D01*
Y49428D01*
X76998D01*
Y49360D01*
X76931D01*
Y49293D01*
X76863D01*
Y49225D01*
X76796D01*
Y49158D01*
X76728D01*
Y49090D01*
X76661D01*
Y49023D01*
X76526D01*
Y48955D01*
X76458D01*
Y48888D01*
X76391D01*
Y48820D01*
X76323D01*
Y48753D01*
X76256D01*
Y48685D01*
X76188D01*
Y48618D01*
X76121D01*
Y48550D01*
X76053D01*
Y48483D01*
X75918D01*
Y48415D01*
X75851D01*
Y48348D01*
X75783D01*
Y48280D01*
X75716D01*
Y48213D01*
X75648D01*
Y48145D01*
X75581D01*
Y48078D01*
X75513D01*
Y48010D01*
X75446D01*
Y47943D01*
X75378D01*
Y47875D01*
X75311D01*
Y47808D01*
X75243D01*
Y47740D01*
X75108D01*
Y47673D01*
X75041D01*
Y47605D01*
X74973D01*
Y47538D01*
X74906D01*
Y47470D01*
X74838D01*
Y47403D01*
X74771D01*
Y47335D01*
X74703D01*
Y47268D01*
X74636D01*
Y47200D01*
X74568D01*
Y47133D01*
X74501D01*
Y47065D01*
X74433D01*
Y46998D01*
X74366D01*
Y46930D01*
X74298D01*
Y46863D01*
X74163D01*
Y46795D01*
X74096D01*
Y46728D01*
X74028D01*
Y46660D01*
X73961D01*
Y46593D01*
X73893D01*
Y46525D01*
X73826D01*
Y46458D01*
X73758D01*
Y46390D01*
X73690D01*
Y46323D01*
X73623D01*
Y46255D01*
X73555D01*
Y46188D01*
Y46120D01*
Y46053D01*
X73623D01*
Y45985D01*
X73690D01*
Y45918D01*
X73758D01*
Y45850D01*
X73826D01*
Y45783D01*
X73893D01*
Y45715D01*
X73961D01*
Y45648D01*
X74028D01*
Y45580D01*
X74096D01*
Y45513D01*
X74163D01*
Y45445D01*
X74231D01*
Y45378D01*
X74298D01*
Y45310D01*
X74366D01*
Y45243D01*
X74433D01*
Y45175D01*
X74501D01*
Y45108D01*
X74568D01*
Y45040D01*
X74636D01*
Y44973D01*
X74703D01*
Y44905D01*
X74771D01*
Y44837D01*
X74838D01*
Y44770D01*
X74906D01*
Y44703D01*
X74973D01*
Y44635D01*
X75041D01*
Y44567D01*
X75108D01*
Y44500D01*
X75176D01*
Y44433D01*
X75243D01*
Y44365D01*
X75311D01*
Y44298D01*
X75378D01*
Y44230D01*
X75446D01*
Y44162D01*
X75513D01*
Y44095D01*
X75581D01*
Y44028D01*
X75648D01*
Y43960D01*
X75716D01*
Y43892D01*
X75783D01*
Y43825D01*
X75851D01*
Y43758D01*
X75918D01*
Y43690D01*
X75986D01*
Y43622D01*
X76053D01*
Y43555D01*
X76121D01*
Y43487D01*
X76188D01*
Y43420D01*
X76256D01*
Y43352D01*
X76323D01*
Y43285D01*
X76391D01*
Y43217D01*
X76458D01*
Y43150D01*
X76526D01*
Y43082D01*
X76593D01*
Y43015D01*
X76661D01*
Y42947D01*
X76728D01*
Y42880D01*
X76796D01*
Y42812D01*
X76931D01*
Y42745D01*
X76998D01*
Y42677D01*
X77066D01*
Y42610D01*
X77133D01*
Y42542D01*
X77201D01*
Y42475D01*
X77268D01*
Y42407D01*
X77336D01*
Y42340D01*
X77403D01*
Y42272D01*
X77471D01*
Y42205D01*
X77606D01*
Y42137D01*
X77673D01*
Y42070D01*
X77741D01*
Y42002D01*
X77808D01*
Y41935D01*
X77876D01*
Y41867D01*
X77943D01*
Y41800D01*
X78078D01*
Y41732D01*
X78146D01*
Y41665D01*
X78213D01*
Y41597D01*
X78281D01*
Y41530D01*
X78416D01*
Y41462D01*
Y41395D01*
Y41327D01*
Y41260D01*
Y41192D01*
Y41125D01*
Y41057D01*
Y40990D01*
Y40922D01*
Y40855D01*
Y40787D01*
Y40720D01*
Y40652D01*
Y40585D01*
Y40517D01*
Y40450D01*
Y40382D01*
Y40315D01*
Y40247D01*
Y40180D01*
Y40112D01*
Y40045D01*
Y39977D01*
Y39910D01*
Y39842D01*
Y39775D01*
Y39707D01*
Y39640D01*
Y39572D01*
Y39505D01*
Y39437D01*
Y39370D01*
Y39302D01*
Y39235D01*
Y39167D01*
Y39100D01*
Y39032D01*
Y38965D01*
Y38897D01*
Y38830D01*
Y38762D01*
Y38695D01*
Y38627D01*
Y38559D01*
Y38492D01*
Y38425D01*
Y38357D01*
X78483D01*
Y38289D01*
Y38222D01*
Y38155D01*
X78551D01*
Y38087D01*
Y38019D01*
X78483D01*
Y38087D01*
X78348D01*
Y38155D01*
X78213D01*
Y38222D01*
X78146D01*
Y38289D01*
X78011D01*
Y38357D01*
X77943D01*
Y38425D01*
X77808D01*
Y38492D01*
X77741D01*
Y38559D01*
X77606D01*
Y38627D01*
X77538D01*
Y38695D01*
X77403D01*
Y38762D01*
X77336D01*
Y38830D01*
X77268D01*
Y38897D01*
X77133D01*
Y38965D01*
X77066D01*
Y39032D01*
X76998D01*
Y39100D01*
X76863D01*
Y39167D01*
X76796D01*
Y39235D01*
X76728D01*
Y39302D01*
X76661D01*
Y39370D01*
X76526D01*
Y39437D01*
X76458D01*
Y39505D01*
X76391D01*
Y39572D01*
X76323D01*
Y39640D01*
X76188D01*
Y39707D01*
X76121D01*
Y39775D01*
X76053D01*
Y39842D01*
X75986D01*
Y39910D01*
X75918D01*
Y39977D01*
X75851D01*
Y40045D01*
X75716D01*
Y40112D01*
X75648D01*
Y40180D01*
X75581D01*
Y40247D01*
X75513D01*
Y40315D01*
X75446D01*
Y40382D01*
X75378D01*
Y40450D01*
X75311D01*
Y40517D01*
X75243D01*
Y40585D01*
X75108D01*
Y40652D01*
X75041D01*
Y40720D01*
X74973D01*
Y40787D01*
X74906D01*
Y40855D01*
X74838D01*
Y40922D01*
X74771D01*
Y40990D01*
X74703D01*
Y41057D01*
X74636D01*
Y41125D01*
X74568D01*
Y41192D01*
X74501D01*
Y41260D01*
X74433D01*
Y41327D01*
X74366D01*
Y41395D01*
X74298D01*
Y41462D01*
X74231D01*
Y41530D01*
X74096D01*
Y41597D01*
X74028D01*
Y41665D01*
X73961D01*
Y41732D01*
X73893D01*
Y41800D01*
X73826D01*
Y41867D01*
X73758D01*
Y41935D01*
X73690D01*
Y42002D01*
X73623D01*
Y42070D01*
X73555D01*
Y42137D01*
X73488D01*
Y42205D01*
X73421D01*
Y42272D01*
X73353D01*
Y42340D01*
X73286D01*
Y42407D01*
X73218D01*
Y42475D01*
X73150D01*
Y42542D01*
X73083D01*
Y42610D01*
X73015D01*
Y42677D01*
X72948D01*
Y42745D01*
X72881D01*
Y42812D01*
X72813D01*
Y42880D01*
X72746D01*
Y42947D01*
X72678D01*
Y43015D01*
X72610D01*
Y43082D01*
X72543D01*
Y43150D01*
X72475D01*
Y43217D01*
X72408D01*
Y43285D01*
Y43352D01*
X72340D01*
Y43420D01*
X72273D01*
Y43487D01*
X72205D01*
Y43555D01*
X72138D01*
Y43622D01*
X72070D01*
Y43690D01*
X72003D01*
Y43758D01*
X71935D01*
Y43825D01*
X71868D01*
Y43892D01*
X71800D01*
Y43960D01*
X71733D01*
Y44028D01*
X71665D01*
Y44095D01*
X71598D01*
Y44162D01*
X71530D01*
Y44230D01*
X71463D01*
Y44162D01*
X71395D01*
Y44095D01*
X71328D01*
Y44028D01*
X71193D01*
Y43960D01*
X71125D01*
Y43892D01*
X71058D01*
Y43825D01*
X70990D01*
Y43758D01*
X70923D01*
Y43690D01*
X70855D01*
Y43622D01*
X70788D01*
Y43555D01*
X70720D01*
Y43487D01*
X70653D01*
Y43420D01*
X70585D01*
Y43352D01*
X70518D01*
Y43285D01*
X70450D01*
Y43217D01*
X70383D01*
Y43150D01*
X70315D01*
Y43082D01*
X70248D01*
Y43015D01*
X70180D01*
Y42947D01*
X70113D01*
Y42880D01*
X70045D01*
Y42812D01*
X69978D01*
Y42745D01*
X69910D01*
Y42677D01*
X69843D01*
Y42610D01*
X69775D01*
Y42542D01*
X69708D01*
Y42475D01*
X69640D01*
Y42407D01*
X69573D01*
Y42340D01*
X69505D01*
Y42272D01*
X69438D01*
Y42205D01*
X69303D01*
Y42137D01*
X69235D01*
Y42070D01*
X69168D01*
Y42002D01*
X69100D01*
Y41935D01*
X69033D01*
Y41867D01*
X68965D01*
Y41800D01*
X68898D01*
Y41732D01*
X68830D01*
Y41665D01*
X68763D01*
Y41597D01*
X68695D01*
Y41530D01*
X68628D01*
Y41462D01*
X68560D01*
Y41395D01*
X68493D01*
Y41327D01*
X68425D01*
Y41260D01*
X68290D01*
Y41192D01*
X68223D01*
Y41125D01*
X68155D01*
Y41057D01*
X68088D01*
Y40990D01*
X68020D01*
Y40922D01*
X67885D01*
Y40855D01*
X67817D01*
Y40787D01*
X67750D01*
Y40720D01*
X67682D01*
Y40652D01*
X67615D01*
Y40585D01*
X67480D01*
Y40517D01*
X67413D01*
Y40450D01*
X67345D01*
Y40382D01*
X67277D01*
Y40315D01*
X67142D01*
Y40247D01*
X67075D01*
Y40180D01*
X67007D01*
Y40112D01*
X66940D01*
Y40045D01*
X66805D01*
Y39977D01*
X66738D01*
Y39910D01*
X66670D01*
Y39842D01*
X66535D01*
Y39775D01*
X66467D01*
Y39707D01*
X66400D01*
Y39640D01*
X66332D01*
Y39572D01*
X66197D01*
Y39505D01*
X66130D01*
Y39437D01*
X66062D01*
Y39370D01*
X65927D01*
Y39302D01*
X65860D01*
Y39235D01*
X65725D01*
Y39167D01*
X65657D01*
Y39100D01*
X65590D01*
Y39032D01*
X65455D01*
Y38965D01*
X65387D01*
Y38897D01*
X65252D01*
Y38830D01*
X65185D01*
Y38762D01*
X65050D01*
Y38695D01*
X64982D01*
Y38627D01*
X64847D01*
Y38559D01*
X64780D01*
Y38492D01*
X64645D01*
Y38425D01*
X64577D01*
Y38357D01*
X64442D01*
Y38289D01*
X64375D01*
Y38222D01*
X64240D01*
Y38155D01*
X64172D01*
Y38087D01*
X64037D01*
Y38019D01*
X63902D01*
Y37952D01*
X63835D01*
Y37885D01*
X63700D01*
Y37817D01*
X63565D01*
Y37749D01*
X63430D01*
Y37682D01*
X63362D01*
Y37615D01*
X63227D01*
Y37547D01*
X63092D01*
Y37479D01*
X62957D01*
Y37412D01*
X62822D01*
Y37344D01*
X62687D01*
Y37277D01*
X62552D01*
Y37209D01*
X62417D01*
Y37142D01*
X62282D01*
Y37074D01*
X62147D01*
Y37007D01*
X61945D01*
Y36939D01*
X61810D01*
Y36872D01*
X61674D01*
Y36804D01*
X61472D01*
Y36737D01*
X61337D01*
Y36669D01*
X61134D01*
Y36602D01*
X60932D01*
Y36534D01*
X60729D01*
Y36467D01*
X60527D01*
Y36399D01*
X60324D01*
Y36332D01*
X60122D01*
Y36264D01*
X59852D01*
Y36197D01*
X59582D01*
Y36129D01*
X59244D01*
Y36062D01*
X58907D01*
Y35994D01*
X58434D01*
Y35927D01*
X57557D01*
Y35859D01*
X56882D01*
Y35927D01*
X56072D01*
Y35994D01*
X55599D01*
Y36062D01*
X55261D01*
Y36129D01*
X54924D01*
Y36197D01*
X54654D01*
Y36264D01*
X54452D01*
Y36332D01*
X54249D01*
Y36399D01*
X54046D01*
Y36467D01*
X53844D01*
Y36534D01*
X53641D01*
Y36602D01*
X53506D01*
Y36669D01*
X53371D01*
Y36737D01*
X53169D01*
Y36804D01*
X53034D01*
Y36872D01*
X52899D01*
Y36939D01*
X52764D01*
Y37007D01*
X52629D01*
Y37074D01*
X52494D01*
Y37142D01*
X52359D01*
Y37209D01*
X52291D01*
Y37277D01*
X52156D01*
Y37344D01*
X52021D01*
Y37412D01*
X51954D01*
Y37479D01*
X51819D01*
Y37547D01*
X51751D01*
Y37615D01*
X51616D01*
Y37682D01*
X51549D01*
Y37749D01*
X51414D01*
Y37817D01*
X51346D01*
Y37885D01*
X51211D01*
Y37952D01*
X51144D01*
Y38019D01*
X51076D01*
Y38087D01*
X51009D01*
Y38155D01*
X50874D01*
Y38222D01*
X50806D01*
Y38289D01*
X50739D01*
Y38357D01*
X50671D01*
Y38425D01*
X50604D01*
Y38492D01*
X50469D01*
Y38559D01*
X50401D01*
Y38627D01*
X50334D01*
Y38695D01*
X50266D01*
Y38762D01*
X50199D01*
Y38830D01*
X50131D01*
Y38897D01*
X50064D01*
Y38965D01*
X49996D01*
Y39032D01*
X49929D01*
Y39100D01*
X49861D01*
Y39167D01*
X49794D01*
Y39235D01*
X49726D01*
Y39302D01*
X49659D01*
Y39370D01*
Y39437D01*
X49591D01*
Y39505D01*
X49524D01*
Y39572D01*
X49456D01*
Y39640D01*
X49389D01*
Y39707D01*
X49321D01*
Y39775D01*
Y39842D01*
X49253D01*
Y39910D01*
X49186D01*
Y39977D01*
X49119D01*
Y40045D01*
X49051D01*
Y40112D01*
Y40180D01*
X48983D01*
Y40247D01*
X48916D01*
Y40315D01*
Y40382D01*
X48849D01*
Y40450D01*
X48781D01*
Y40517D01*
Y40585D01*
X48713D01*
Y40652D01*
X48646D01*
Y40720D01*
Y40787D01*
X48579D01*
Y40855D01*
X48511D01*
Y40922D01*
Y40990D01*
X48443D01*
Y41057D01*
Y41125D01*
X48376D01*
Y41192D01*
X48308D01*
Y41260D01*
Y41327D01*
X48241D01*
Y41395D01*
Y41462D01*
X48173D01*
Y41530D01*
Y41597D01*
X48106D01*
Y41665D01*
Y41732D01*
X48038D01*
Y41800D01*
Y41867D01*
X47971D01*
Y41935D01*
Y42002D01*
X47903D01*
Y42070D01*
Y42137D01*
Y42205D01*
X47836D01*
Y42272D01*
Y42340D01*
X47768D01*
Y42407D01*
Y42475D01*
Y42542D01*
X47701D01*
Y42610D01*
Y42677D01*
Y42745D01*
X47633D01*
Y42812D01*
Y42880D01*
X47566D01*
Y42947D01*
Y43015D01*
Y43082D01*
X47498D01*
Y43150D01*
Y43217D01*
Y43285D01*
Y43352D01*
X47431D01*
Y43420D01*
Y43487D01*
Y43555D01*
X47363D01*
Y43622D01*
Y43690D01*
Y43758D01*
Y43825D01*
X47296D01*
Y43892D01*
Y43960D01*
Y44028D01*
Y44095D01*
X47228D01*
Y44162D01*
Y44230D01*
Y44298D01*
Y44365D01*
Y44433D01*
Y44500D01*
X47161D01*
Y44567D01*
Y44635D01*
Y44703D01*
Y44770D01*
Y44837D01*
Y44905D01*
X47093D01*
Y44973D01*
Y45040D01*
Y45108D01*
Y45175D01*
Y45243D01*
Y45310D01*
Y45378D01*
Y45445D01*
Y45513D01*
X47026D01*
Y45580D01*
Y45648D01*
Y45715D01*
Y45783D01*
Y45850D01*
Y45918D01*
Y45985D01*
Y46053D01*
Y46120D01*
Y46188D01*
Y46255D01*
Y46323D01*
Y46390D01*
Y46458D01*
Y46525D01*
Y46593D01*
Y46660D01*
Y46728D01*
Y46795D01*
Y46863D01*
Y46930D01*
Y46998D01*
Y47065D01*
Y47133D01*
X47093D01*
Y47200D01*
Y47268D01*
Y47335D01*
Y47403D01*
Y47470D01*
Y47538D01*
Y47605D01*
Y47673D01*
Y47740D01*
X47161D01*
Y47808D01*
Y47875D01*
Y47943D01*
Y48010D01*
Y48078D01*
Y48145D01*
X47228D01*
Y48213D01*
Y48280D01*
Y48348D01*
Y48415D01*
Y48483D01*
X47296D01*
Y48550D01*
Y48618D01*
Y48685D01*
Y48753D01*
Y48820D01*
X47363D01*
Y48888D01*
Y48955D01*
Y49023D01*
Y49090D01*
X47431D01*
Y49158D01*
Y49225D01*
Y49293D01*
X47498D01*
Y49360D01*
Y49428D01*
Y49495D01*
X47566D01*
Y49563D01*
Y49630D01*
Y49698D01*
X47633D01*
Y49765D01*
Y49833D01*
Y49900D01*
X47701D01*
Y49968D01*
Y50036D01*
Y50103D01*
X47768D01*
Y50170D01*
Y50238D01*
X47836D01*
Y50305D01*
Y50373D01*
Y50441D01*
X47903D01*
Y50508D01*
Y50576D01*
X47971D01*
Y50643D01*
Y50710D01*
X48038D01*
Y50778D01*
Y50845D01*
X48106D01*
Y50913D01*
Y50981D01*
Y51048D01*
X48173D01*
Y51116D01*
X48241D01*
Y51183D01*
Y51251D01*
X48308D01*
Y51318D01*
Y51386D01*
X48376D01*
Y51453D01*
Y51521D01*
X48443D01*
Y51588D01*
Y51656D01*
X48511D01*
Y51723D01*
X48579D01*
Y51791D01*
Y51858D01*
X48646D01*
Y51926D01*
X48713D01*
Y51993D01*
Y52061D01*
X48781D01*
Y52128D01*
Y52196D01*
X48849D01*
Y52263D01*
X48916D01*
Y52331D01*
X48983D01*
Y52398D01*
Y52466D01*
X49051D01*
Y52533D01*
X49119D01*
Y52601D01*
X49186D01*
Y52668D01*
Y52736D01*
X49253D01*
Y52803D01*
X49321D01*
Y52871D01*
X49389D01*
Y52938D01*
X49456D01*
Y53006D01*
Y53073D01*
X49524D01*
Y53141D01*
X49591D01*
Y53208D01*
X49659D01*
Y53276D01*
X49726D01*
Y53343D01*
X49794D01*
Y53411D01*
X49861D01*
Y53478D01*
X49929D01*
Y53546D01*
X49996D01*
Y53613D01*
X50064D01*
Y53681D01*
X50131D01*
Y53748D01*
X50199D01*
Y53816D01*
X50266D01*
Y53883D01*
X50334D01*
Y53951D01*
X50401D01*
Y54018D01*
X50469D01*
Y54086D01*
X50536D01*
Y54153D01*
X50604D01*
Y54221D01*
X50739D01*
Y54288D01*
X50806D01*
Y54356D01*
X50874D01*
Y54423D01*
X50941D01*
Y54491D01*
X51076D01*
Y54558D01*
X51144D01*
Y54626D01*
X51211D01*
Y54693D01*
X51346D01*
Y54761D01*
X51414D01*
Y54828D01*
X51549D01*
Y54896D01*
X51616D01*
Y54963D01*
X51751D01*
Y55031D01*
X51819D01*
Y55098D01*
X51954D01*
Y55166D01*
X52089D01*
Y55233D01*
X52156D01*
Y55301D01*
X52291D01*
Y55368D01*
X52426D01*
Y55436D01*
X52561D01*
Y55503D01*
X52696D01*
Y55571D01*
X52831D01*
Y55638D01*
X52966D01*
Y55706D01*
X53169D01*
Y55773D01*
X53304D01*
Y55841D01*
X53506D01*
Y55909D01*
X53641D01*
Y55976D01*
X53844D01*
Y56043D01*
X54046D01*
Y56111D01*
X54249D01*
Y56178D01*
X54519D01*
Y56246D01*
X54789D01*
Y56314D01*
X55059D01*
Y56381D01*
X55464D01*
Y56449D01*
X55869D01*
Y56516D01*
X56544D01*
Y56583D01*
X58232D01*
Y56516D01*
D02*
G37*
G36*
X61380Y33869D02*
X61313D01*
Y33801D01*
X61245D01*
Y33734D01*
Y33666D01*
X61178D01*
Y33599D01*
X61110D01*
Y33531D01*
Y33464D01*
X61043D01*
Y33396D01*
Y33329D01*
X60975D01*
Y33261D01*
X60908D01*
Y33194D01*
Y33126D01*
X60840D01*
Y33059D01*
Y32991D01*
X60773D01*
Y32924D01*
X60705D01*
Y32856D01*
Y32789D01*
X60638D01*
Y32721D01*
Y32654D01*
X60570D01*
Y32586D01*
X60503D01*
Y32519D01*
Y32451D01*
X60435D01*
Y32384D01*
X60368D01*
Y32316D01*
Y32249D01*
X60300D01*
Y32181D01*
Y32114D01*
X60233D01*
Y32046D01*
X60165D01*
Y31979D01*
Y31911D01*
X60098D01*
Y31844D01*
Y31776D01*
X60030D01*
Y31709D01*
X59963D01*
Y31641D01*
Y31574D01*
X59895D01*
Y31506D01*
Y31439D01*
X59828D01*
Y31371D01*
X59760D01*
Y31304D01*
Y31236D01*
Y31169D01*
Y31101D01*
Y31034D01*
Y30966D01*
Y30899D01*
Y30831D01*
Y30764D01*
Y30696D01*
Y30629D01*
Y30561D01*
Y30494D01*
Y30426D01*
Y30359D01*
Y30291D01*
Y30224D01*
Y30156D01*
Y30089D01*
Y30021D01*
Y29954D01*
X59422D01*
Y30021D01*
Y30089D01*
Y30156D01*
Y30224D01*
Y30291D01*
Y30359D01*
Y30426D01*
Y30494D01*
Y30561D01*
Y30629D01*
Y30696D01*
Y30764D01*
Y30831D01*
Y30899D01*
Y30966D01*
Y31034D01*
Y31101D01*
Y31169D01*
Y31236D01*
Y31304D01*
X59355D01*
Y31371D01*
Y31439D01*
X59288D01*
Y31506D01*
Y31574D01*
X59220D01*
Y31641D01*
X59153D01*
Y31709D01*
Y31776D01*
X59085D01*
Y31844D01*
Y31911D01*
X59017D01*
Y31979D01*
X58950D01*
Y32046D01*
Y32114D01*
X58882D01*
Y32181D01*
X58815D01*
Y32249D01*
Y32316D01*
X58748D01*
Y32384D01*
Y32451D01*
X58680D01*
Y32519D01*
X58613D01*
Y32586D01*
Y32654D01*
X58545D01*
Y32721D01*
Y32789D01*
X58477D01*
Y32856D01*
X58410D01*
Y32924D01*
Y32991D01*
X58342D01*
Y33059D01*
Y33126D01*
X58275D01*
Y33194D01*
X58207D01*
Y33261D01*
Y33329D01*
X58140D01*
Y33396D01*
X58073D01*
Y33464D01*
Y33531D01*
X58005D01*
Y33599D01*
Y33666D01*
X57937D01*
Y33734D01*
X57870D01*
Y33801D01*
Y33869D01*
X57802D01*
Y33936D01*
X58207D01*
Y33869D01*
Y33801D01*
X58275D01*
Y33734D01*
X58342D01*
Y33666D01*
Y33599D01*
X58410D01*
Y33531D01*
X58477D01*
Y33464D01*
Y33396D01*
X58545D01*
Y33329D01*
Y33261D01*
X58613D01*
Y33194D01*
X58680D01*
Y33126D01*
Y33059D01*
X58748D01*
Y32991D01*
Y32924D01*
X58815D01*
Y32856D01*
X58882D01*
Y32789D01*
Y32721D01*
X58950D01*
Y32654D01*
Y32586D01*
X59017D01*
Y32519D01*
X59085D01*
Y32451D01*
Y32384D01*
X59153D01*
Y32316D01*
Y32249D01*
X59220D01*
Y32181D01*
X59288D01*
Y32114D01*
Y32046D01*
X59355D01*
Y31979D01*
X59422D01*
Y31911D01*
Y31844D01*
X59490D01*
Y31776D01*
Y31709D01*
X59625D01*
Y31776D01*
Y31844D01*
X59693D01*
Y31911D01*
X59760D01*
Y31979D01*
Y32046D01*
X59828D01*
Y32114D01*
X59895D01*
Y32181D01*
Y32249D01*
X59963D01*
Y32316D01*
Y32384D01*
X60030D01*
Y32451D01*
X60098D01*
Y32519D01*
Y32586D01*
X60165D01*
Y32654D01*
Y32721D01*
X60233D01*
Y32789D01*
X60300D01*
Y32856D01*
Y32924D01*
X60368D01*
Y32991D01*
Y33059D01*
X60435D01*
Y33126D01*
X60503D01*
Y33194D01*
Y33261D01*
X60570D01*
Y33329D01*
X60638D01*
Y33396D01*
Y33464D01*
X60705D01*
Y33531D01*
Y33599D01*
X60773D01*
Y33666D01*
X60840D01*
Y33734D01*
Y33801D01*
X60908D01*
Y33869D01*
Y33936D01*
X61380D01*
Y33869D01*
D02*
G37*
G36*
X69008D02*
Y33801D01*
Y33734D01*
Y33666D01*
Y33599D01*
Y33531D01*
Y33464D01*
Y33396D01*
Y33329D01*
Y33261D01*
Y33194D01*
Y33126D01*
Y33059D01*
Y32991D01*
Y32924D01*
Y32856D01*
Y32789D01*
Y32721D01*
Y32654D01*
Y32586D01*
Y32519D01*
Y32451D01*
Y32384D01*
Y32316D01*
Y32249D01*
Y32181D01*
Y32114D01*
Y32046D01*
Y31979D01*
Y31911D01*
Y31844D01*
Y31776D01*
Y31709D01*
Y31641D01*
Y31574D01*
Y31506D01*
Y31439D01*
Y31371D01*
Y31304D01*
Y31236D01*
Y31169D01*
Y31101D01*
Y31034D01*
Y30966D01*
Y30899D01*
Y30831D01*
Y30764D01*
Y30696D01*
Y30629D01*
Y30561D01*
Y30494D01*
Y30426D01*
Y30359D01*
Y30291D01*
Y30224D01*
Y30156D01*
Y30089D01*
Y30021D01*
Y29954D01*
X68603D01*
Y30021D01*
Y30089D01*
Y30156D01*
Y30224D01*
Y30291D01*
Y30359D01*
Y30426D01*
Y30494D01*
Y30561D01*
Y30629D01*
Y30696D01*
Y30764D01*
Y30831D01*
Y30899D01*
Y30966D01*
Y31034D01*
Y31101D01*
Y31169D01*
Y31236D01*
Y31304D01*
Y31371D01*
Y31439D01*
Y31506D01*
Y31574D01*
Y31641D01*
Y31709D01*
Y31776D01*
Y31844D01*
Y31911D01*
Y31979D01*
Y32046D01*
Y32114D01*
Y32181D01*
Y32249D01*
Y32316D01*
Y32384D01*
Y32451D01*
Y32519D01*
Y32586D01*
Y32654D01*
Y32721D01*
Y32789D01*
Y32856D01*
Y32924D01*
Y32991D01*
Y33059D01*
Y33126D01*
Y33194D01*
X68536D01*
Y33126D01*
X68468D01*
Y33059D01*
Y32991D01*
X68401D01*
Y32924D01*
X68333D01*
Y32856D01*
X68266D01*
Y32789D01*
X68198D01*
Y32721D01*
Y32654D01*
X68131D01*
Y32586D01*
X68063D01*
Y32519D01*
X67996D01*
Y32451D01*
Y32384D01*
X67928D01*
Y32316D01*
X67861D01*
Y32249D01*
X67793D01*
Y32181D01*
X67726D01*
Y32114D01*
Y32046D01*
X67658D01*
Y31979D01*
X67591D01*
Y31911D01*
X67523D01*
Y31844D01*
X67456D01*
Y31776D01*
Y31709D01*
X67388D01*
Y31641D01*
X67321D01*
Y31574D01*
X67253D01*
Y31506D01*
X67186D01*
Y31439D01*
Y31371D01*
X67118D01*
Y31304D01*
X67051D01*
Y31236D01*
X66983D01*
Y31169D01*
X66916D01*
Y31101D01*
Y31034D01*
X66848D01*
Y30966D01*
X66781D01*
Y30899D01*
X66713D01*
Y30831D01*
Y30764D01*
X66646D01*
Y30696D01*
X66578D01*
Y30629D01*
X66511D01*
Y30561D01*
X66443D01*
Y30494D01*
Y30426D01*
X66376D01*
Y30359D01*
X66308D01*
Y30291D01*
X66241D01*
Y30224D01*
X66173D01*
Y30156D01*
Y30089D01*
X66106D01*
Y30021D01*
X66038D01*
Y29954D01*
X65701D01*
Y30021D01*
Y30089D01*
Y30156D01*
Y30224D01*
Y30291D01*
Y30359D01*
Y30426D01*
Y30494D01*
Y30561D01*
Y30629D01*
Y30696D01*
Y30764D01*
Y30831D01*
Y30899D01*
Y30966D01*
Y31034D01*
Y31101D01*
Y31169D01*
Y31236D01*
Y31304D01*
Y31371D01*
Y31439D01*
Y31506D01*
Y31574D01*
Y31641D01*
Y31709D01*
Y31776D01*
Y31844D01*
Y31911D01*
Y31979D01*
Y32046D01*
Y32114D01*
Y32181D01*
Y32249D01*
Y32316D01*
Y32384D01*
Y32451D01*
Y32519D01*
Y32586D01*
Y32654D01*
Y32721D01*
Y32789D01*
Y32856D01*
Y32924D01*
Y32991D01*
Y33059D01*
Y33126D01*
Y33194D01*
Y33261D01*
Y33329D01*
Y33396D01*
Y33464D01*
Y33531D01*
Y33599D01*
Y33666D01*
Y33734D01*
Y33801D01*
Y33869D01*
Y33936D01*
X66038D01*
Y33869D01*
Y33801D01*
Y33734D01*
Y33666D01*
Y33599D01*
Y33531D01*
Y33464D01*
Y33396D01*
Y33329D01*
Y33261D01*
Y33194D01*
Y33126D01*
Y33059D01*
Y32991D01*
Y32924D01*
Y32856D01*
Y32789D01*
Y32721D01*
Y32654D01*
Y32586D01*
Y32519D01*
Y32451D01*
Y32384D01*
Y32316D01*
Y32249D01*
Y32181D01*
Y32114D01*
Y32046D01*
Y31979D01*
Y31911D01*
Y31844D01*
Y31776D01*
Y31709D01*
Y31641D01*
Y31574D01*
Y31506D01*
Y31439D01*
Y31371D01*
Y31304D01*
Y31236D01*
Y31169D01*
Y31101D01*
Y31034D01*
Y30966D01*
Y30899D01*
Y30831D01*
Y30764D01*
X66173D01*
Y30831D01*
X66241D01*
Y30899D01*
X66308D01*
Y30966D01*
X66376D01*
Y31034D01*
Y31101D01*
X66443D01*
Y31169D01*
X66511D01*
Y31236D01*
X66578D01*
Y31304D01*
X66646D01*
Y31371D01*
Y31439D01*
X66713D01*
Y31506D01*
X66781D01*
Y31574D01*
X66848D01*
Y31641D01*
X66916D01*
Y31709D01*
Y31776D01*
X66983D01*
Y31844D01*
X67051D01*
Y31911D01*
X67118D01*
Y31979D01*
X67186D01*
Y32046D01*
Y32114D01*
X67253D01*
Y32181D01*
X67321D01*
Y32249D01*
X67388D01*
Y32316D01*
Y32384D01*
X67456D01*
Y32451D01*
X67523D01*
Y32519D01*
X67591D01*
Y32586D01*
X67658D01*
Y32654D01*
Y32721D01*
X67726D01*
Y32789D01*
X67793D01*
Y32856D01*
X67861D01*
Y32924D01*
X67928D01*
Y32991D01*
Y33059D01*
X67996D01*
Y33126D01*
X68063D01*
Y33194D01*
X68131D01*
Y33261D01*
X68198D01*
Y33329D01*
Y33396D01*
X68266D01*
Y33464D01*
X68333D01*
Y33531D01*
X68401D01*
Y33599D01*
X68468D01*
Y33666D01*
Y33734D01*
X68536D01*
Y33801D01*
X68603D01*
Y33869D01*
X68671D01*
Y33936D01*
X69008D01*
Y33869D01*
D02*
G37*
G36*
X75354D02*
Y33801D01*
Y33734D01*
Y33666D01*
Y33599D01*
Y33531D01*
Y33464D01*
Y33396D01*
Y33329D01*
Y33261D01*
Y33194D01*
Y33126D01*
Y33059D01*
Y32991D01*
Y32924D01*
Y32856D01*
Y32789D01*
Y32721D01*
Y32654D01*
Y32586D01*
Y32519D01*
Y32451D01*
Y32384D01*
Y32316D01*
Y32249D01*
Y32181D01*
Y32114D01*
Y32046D01*
Y31979D01*
Y31911D01*
Y31844D01*
Y31776D01*
Y31709D01*
Y31641D01*
Y31574D01*
Y31506D01*
Y31439D01*
Y31371D01*
Y31304D01*
Y31236D01*
Y31169D01*
Y31101D01*
Y31034D01*
Y30966D01*
Y30899D01*
Y30831D01*
Y30764D01*
Y30696D01*
Y30629D01*
Y30561D01*
Y30494D01*
Y30426D01*
Y30359D01*
Y30291D01*
Y30224D01*
Y30156D01*
Y30089D01*
Y30021D01*
Y29954D01*
X75016D01*
Y30021D01*
Y30089D01*
Y30156D01*
Y30224D01*
Y30291D01*
Y30359D01*
Y30426D01*
Y30494D01*
Y30561D01*
Y30629D01*
Y30696D01*
Y30764D01*
Y30831D01*
Y30899D01*
Y30966D01*
Y31034D01*
Y31101D01*
Y31169D01*
Y31236D01*
Y31304D01*
Y31371D01*
Y31439D01*
Y31506D01*
Y31574D01*
Y31641D01*
Y31709D01*
Y31776D01*
Y31844D01*
Y31911D01*
Y31979D01*
Y32046D01*
Y32114D01*
Y32181D01*
Y32249D01*
Y32316D01*
Y32384D01*
Y32451D01*
Y32519D01*
Y32586D01*
Y32654D01*
Y32721D01*
Y32789D01*
Y32856D01*
Y32924D01*
Y32991D01*
Y33059D01*
Y33126D01*
X74881D01*
Y33059D01*
X74814D01*
Y32991D01*
X74746D01*
Y32924D01*
Y32856D01*
X74679D01*
Y32789D01*
X74611D01*
Y32721D01*
X74544D01*
Y32654D01*
X74476D01*
Y32586D01*
Y32519D01*
X74409D01*
Y32451D01*
X74341D01*
Y32384D01*
X74274D01*
Y32316D01*
X74206D01*
Y32249D01*
Y32181D01*
X74139D01*
Y32114D01*
X74071D01*
Y32046D01*
X74004D01*
Y31979D01*
X73936D01*
Y31911D01*
Y31844D01*
X73869D01*
Y31776D01*
X73801D01*
Y31709D01*
X73734D01*
Y31641D01*
Y31574D01*
X73666D01*
Y31506D01*
X73599D01*
Y31439D01*
X73531D01*
Y31371D01*
X73464D01*
Y31304D01*
Y31236D01*
X73396D01*
Y31169D01*
X73329D01*
Y31101D01*
X73261D01*
Y31034D01*
X73194D01*
Y30966D01*
Y30899D01*
X73126D01*
Y30831D01*
X73059D01*
Y30764D01*
X72991D01*
Y30696D01*
X72924D01*
Y30629D01*
Y30561D01*
X72856D01*
Y30494D01*
X72789D01*
Y30426D01*
X72721D01*
Y30359D01*
X72654D01*
Y30291D01*
Y30224D01*
X72586D01*
Y30156D01*
X72519D01*
Y30089D01*
X72451D01*
Y30021D01*
X72384D01*
Y29954D01*
X72046D01*
Y30021D01*
Y30089D01*
Y30156D01*
Y30224D01*
Y30291D01*
Y30359D01*
Y30426D01*
Y30494D01*
Y30561D01*
Y30629D01*
Y30696D01*
Y30764D01*
Y30831D01*
Y30899D01*
Y30966D01*
Y31034D01*
Y31101D01*
Y31169D01*
Y31236D01*
Y31304D01*
Y31371D01*
Y31439D01*
Y31506D01*
Y31574D01*
Y31641D01*
Y31709D01*
Y31776D01*
Y31844D01*
Y31911D01*
Y31979D01*
Y32046D01*
Y32114D01*
Y32181D01*
Y32249D01*
Y32316D01*
Y32384D01*
Y32451D01*
Y32519D01*
Y32586D01*
Y32654D01*
Y32721D01*
Y32789D01*
Y32856D01*
Y32924D01*
Y32991D01*
Y33059D01*
Y33126D01*
Y33194D01*
Y33261D01*
Y33329D01*
Y33396D01*
Y33464D01*
Y33531D01*
Y33599D01*
Y33666D01*
Y33734D01*
Y33801D01*
Y33869D01*
Y33936D01*
X72451D01*
Y33869D01*
Y33801D01*
Y33734D01*
Y33666D01*
Y33599D01*
Y33531D01*
Y33464D01*
Y33396D01*
Y33329D01*
Y33261D01*
Y33194D01*
Y33126D01*
Y33059D01*
Y32991D01*
Y32924D01*
Y32856D01*
Y32789D01*
Y32721D01*
Y32654D01*
Y32586D01*
Y32519D01*
Y32451D01*
Y32384D01*
Y32316D01*
Y32249D01*
Y32181D01*
Y32114D01*
Y32046D01*
Y31979D01*
Y31911D01*
Y31844D01*
Y31776D01*
Y31709D01*
Y31641D01*
Y31574D01*
Y31506D01*
Y31439D01*
Y31371D01*
Y31304D01*
Y31236D01*
Y31169D01*
Y31101D01*
Y31034D01*
Y30966D01*
Y30899D01*
Y30831D01*
Y30764D01*
Y30696D01*
X72519D01*
Y30764D01*
X72586D01*
Y30831D01*
X72654D01*
Y30899D01*
Y30966D01*
X72721D01*
Y31034D01*
X72789D01*
Y31101D01*
X72856D01*
Y31169D01*
Y31236D01*
X72924D01*
Y31304D01*
X72991D01*
Y31371D01*
X73059D01*
Y31439D01*
X73126D01*
Y31506D01*
Y31574D01*
X73194D01*
Y31641D01*
X73261D01*
Y31709D01*
X73329D01*
Y31776D01*
X73396D01*
Y31844D01*
Y31911D01*
X73464D01*
Y31979D01*
X73531D01*
Y32046D01*
X73599D01*
Y32114D01*
X73666D01*
Y32181D01*
Y32249D01*
X73734D01*
Y32316D01*
X73801D01*
Y32384D01*
X73869D01*
Y32451D01*
X73936D01*
Y32519D01*
Y32586D01*
X74004D01*
Y32654D01*
X74071D01*
Y32721D01*
X74139D01*
Y32789D01*
X74206D01*
Y32856D01*
Y32924D01*
X74274D01*
Y32991D01*
X74341D01*
Y33059D01*
X74409D01*
Y33126D01*
X74476D01*
Y33194D01*
Y33261D01*
X74544D01*
Y33329D01*
X74611D01*
Y33396D01*
X74679D01*
Y33464D01*
Y33531D01*
X74746D01*
Y33599D01*
X74814D01*
Y33666D01*
X74881D01*
Y33734D01*
X74949D01*
Y33801D01*
Y33869D01*
X75016D01*
Y33936D01*
X75354D01*
Y33869D01*
D02*
G37*
G36*
X82374D02*
X82644D01*
Y33801D01*
X82780D01*
Y33734D01*
X82915D01*
Y33666D01*
X83049D01*
Y33599D01*
X83184D01*
Y33531D01*
X83252D01*
Y33464D01*
X83319D01*
Y33396D01*
X83387D01*
Y33329D01*
X83455D01*
Y33261D01*
X83522D01*
Y33194D01*
X83590D01*
Y33126D01*
Y33059D01*
X83657D01*
Y32991D01*
X83724D01*
Y32924D01*
Y32856D01*
X83792D01*
Y32789D01*
Y32721D01*
X83860D01*
Y32654D01*
Y32586D01*
Y32519D01*
X83927D01*
Y32451D01*
Y32384D01*
Y32316D01*
Y32249D01*
Y32181D01*
Y32114D01*
Y32046D01*
Y31979D01*
Y31911D01*
Y31844D01*
Y31776D01*
Y31709D01*
Y31641D01*
Y31574D01*
Y31506D01*
Y31439D01*
Y31371D01*
X83860D01*
Y31304D01*
Y31236D01*
Y31169D01*
X83792D01*
Y31101D01*
Y31034D01*
X83724D01*
Y30966D01*
Y30899D01*
X83657D01*
Y30831D01*
Y30764D01*
X83590D01*
Y30696D01*
X83522D01*
Y30629D01*
X83455D01*
Y30561D01*
X83387D01*
Y30494D01*
X83319D01*
Y30426D01*
X83252D01*
Y30359D01*
X83184D01*
Y30291D01*
X83049D01*
Y30224D01*
X82982D01*
Y30156D01*
X82847D01*
Y30089D01*
X82644D01*
Y30021D01*
X82442D01*
Y29954D01*
X81294D01*
Y30021D01*
X81024D01*
Y30089D01*
X80889D01*
Y30156D01*
X80754D01*
Y30224D01*
X80619D01*
Y30291D01*
X80552D01*
Y30359D01*
X80417D01*
Y30426D01*
Y30494D01*
Y30561D01*
Y30629D01*
Y30696D01*
Y30764D01*
Y30831D01*
Y30899D01*
Y30966D01*
Y31034D01*
Y31101D01*
Y31169D01*
Y31236D01*
Y31304D01*
Y31371D01*
Y31439D01*
Y31506D01*
Y31574D01*
Y31641D01*
Y31709D01*
Y31776D01*
Y31844D01*
Y31911D01*
X80754D01*
Y31844D01*
Y31776D01*
Y31709D01*
Y31641D01*
Y31574D01*
Y31506D01*
Y31439D01*
Y31371D01*
Y31304D01*
Y31236D01*
Y31169D01*
Y31101D01*
Y31034D01*
Y30966D01*
Y30899D01*
Y30831D01*
Y30764D01*
Y30696D01*
Y30629D01*
X80822D01*
Y30561D01*
X80889D01*
Y30494D01*
X80957D01*
Y30426D01*
X81159D01*
Y30359D01*
X81362D01*
Y30291D01*
X81767D01*
Y30224D01*
X81969D01*
Y30291D01*
X82374D01*
Y30359D01*
X82577D01*
Y30426D01*
X82712D01*
Y30494D01*
X82847D01*
Y30561D01*
X82915D01*
Y30629D01*
X82982D01*
Y30696D01*
X83049D01*
Y30764D01*
X83117D01*
Y30831D01*
X83184D01*
Y30899D01*
X83252D01*
Y30966D01*
X83319D01*
Y31034D01*
Y31101D01*
X83387D01*
Y31169D01*
X83455D01*
Y31236D01*
Y31304D01*
Y31371D01*
X83522D01*
Y31439D01*
Y31506D01*
Y31574D01*
X83590D01*
Y31641D01*
Y31709D01*
Y31776D01*
Y31844D01*
Y31911D01*
Y31979D01*
Y32046D01*
Y32114D01*
Y32181D01*
Y32249D01*
X83522D01*
Y32316D01*
Y32384D01*
Y32451D01*
Y32519D01*
X83455D01*
Y32586D01*
Y32654D01*
X83387D01*
Y32721D01*
Y32789D01*
X83319D01*
Y32856D01*
Y32924D01*
X83252D01*
Y32991D01*
X83184D01*
Y33059D01*
X83117D01*
Y33126D01*
X83049D01*
Y33194D01*
X82982D01*
Y33261D01*
X82915D01*
Y33329D01*
X82780D01*
Y33396D01*
X82712D01*
Y33464D01*
X82509D01*
Y33531D01*
X82307D01*
Y33599D01*
X81362D01*
Y33531D01*
X81159D01*
Y33464D01*
X81024D01*
Y33396D01*
X80889D01*
Y33329D01*
X80822D01*
Y33261D01*
X80754D01*
Y33194D01*
X80552D01*
Y33261D01*
X80484D01*
Y33329D01*
X80417D01*
Y33396D01*
Y33464D01*
X80484D01*
Y33531D01*
X80552D01*
Y33599D01*
X80687D01*
Y33666D01*
X80822D01*
Y33734D01*
X80957D01*
Y33801D01*
X81092D01*
Y33869D01*
X81362D01*
Y33936D01*
X82374D01*
Y33869D01*
D02*
G37*
G36*
X79202D02*
Y33801D01*
Y33734D01*
Y33666D01*
Y33599D01*
Y33531D01*
Y33464D01*
Y33396D01*
Y33329D01*
Y33261D01*
Y33194D01*
Y33126D01*
Y33059D01*
Y32991D01*
Y32924D01*
Y32856D01*
Y32789D01*
Y32721D01*
Y32654D01*
Y32586D01*
Y32519D01*
Y32451D01*
Y32384D01*
Y32316D01*
Y32249D01*
Y32181D01*
Y32114D01*
Y32046D01*
Y31979D01*
Y31911D01*
Y31844D01*
Y31776D01*
Y31709D01*
Y31641D01*
Y31574D01*
Y31506D01*
Y31439D01*
Y31371D01*
Y31304D01*
Y31236D01*
Y31169D01*
Y31101D01*
Y31034D01*
Y30966D01*
Y30899D01*
Y30831D01*
Y30764D01*
Y30696D01*
Y30629D01*
Y30561D01*
Y30494D01*
Y30426D01*
Y30359D01*
Y30291D01*
Y30224D01*
Y30156D01*
Y30089D01*
Y30021D01*
Y29954D01*
X76434D01*
Y30021D01*
Y30089D01*
Y30156D01*
Y30224D01*
Y30291D01*
X78797D01*
Y30359D01*
Y30426D01*
Y30494D01*
Y30561D01*
Y30629D01*
Y30696D01*
Y30764D01*
Y30831D01*
Y30899D01*
Y30966D01*
Y31034D01*
Y31101D01*
Y31169D01*
Y31236D01*
Y31304D01*
Y31371D01*
Y31439D01*
Y31506D01*
Y31574D01*
Y31641D01*
Y31709D01*
Y31776D01*
X78729D01*
Y31844D01*
X76771D01*
Y31911D01*
Y31979D01*
Y32046D01*
Y32114D01*
X78797D01*
Y32181D01*
Y32249D01*
Y32316D01*
Y32384D01*
Y32451D01*
Y32519D01*
Y32586D01*
Y32654D01*
Y32721D01*
Y32789D01*
Y32856D01*
Y32924D01*
Y32991D01*
Y33059D01*
Y33126D01*
Y33194D01*
Y33261D01*
Y33329D01*
Y33396D01*
Y33464D01*
Y33531D01*
Y33599D01*
X76501D01*
Y33666D01*
Y33734D01*
Y33801D01*
Y33869D01*
Y33936D01*
X79202D01*
Y33869D01*
D02*
G37*
G36*
X70696D02*
Y33801D01*
Y33734D01*
Y33666D01*
Y33599D01*
Y33531D01*
Y33464D01*
Y33396D01*
Y33329D01*
Y33261D01*
Y33194D01*
Y33126D01*
Y33059D01*
Y32991D01*
Y32924D01*
Y32856D01*
Y32789D01*
Y32721D01*
Y32654D01*
Y32586D01*
Y32519D01*
Y32451D01*
Y32384D01*
Y32316D01*
Y32249D01*
Y32181D01*
Y32114D01*
Y32046D01*
Y31979D01*
Y31911D01*
Y31844D01*
Y31776D01*
Y31709D01*
Y31641D01*
Y31574D01*
Y31506D01*
Y31439D01*
Y31371D01*
Y31304D01*
Y31236D01*
Y31169D01*
Y31101D01*
Y31034D01*
Y30966D01*
Y30899D01*
Y30831D01*
Y30764D01*
Y30696D01*
Y30629D01*
Y30561D01*
Y30494D01*
Y30426D01*
Y30359D01*
Y30291D01*
Y30224D01*
Y30156D01*
Y30089D01*
Y30021D01*
Y29954D01*
X70358D01*
Y30021D01*
Y30089D01*
Y30156D01*
Y30224D01*
Y30291D01*
Y30359D01*
Y30426D01*
Y30494D01*
Y30561D01*
Y30629D01*
Y30696D01*
Y30764D01*
Y30831D01*
Y30899D01*
Y30966D01*
Y31034D01*
Y31101D01*
Y31169D01*
Y31236D01*
Y31304D01*
Y31371D01*
Y31439D01*
Y31506D01*
Y31574D01*
Y31641D01*
Y31709D01*
Y31776D01*
Y31844D01*
Y31911D01*
Y31979D01*
Y32046D01*
Y32114D01*
Y32181D01*
Y32249D01*
Y32316D01*
Y32384D01*
Y32451D01*
Y32519D01*
Y32586D01*
Y32654D01*
Y32721D01*
Y32789D01*
Y32856D01*
Y32924D01*
Y32991D01*
Y33059D01*
Y33126D01*
Y33194D01*
Y33261D01*
Y33329D01*
Y33396D01*
Y33464D01*
Y33531D01*
Y33599D01*
Y33666D01*
Y33734D01*
Y33801D01*
Y33869D01*
Y33936D01*
X70696D01*
Y33869D01*
D02*
G37*
G36*
X64350D02*
Y33801D01*
Y33734D01*
Y33666D01*
Y33599D01*
Y33531D01*
Y33464D01*
Y33396D01*
Y33329D01*
Y33261D01*
Y33194D01*
Y33126D01*
Y33059D01*
Y32991D01*
Y32924D01*
Y32856D01*
Y32789D01*
Y32721D01*
Y32654D01*
Y32586D01*
Y32519D01*
Y32451D01*
Y32384D01*
Y32316D01*
Y32249D01*
Y32181D01*
Y32114D01*
Y32046D01*
Y31979D01*
Y31911D01*
Y31844D01*
Y31776D01*
Y31709D01*
Y31641D01*
Y31574D01*
Y31506D01*
Y31439D01*
Y31371D01*
Y31304D01*
Y31236D01*
Y31169D01*
Y31101D01*
Y31034D01*
Y30966D01*
Y30899D01*
Y30831D01*
Y30764D01*
Y30696D01*
Y30629D01*
Y30561D01*
Y30494D01*
Y30426D01*
Y30359D01*
Y30291D01*
Y30224D01*
Y30156D01*
Y30089D01*
Y30021D01*
Y29954D01*
X63945D01*
Y30021D01*
Y30089D01*
Y30156D01*
Y30224D01*
Y30291D01*
Y30359D01*
Y30426D01*
Y30494D01*
Y30561D01*
Y30629D01*
Y30696D01*
Y30764D01*
Y30831D01*
Y30899D01*
Y30966D01*
Y31034D01*
Y31101D01*
Y31169D01*
Y31236D01*
Y31304D01*
Y31371D01*
Y31439D01*
Y31506D01*
Y31574D01*
Y31641D01*
X61920D01*
Y31709D01*
Y31776D01*
Y31844D01*
Y31911D01*
Y31979D01*
X63945D01*
Y32046D01*
Y32114D01*
Y32181D01*
Y32249D01*
Y32316D01*
Y32384D01*
Y32451D01*
Y32519D01*
Y32586D01*
Y32654D01*
Y32721D01*
Y32789D01*
Y32856D01*
Y32924D01*
Y32991D01*
Y33059D01*
Y33126D01*
Y33194D01*
Y33261D01*
Y33329D01*
Y33396D01*
Y33464D01*
Y33531D01*
Y33599D01*
X61650D01*
Y33666D01*
Y33734D01*
Y33801D01*
Y33869D01*
Y33936D01*
X64350D01*
Y33869D01*
D02*
G37*
%LPC*%
G36*
X57962Y53816D02*
X56882D01*
Y53748D01*
X56139D01*
Y53681D01*
X55734D01*
Y53613D01*
X55464D01*
Y53546D01*
X55194D01*
Y53478D01*
X54924D01*
Y53411D01*
X54721D01*
Y53343D01*
X54519D01*
Y53276D01*
X54384D01*
Y53208D01*
X54249D01*
Y53141D01*
X54046D01*
Y53073D01*
X53911D01*
Y53006D01*
X53776D01*
Y52938D01*
X53641D01*
Y52871D01*
X53574D01*
Y52803D01*
X53439D01*
Y52736D01*
X53304D01*
Y52668D01*
X53236D01*
Y52601D01*
X53101D01*
Y52533D01*
X53034D01*
Y52466D01*
X52899D01*
Y52398D01*
X52831D01*
Y52331D01*
X52696D01*
Y52263D01*
X52629D01*
Y52196D01*
X52561D01*
Y52128D01*
X52494D01*
Y52061D01*
X52359D01*
Y51993D01*
X52291D01*
Y51926D01*
X52224D01*
Y51858D01*
X52156D01*
Y51791D01*
X52089D01*
Y51723D01*
X52021D01*
Y51656D01*
X51954D01*
Y51588D01*
X51886D01*
Y51521D01*
X51819D01*
Y51453D01*
X51751D01*
Y51386D01*
X51684D01*
Y51318D01*
X51616D01*
Y51251D01*
Y51183D01*
X51549D01*
Y51116D01*
X51481D01*
Y51048D01*
X51414D01*
Y50981D01*
X51346D01*
Y50913D01*
Y50845D01*
X51279D01*
Y50778D01*
X51211D01*
Y50710D01*
X51144D01*
Y50643D01*
Y50576D01*
X51076D01*
Y50508D01*
X51009D01*
Y50441D01*
Y50373D01*
X50941D01*
Y50305D01*
Y50238D01*
X50874D01*
Y50170D01*
X50806D01*
Y50103D01*
Y50036D01*
X50739D01*
Y49968D01*
Y49900D01*
X50671D01*
Y49833D01*
Y49765D01*
X50604D01*
Y49698D01*
Y49630D01*
X50536D01*
Y49563D01*
Y49495D01*
X50469D01*
Y49428D01*
Y49360D01*
X50401D01*
Y49293D01*
Y49225D01*
X50334D01*
Y49158D01*
Y49090D01*
Y49023D01*
X50266D01*
Y48955D01*
Y48888D01*
Y48820D01*
X50199D01*
Y48753D01*
Y48685D01*
Y48618D01*
X50131D01*
Y48550D01*
Y48483D01*
Y48415D01*
X50064D01*
Y48348D01*
Y48280D01*
Y48213D01*
Y48145D01*
X49996D01*
Y48078D01*
Y48010D01*
Y47943D01*
Y47875D01*
X49929D01*
Y47808D01*
Y47740D01*
Y47673D01*
Y47605D01*
Y47538D01*
Y47470D01*
X49861D01*
Y47403D01*
Y47335D01*
Y47268D01*
Y47200D01*
Y47133D01*
Y47065D01*
Y46998D01*
Y46930D01*
Y46863D01*
Y46795D01*
X49794D01*
Y46728D01*
Y46660D01*
Y46593D01*
Y46525D01*
Y46458D01*
Y46390D01*
Y46323D01*
Y46255D01*
Y46188D01*
Y46120D01*
Y46053D01*
Y45985D01*
Y45918D01*
Y45850D01*
X49861D01*
Y45783D01*
Y45715D01*
Y45648D01*
Y45580D01*
Y45513D01*
Y45445D01*
Y45378D01*
Y45310D01*
Y45243D01*
Y45175D01*
X49929D01*
Y45108D01*
Y45040D01*
Y44973D01*
Y44905D01*
Y44837D01*
Y44770D01*
X49996D01*
Y44703D01*
Y44635D01*
Y44567D01*
Y44500D01*
X50064D01*
Y44433D01*
Y44365D01*
Y44298D01*
Y44230D01*
X50131D01*
Y44162D01*
Y44095D01*
Y44028D01*
Y43960D01*
X50199D01*
Y43892D01*
Y43825D01*
Y43758D01*
X50266D01*
Y43690D01*
Y43622D01*
X50334D01*
Y43555D01*
Y43487D01*
Y43420D01*
X50401D01*
Y43352D01*
Y43285D01*
X50469D01*
Y43217D01*
Y43150D01*
Y43082D01*
X50536D01*
Y43015D01*
Y42947D01*
X50604D01*
Y42880D01*
Y42812D01*
X50671D01*
Y42745D01*
Y42677D01*
X50739D01*
Y42610D01*
X50806D01*
Y42542D01*
Y42475D01*
X50874D01*
Y42407D01*
Y42340D01*
X50941D01*
Y42272D01*
X51009D01*
Y42205D01*
Y42137D01*
X51076D01*
Y42070D01*
Y42002D01*
X51144D01*
Y41935D01*
X51211D01*
Y41867D01*
X51279D01*
Y41800D01*
Y41732D01*
X51346D01*
Y41665D01*
X51414D01*
Y41597D01*
X51481D01*
Y41530D01*
Y41462D01*
X51549D01*
Y41395D01*
X51616D01*
Y41327D01*
X51684D01*
Y41260D01*
X51751D01*
Y41192D01*
X51819D01*
Y41125D01*
X51886D01*
Y41057D01*
X51954D01*
Y40990D01*
Y40922D01*
X52021D01*
Y40855D01*
X52089D01*
Y40787D01*
X52156D01*
Y40720D01*
X52291D01*
Y40652D01*
X52359D01*
Y40585D01*
X52426D01*
Y40517D01*
X52494D01*
Y40450D01*
X52561D01*
Y40382D01*
X52629D01*
Y40315D01*
X52764D01*
Y40247D01*
X52831D01*
Y40180D01*
X52899D01*
Y40112D01*
X53034D01*
Y40045D01*
X53101D01*
Y39977D01*
X53169D01*
Y39910D01*
X53304D01*
Y39842D01*
X53371D01*
Y39775D01*
X53506D01*
Y39707D01*
X53641D01*
Y39640D01*
X53776D01*
Y39572D01*
X53844D01*
Y39505D01*
X53979D01*
Y39437D01*
X54114D01*
Y39370D01*
X54249D01*
Y39302D01*
X54384D01*
Y39235D01*
X54586D01*
Y39167D01*
X54721D01*
Y39100D01*
X54924D01*
Y39032D01*
X55127D01*
Y38965D01*
X55329D01*
Y38897D01*
X55599D01*
Y38830D01*
X55869D01*
Y38762D01*
X56342D01*
Y38695D01*
X58164D01*
Y38762D01*
X58569D01*
Y38830D01*
X58907D01*
Y38897D01*
X59177D01*
Y38965D01*
X59447D01*
Y39032D01*
X59649D01*
Y39100D01*
X59852D01*
Y39167D01*
X60054D01*
Y39235D01*
X60257D01*
Y39302D01*
X60392D01*
Y39370D01*
X60594D01*
Y39437D01*
X60729D01*
Y39505D01*
X60865D01*
Y39572D01*
X61067D01*
Y39640D01*
X61202D01*
Y39707D01*
X61337D01*
Y39775D01*
X61472D01*
Y39842D01*
X61607D01*
Y39910D01*
X61742D01*
Y39977D01*
X61877D01*
Y40045D01*
X61945D01*
Y40112D01*
X62080D01*
Y40180D01*
X62215D01*
Y40247D01*
X62350D01*
Y40315D01*
X62417D01*
Y40382D01*
X62552D01*
Y40450D01*
X62687D01*
Y40517D01*
X62755D01*
Y40585D01*
X62890D01*
Y40652D01*
X63025D01*
Y40720D01*
X63092D01*
Y40787D01*
X63227D01*
Y40855D01*
X63295D01*
Y40922D01*
X63430D01*
Y40990D01*
X63497D01*
Y41057D01*
X63632D01*
Y41125D01*
X63700D01*
Y41192D01*
X63767D01*
Y41260D01*
X63902D01*
Y41327D01*
X63970D01*
Y41395D01*
X64105D01*
Y41462D01*
X64172D01*
Y41530D01*
X64240D01*
Y41597D01*
X64375D01*
Y41665D01*
X64442D01*
Y41732D01*
X64510D01*
Y41800D01*
X64645D01*
Y41867D01*
X64712D01*
Y41935D01*
X64780D01*
Y42002D01*
X64915D01*
Y42070D01*
X64982D01*
Y42137D01*
X65050D01*
Y42205D01*
X65185D01*
Y42272D01*
X65252D01*
Y42340D01*
X65320D01*
Y42407D01*
X65387D01*
Y42475D01*
X65522D01*
Y42542D01*
X65590D01*
Y42610D01*
X65657D01*
Y42677D01*
X65725D01*
Y42745D01*
X65860D01*
Y42812D01*
X65927D01*
Y42880D01*
X65995D01*
Y42947D01*
X66062D01*
Y43015D01*
X66130D01*
Y43082D01*
X66265D01*
Y43150D01*
X66332D01*
Y43217D01*
X66400D01*
Y43285D01*
X66467D01*
Y43352D01*
X66535D01*
Y43420D01*
X66602D01*
Y43487D01*
X66738D01*
Y43555D01*
X66805D01*
Y43622D01*
X66873D01*
Y43690D01*
X66940D01*
Y43758D01*
X67007D01*
Y43825D01*
X67075D01*
Y43892D01*
X67142D01*
Y43960D01*
X67210D01*
Y44028D01*
X67277D01*
Y44095D01*
X67345D01*
Y44162D01*
X67413D01*
Y44230D01*
X67480D01*
Y44298D01*
X67548D01*
Y44365D01*
X67615D01*
Y44433D01*
X67682D01*
Y44500D01*
X67750D01*
Y44567D01*
X67817D01*
Y44635D01*
X67885D01*
Y44703D01*
X67953D01*
Y44770D01*
X68088D01*
Y44837D01*
X68155D01*
Y44905D01*
X68223D01*
Y44973D01*
X68290D01*
Y45040D01*
X68358D01*
Y45108D01*
X68425D01*
Y45175D01*
X68493D01*
Y45243D01*
X68560D01*
Y45310D01*
X68628D01*
Y45378D01*
X68695D01*
Y45445D01*
X68763D01*
Y45513D01*
X68830D01*
Y45580D01*
X68898D01*
Y45648D01*
X68965D01*
Y45715D01*
X69033D01*
Y45783D01*
X69100D01*
Y45850D01*
X69168D01*
Y45918D01*
X69235D01*
Y45985D01*
X69303D01*
Y46053D01*
X69370D01*
Y46120D01*
X69438D01*
Y46188D01*
X69505D01*
Y46255D01*
X69573D01*
Y46323D01*
X69505D01*
Y46390D01*
X69438D01*
Y46458D01*
X69370D01*
Y46525D01*
X69303D01*
Y46593D01*
X69235D01*
Y46660D01*
X69168D01*
Y46728D01*
X69100D01*
Y46795D01*
X69033D01*
Y46863D01*
X68965D01*
Y46930D01*
X68898D01*
Y46998D01*
X68830D01*
Y47065D01*
X68763D01*
Y47133D01*
X68695D01*
Y47200D01*
X68628D01*
Y47268D01*
X68560D01*
Y47335D01*
X68493D01*
Y47403D01*
X68425D01*
Y47470D01*
X68358D01*
Y47538D01*
X68290D01*
Y47605D01*
X68223D01*
Y47673D01*
X68155D01*
Y47740D01*
X68088D01*
Y47808D01*
X68020D01*
Y47875D01*
X67953D01*
Y47943D01*
X67885D01*
Y48010D01*
X67817D01*
Y48078D01*
X67750D01*
Y48145D01*
X67682D01*
Y48213D01*
X67615D01*
Y48280D01*
X67548D01*
Y48348D01*
X67480D01*
Y48415D01*
X67413D01*
Y48483D01*
X67277D01*
Y48550D01*
X67210D01*
Y48618D01*
X67142D01*
Y48685D01*
X67075D01*
Y48753D01*
X67007D01*
Y48820D01*
X66940D01*
Y48888D01*
X66873D01*
Y48955D01*
X66805D01*
Y49023D01*
X66738D01*
Y49090D01*
X66670D01*
Y49158D01*
X66602D01*
Y49225D01*
X66535D01*
Y49293D01*
X66467D01*
Y49360D01*
X66400D01*
Y49428D01*
X66332D01*
Y49495D01*
X66197D01*
Y49563D01*
X66130D01*
Y49630D01*
X66062D01*
Y49698D01*
X65995D01*
Y49765D01*
X65927D01*
Y49833D01*
X65860D01*
Y49900D01*
X65792D01*
Y49968D01*
X65725D01*
Y50036D01*
X65590D01*
Y50103D01*
X65522D01*
Y50170D01*
X65455D01*
Y50238D01*
X65387D01*
Y50305D01*
X65320D01*
Y50373D01*
X65252D01*
Y50441D01*
X65117D01*
Y50508D01*
X65050D01*
Y50576D01*
X64982D01*
Y50643D01*
X64915D01*
Y50710D01*
X64780D01*
Y50778D01*
X64712D01*
Y50845D01*
X64645D01*
Y50913D01*
X64577D01*
Y50981D01*
X64442D01*
Y51048D01*
X64375D01*
Y51116D01*
X64307D01*
Y51183D01*
X64172D01*
Y51251D01*
X64105D01*
Y51318D01*
X64037D01*
Y51386D01*
X63902D01*
Y51453D01*
X63835D01*
Y51521D01*
X63700D01*
Y51588D01*
X63632D01*
Y51656D01*
X63497D01*
Y51723D01*
X63430D01*
Y51791D01*
X63295D01*
Y51858D01*
X63227D01*
Y51926D01*
X63092D01*
Y51993D01*
X63025D01*
Y52061D01*
X62890D01*
Y52128D01*
X62755D01*
Y52196D01*
X62687D01*
Y52263D01*
X62552D01*
Y52331D01*
X62417D01*
Y52398D01*
X62350D01*
Y52466D01*
X62215D01*
Y52533D01*
X62080D01*
Y52601D01*
X61945D01*
Y52668D01*
X61810D01*
Y52736D01*
X61674D01*
Y52803D01*
X61540D01*
Y52871D01*
X61405D01*
Y52938D01*
X61202D01*
Y53006D01*
X61067D01*
Y53073D01*
X60932D01*
Y53141D01*
X60729D01*
Y53208D01*
X60527D01*
Y53276D01*
X60392D01*
Y53343D01*
X60122D01*
Y53411D01*
X59919D01*
Y53478D01*
X59649D01*
Y53546D01*
X59379D01*
Y53613D01*
X59042D01*
Y53681D01*
X58637D01*
Y53748D01*
X57962D01*
Y53816D01*
D02*
G37*
%LPD*%
D12*
X146696Y56239D02*
X148336Y57879D01*
X151616D01*
X153255Y56239D01*
Y54599D01*
X151616Y52960D01*
X148336D01*
X146696Y51320D01*
Y49680D01*
X148336Y48040D01*
X151616D01*
X153255Y49680D01*
X143416Y48040D02*
Y57879D01*
X140136Y54599D01*
X136856Y57879D01*
Y48040D01*
X133577D02*
Y54599D01*
X130297Y57879D01*
X127017Y54599D01*
Y48040D01*
Y52960D01*
X133577D01*
X123737Y48040D02*
Y57879D01*
X118818D01*
X117178Y56239D01*
Y52960D01*
X118818Y51320D01*
X123737D01*
X120457D02*
X117178Y48040D01*
X113898Y57879D02*
X107338D01*
X110618D01*
Y48040D01*
X159976Y118042D02*
X161616Y119682D01*
X164896D01*
X166535Y118042D01*
Y111482D01*
X164896Y109843D01*
X161616D01*
X159976Y111482D01*
X150136Y118042D02*
X151776Y119682D01*
X155056D01*
X156696Y118042D01*
Y111482D01*
X155056Y109843D01*
X151776D01*
X150136Y111482D01*
X137017Y119682D02*
Y109843D01*
X132098D01*
X130458Y111482D01*
Y118042D01*
X132098Y119682D01*
X137017D01*
X127178Y109843D02*
Y119682D01*
X122258D01*
X120618Y118042D01*
Y114762D01*
X122258Y113122D01*
X127178D01*
X123898D02*
X120618Y109843D01*
X117339Y119682D02*
X114059D01*
X115699D01*
Y109843D01*
X117339D01*
X114059D01*
X109139Y119682D02*
Y113122D01*
X105859Y109843D01*
X102580Y113122D01*
Y119682D01*
X92740D02*
X99300D01*
Y109843D01*
X92740D01*
X99300Y114762D02*
X96020D01*
X89461Y109843D02*
Y119682D01*
X84541D01*
X82901Y118042D01*
Y114762D01*
X84541Y113122D01*
X89461D01*
X86181D02*
X82901Y109843D01*
X101969Y100654D02*
X98689Y94095D01*
X95409Y100654D01*
X92129Y94095D02*
X88849D01*
X90489D01*
Y103934D01*
X92129Y102294D01*
X83930Y94095D02*
Y95734D01*
X82290D01*
Y94095D01*
X83930D01*
X75730Y102294D02*
X74090Y103934D01*
X70811D01*
X69171Y102294D01*
Y95734D01*
X70811Y94095D01*
X74090D01*
X75730Y95734D01*
Y102294D01*
X159555Y42919D02*
Y33079D01*
X154635D01*
X152995Y34719D01*
Y36359D01*
X154635Y37999D01*
X159555D01*
X154635D01*
X152995Y39639D01*
Y41279D01*
X154635Y42919D01*
X159555D01*
X149715Y33079D02*
Y39639D01*
X146435Y42919D01*
X143156Y39639D01*
Y33079D01*
Y37999D01*
X149715D01*
X139876Y42919D02*
X133316D01*
X136596D01*
Y33079D01*
X130036Y42919D02*
X123477D01*
X126757D01*
Y33079D01*
X113638Y42919D02*
X120197D01*
Y33079D01*
X113638D01*
X120197Y37999D02*
X116917D01*
X110358Y33079D02*
Y42919D01*
X105438D01*
X103798Y41279D01*
Y37999D01*
X105438Y36359D01*
X110358D01*
X107078D02*
X103798Y33079D01*
M02*
