M48
;Layer_Color=9474304
;FILE_FORMAT=2:5
INCH,LZ
;TYPE=PLATED
T1F00S00C0.01181
T2F00S00C0.02756
T3F00S00C0.04331
T4F00S00C0.06299
;TYPE=NON_PLATED
T5F00S00C0.11811
%
T01
X0060236Y001811
X0076378Y0020866
X015Y0022835
X0156299Y0035039
X0125984Y0084252
X0079921Y0101607
X0055905Y0120472
T02
X0177559Y0035039
Y0042913
Y0050787
Y0058661
X0177953Y0082677
Y0090551
Y0098425
Y0106299
T03
X007728Y0068811
X008728
X009728
X0107161Y006889
X011728Y0068811
X012728
X013728
X014728
Y0128811
X0137476Y0128732
X012728Y0128811
X011728
X010728
X009728
X008728
X007728
X0053563Y010937
Y009937
X0043563
Y010937
Y008937
X0053563
Y007937
X0043563
Y006937
X0053563
T04
X0103264Y002126
X0123264
T05
X0011811Y0011811
X0198425Y0142913
M30
